NewAmsterdam.ufo
<glyph name="exclam" format="2">
  <advance width="200"/>
  <unicode hex="0021"/>
  <outline>
    <contour>
      <point x="98" y="127" type="curve" smooth="yes"/>
      <point x="50" y="127"/>
      <point x="31" y="110"/>
      <point x="31" y="63" type="curve" smooth="yes"/>
      <point x="31" y="18"/>
      <point x="50" y="0"/>
      <point x="98" y="0" type="curve" smooth="yes"/>
      <point x="149" y="0"/>
      <point x="167" y="18"/>
      <point x="167" y="63" type="curve" smooth="yes"/>
      <point x="167" y="110"/>
      <point x="149" y="127"/>
    </contour>
    <contour>
      <point x="167" y="781" type="line"/>
      <point x="31" y="781" type="line"/>
      <point x="31" y="192" type="line"/>
      <point x="167" y="192" type="line"/>
    </contour>
  </outline>
</glyph>
<glyph name="quotedbl" format="2">
  <advance width="304"/>
  <unicode hex="0022"/>
  <outline>
    <contour>
      <point x="24" y="582" type="line"/>
      <point x="24" y="581"/>
      <point x="47" y="581"/>
      <point x="68" y="582" type="curve"/>
      <point x="81" y="582"/>
      <point x="96" y="582"/>
      <point x="113" y="583" type="curve"/>
      <point x="140" y="782" type="line"/>
      <point x="24" y="782" type="line"/>
    </contour>
    <contour>
      <point x="169" y="583" type="line"/>
      <point x="169" y="582"/>
      <point x="173" y="582"/>
      <point x="182" y="582" type="curve" smooth="yes"/>
      <point x="212" y="582" type="line" smooth="yes"/>
      <point x="225" y="582"/>
      <point x="240" y="582"/>
      <point x="256" y="583" type="curve"/>
      <point x="286" y="782" type="line"/>
      <point x="169" y="782" type="line"/>
    </contour>
  </outline>
</glyph>
<glyph name="numbersign" format="2">
  <advance width="570"/>
  <unicode hex="0023"/>
  <outline>
    <contour>
      <point x="541" y="552" type="line"/>
      <point x="466" y="552" type="line"/>
      <point x="491" y="694" type="line"/>
      <point x="402" y="695" type="line"/>
      <point x="376" y="552" type="line"/>
      <point x="262" y="552" type="line"/>
      <point x="287" y="691" type="line"/>
      <point x="198" y="692" type="line"/>
      <point x="172" y="552" type="line"/>
      <point x="28" y="552" type="line"/>
      <point x="28" y="478" type="line"/>
      <point x="158" y="478" type="line"/>
      <point x="126" y="305" type="line"/>
      <point x="28" y="305" type="line"/>
      <point x="28" y="230" type="line"/>
      <point x="113" y="230" type="line"/>
      <point x="83" y="71" type="line"/>
      <point x="176" y="71" type="line"/>
      <point x="205" y="230" type="line"/>
      <point x="316" y="230" type="line"/>
      <point x="287" y="73" type="line"/>
      <point x="380" y="73" type="line"/>
      <point x="408" y="230" type="line"/>
      <point x="547" y="230" type="line"/>
      <point x="547" y="305" type="line"/>
      <point x="421" y="305" type="line"/>
      <point x="452" y="478" type="line"/>
      <point x="541" y="478" type="line"/>
    </contour>
    <contour>
      <point x="218" y="305" type="line"/>
      <point x="248" y="478" type="line"/>
      <point x="361" y="478" type="line"/>
      <point x="330" y="305" type="line"/>
    </contour>
  </outline>
</glyph>
<glyph name="dollar" format="2">
  <advance width="482"/>
  <unicode hex="0024"/>
  <outline>
    <contour>
      <point x="238" y="472" type="curve" smooth="yes"/>
      <point x="226" y="472"/>
      <point x="170" y="473"/>
      <point x="167" y="484" type="curve"/>
      <point x="159" y="505"/>
      <point x="160" y="530"/>
      <point x="160" y="574" type="curve"/>
      <point x="161" y="595"/>
      <point x="161" y="611"/>
      <point x="162" y="620" type="curve" smooth="yes"/>
      <point x="167" y="649"/>
      <point x="182" y="652"/>
      <point x="238" y="652" type="curve" smooth="yes"/>
      <point x="315" y="652"/>
      <point x="313" y="645"/>
      <point x="313" y="575" type="curve"/>
      <point x="448" y="575" type="line"/>
      <point x="448" y="698"/>
      <point x="410" y="758"/>
      <point x="301" y="774" type="curve"/>
      <point x="301" y="846" type="line"/>
      <point x="166" y="846" type="line"/>
      <point x="166" y="773" type="line"/>
      <point x="63" y="756"/>
      <point x="28" y="697"/>
      <point x="28" y="581" type="curve" smooth="yes"/>
      <point x="28" y="430"/>
      <point x="39" y="344"/>
      <point x="238" y="344" type="curve" smooth="yes"/>
      <point x="242" y="344" type="line" smooth="yes"/>
      <point x="267" y="344"/>
      <point x="300" y="341"/>
      <point x="310" y="328" type="curve"/>
      <point x="313" y="312"/>
      <point x="314" y="297"/>
      <point x="314" y="278" type="curve"/>
      <point x="317" y="261"/>
      <point x="314" y="232"/>
      <point x="313" y="185" type="curve"/>
      <point x="313" y="135"/>
      <point x="313" y="130"/>
      <point x="248" y="127" type="curve" smooth="yes"/>
      <point x="161" y="124"/>
      <point x="155" y="140"/>
      <point x="160" y="198" type="curve"/>
      <point x="160" y="211"/>
      <point x="161" y="229"/>
      <point x="161" y="242" type="curve"/>
      <point x="28" y="242" type="line"/>
      <point x="28" y="111"/>
      <point x="37" y="24"/>
      <point x="166" y="5" type="curve"/>
      <point x="166" y="-68" type="line"/>
      <point x="301" y="-68" type="line"/>
      <point x="301" y="4" type="line"/>
      <point x="410" y="20"/>
      <point x="448" y="78"/>
      <point x="448" y="198" type="curve" smooth="yes"/>
      <point x="448" y="224" type="line" smooth="yes"/>
      <point x="448" y="368"/>
      <point x="449" y="472"/>
    </contour>
  </outline>
</glyph>
<glyph name="percent" format="2">
  <advance width="482"/>
  <unicode hex="0025"/>
  <outline>
    <contour>
      <point x="328" y="772" type="line"/>
      <point x="72" y="0" type="line"/>
      <point x="140" y="0" type="line"/>
      <point x="400" y="770" type="line"/>
    </contour>
    <contour>
      <point x="452" y="293" type="line" smooth="yes"/>
      <point x="452" y="351"/>
      <point x="432" y="374"/>
      <point x="366" y="374" type="curve" smooth="yes"/>
      <point x="303" y="374"/>
      <point x="281" y="351"/>
      <point x="281" y="293" type="curve" smooth="yes"/>
      <point x="281" y="91" type="line" smooth="yes"/>
      <point x="281" y="33"/>
      <point x="303" y="10"/>
      <point x="366" y="10" type="curve" smooth="yes"/>
      <point x="446" y="10"/>
      <point x="452" y="44"/>
      <point x="452" y="107" type="curve" smooth="yes"/>
    </contour>
    <contour>
      <point x="335" y="293" type="line"/>
      <point x="335" y="315"/>
      <point x="336" y="322"/>
      <point x="366" y="322" type="curve" smooth="yes"/>
      <point x="396" y="322"/>
      <point x="397" y="318"/>
      <point x="397" y="293" type="curve" smooth="yes"/>
      <point x="397" y="107" type="line" smooth="yes"/>
      <point x="397" y="77"/>
      <point x="397" y="64"/>
      <point x="367" y="64" type="curve" smooth="yes"/>
      <point x="338" y="64"/>
      <point x="336" y="72"/>
      <point x="336" y="104" type="curve"/>
    </contour>
    <contour>
      <point x="196" y="690" type="line" smooth="yes"/>
      <point x="196" y="748"/>
      <point x="174" y="772"/>
      <point x="109" y="772" type="curve" smooth="yes"/>
      <point x="46" y="772"/>
      <point x="24" y="748"/>
      <point x="24" y="690" type="curve" smooth="yes"/>
      <point x="24" y="488" type="line" smooth="yes"/>
      <point x="24" y="431"/>
      <point x="46" y="407"/>
      <point x="109" y="407" type="curve" smooth="yes"/>
      <point x="188" y="407"/>
      <point x="196" y="441"/>
      <point x="196" y="504" type="curve" smooth="yes"/>
    </contour>
    <contour>
      <point x="78" y="690" type="line"/>
      <point x="78" y="712"/>
      <point x="79" y="719"/>
      <point x="109" y="719" type="curve" smooth="yes"/>
      <point x="139" y="719"/>
      <point x="140" y="718"/>
      <point x="140" y="690" type="curve" smooth="yes"/>
      <point x="140" y="504" type="line" smooth="yes"/>
      <point x="140" y="476"/>
      <point x="140" y="461"/>
      <point x="110" y="461" type="curve" smooth="yes"/>
      <point x="83" y="461"/>
      <point x="79" y="469"/>
      <point x="79" y="502" type="curve"/>
    </contour>
  </outline>
</glyph>
<glyph name="quotesingle" format="2">
  <advance width="152"/>
  <unicode hex="0027"/>
  <outline>
    <contour>
      <point x="20" y="577" type="line"/>
      <point x="20" y="576"/>
      <point x="42" y="576"/>
      <point x="65" y="577" type="curve"/>
      <point x="78" y="577"/>
      <point x="92" y="577"/>
      <point x="109" y="578" type="curve"/>
      <point x="137" y="778" type="line"/>
      <point x="20" y="778" type="line"/>
    </contour>
  </outline>
</glyph>
<glyph name="parenleft" format="2">
  <advance width="200"/>
  <unicode hex="0028"/>
  <outline>
    <contour>
      <point x="31" y="31" type="line" smooth="yes"/>
      <point x="31" y="-142"/>
      <point x="111" y="-175"/>
      <point x="288" y="-175" type="curve"/>
      <point x="288" y="-48" type="line"/>
      <point x="181" y="-48"/>
      <point x="166" y="-43"/>
      <point x="166" y="42" type="curve" smooth="yes"/>
      <point x="166" y="740" type="line" smooth="yes"/>
      <point x="166" y="828"/>
      <point x="181" y="830"/>
      <point x="288" y="830" type="curve"/>
      <point x="288" y="958" type="line"/>
      <point x="111" y="958"/>
      <point x="31" y="923"/>
      <point x="31" y="751" type="curve" smooth="yes"/>
    </contour>
  </outline>
</glyph>
<glyph name="parenright" format="2">
  <advance width="221"/>
  <unicode hex="0029"/>
  <outline>
    <contour>
      <point x="-72" y="829" type="line"/>
      <point x="35" y="829"/>
      <point x="50" y="827"/>
      <point x="50" y="739" type="curve" smooth="yes"/>
      <point x="50" y="41" type="line" smooth="yes"/>
      <point x="50" y="-47"/>
      <point x="35" y="-49"/>
      <point x="-72" y="-49" type="curve"/>
      <point x="-72" y="-176" type="line"/>
      <point x="105" y="-176"/>
      <point x="185" y="-143"/>
      <point x="185" y="30" type="curve" smooth="yes"/>
      <point x="185" y="750" type="line" smooth="yes"/>
      <point x="185" y="923"/>
      <point x="105" y="956"/>
      <point x="-72" y="956" type="curve"/>
    </contour>
  </outline>
</glyph>
<glyph name="plus" format="2">
  <advance width="367"/>
  <unicode hex="002B"/>
  <outline>
    <contour>
      <point x="235" y="430" type="line"/>
      <point x="235" y="539" type="line"/>
      <point x="138" y="539" type="line"/>
      <point x="138" y="430" type="line"/>
      <point x="29" y="430" type="line"/>
      <point x="29" y="332" type="line"/>
      <point x="138" y="332" type="line"/>
      <point x="138" y="223" type="line"/>
      <point x="235" y="223" type="line"/>
      <point x="235" y="332" type="line"/>
      <point x="344" y="332" type="line"/>
      <point x="344" y="430" type="line"/>
    </contour>
  </outline>
</glyph>
<glyph name="hyphen" format="2">
  <advance width="317"/>
  <unicode hex="002D"/>
  <outline>
    <contour>
      <point x="29" y="430" type="line"/>
      <point x="29" y="332" type="line"/>
      <point x="287" y="332" type="line"/>
      <point x="287" y="430" type="line"/>
    </contour>
  </outline>
</glyph>
<glyph name="period" format="2">
  <advance width="164"/>
  <unicode hex="002E"/>
  <outline>
    <contour>
      <point x="84" y="128" type="curve" smooth="yes"/>
      <point x="35" y="128"/>
      <point x="17" y="108"/>
      <point x="17" y="64" type="curve" smooth="yes"/>
      <point x="17" y="20"/>
      <point x="36" y="0"/>
      <point x="84" y="0" type="curve" smooth="yes"/>
      <point x="129" y="0"/>
      <point x="151" y="21"/>
      <point x="151" y="64" type="curve" smooth="yes"/>
      <point x="151" y="109"/>
      <point x="132" y="128"/>
    </contour>
  </outline>
</glyph>
<glyph name="slash" format="2">
  <advance width="348"/>
  <unicode hex="002F"/>
  <outline>
    <contour>
      <point x="246" y="772" type="line"/>
      <point x="17" y="0" type="line"/>
      <point x="110" y="0" type="line"/>
      <point x="335" y="770" type="line"/>
    </contour>
  </outline>
</glyph>
<glyph name="zero" format="2">
  <advance width="482"/>
  <unicode hex="0030"/>
  <outline>
    <contour>
      <point x="450" y="584" type="line" smooth="yes"/>
      <point x="450" y="728"/>
      <point x="395" y="784"/>
      <point x="240" y="784" type="curve" smooth="yes"/>
      <point x="83" y="784"/>
      <point x="29" y="728"/>
      <point x="29" y="584" type="curve" smooth="yes"/>
      <point x="29" y="199" type="line" smooth="yes"/>
      <point x="29" y="53"/>
      <point x="83" y="0"/>
      <point x="240" y="0" type="curve" smooth="yes"/>
      <point x="431" y="0"/>
      <point x="450" y="81"/>
      <point x="450" y="238" type="curve" smooth="yes"/>
    </contour>
    <contour>
      <point x="162" y="584" type="line"/>
      <point x="162" y="643"/>
      <point x="164" y="655"/>
      <point x="240" y="655" type="curve" smooth="yes"/>
      <point x="312" y="655"/>
      <point x="316" y="653"/>
      <point x="316" y="584" type="curve" smooth="yes"/>
      <point x="316" y="238" type="line" smooth="yes"/>
      <point x="316" y="166"/>
      <point x="314" y="130"/>
      <point x="242" y="130" type="curve" smooth="yes"/>
      <point x="173" y="130"/>
      <point x="164" y="151"/>
      <point x="164" y="232" type="curve"/>
    </contour>
  </outline>
</glyph>
<glyph name="one" format="2">
  <advance width="277"/>
  <unicode hex="0031"/>
  <outline>
    <contour>
      <point x="239" y="782" type="line"/>
      <point x="24" y="782" type="line"/>
      <point x="24" y="655" type="line"/>
      <point x="104" y="655" type="line"/>
      <point x="104" y="0" type="line"/>
      <point x="239" y="0" type="line"/>
    </contour>
  </outline>
</glyph>
<glyph name="two" format="2">
  <advance width="403"/>
  <unicode hex="0032"/>
  <outline>
    <contour>
      <point x="376" y="0" type="line"/>
      <point x="24" y="0" type="line"/>
      <point x="25" y="16"/>
      <point x="26" y="51"/>
      <point x="26" y="67" type="qcurve" smooth="yes"/>
      <point x="26" y="83"/>
      <point x="25" y="112"/>
      <point x="25" y="127" type="qcurve"/>
      <point x="24" y="140"/>
      <point x="24" y="170"/>
      <point x="24" y="181" type="qcurve" smooth="yes"/>
      <point x="24" y="221"/>
      <point x="35" y="289"/>
      <point x="73" y="337"/>
      <point x="142" y="364"/>
      <point x="201" y="364" type="qcurve" smooth="yes"/>
      <point x="226" y="364"/>
      <point x="253" y="377"/>
      <point x="265" y="398"/>
      <point x="266" y="424"/>
      <point x="265" y="438" type="qcurve"/>
      <point x="265" y="443"/>
      <point x="264" y="451"/>
      <point x="264" y="455" type="qcurve" smooth="yes"/>
      <point x="264" y="509"/>
      <point x="240" y="547"/>
      <point x="201" y="547" type="qcurve" smooth="yes"/>
      <point x="183" y="547"/>
      <point x="157" y="544"/>
      <point x="142" y="531"/>
      <point x="136" y="505"/>
      <point x="137" y="483" type="qcurve"/>
      <point x="24" y="483" type="line"/>
      <point x="24" y="528"/>
      <point x="42" y="592"/>
      <point x="83" y="634"/>
      <point x="151" y="653"/>
      <point x="201" y="653" type="qcurve" smooth="yes"/>
      <point x="251" y="653"/>
      <point x="318" y="634"/>
      <point x="359" y="594"/>
      <point x="376" y="532"/>
      <point x="376" y="488" type="qcurve" smooth="yes"/>
      <point x="376" y="465" type="line" smooth="yes"/>
      <point x="376" y="420"/>
      <point x="371" y="343"/>
      <point x="338" y="288"/>
      <point x="266" y="257"/>
      <point x="199" y="257" type="qcurve" smooth="yes"/>
      <point x="194" y="257"/>
      <point x="177" y="256"/>
      <point x="159" y="252"/>
      <point x="143" y="242"/>
      <point x="141" y="233" type="qcurve" smooth="yes"/>
      <point x="139" y="224"/>
      <point x="138" y="191"/>
      <point x="137" y="154"/>
      <point x="137" y="119"/>
      <point x="137" y="107" type="qcurve"/>
      <point x="376" y="107" type="line"/>
    </contour>
  </outline>
</glyph>
<glyph name="three" format="2">
  <advance width="466"/>
  <unicode hex="0033"/>
  <outline>
    <contour>
      <point x="143" y="347" type="line"/>
      <point x="176" y="347" type="line"/>
      <point x="208" y="348"/>
      <point x="237" y="350"/>
      <point x="272" y="338" type="curve"/>
      <point x="300" y="330"/>
      <point x="307" y="306"/>
      <point x="307" y="238" type="curve" smooth="yes"/>
      <point x="307" y="217" type="line" smooth="yes"/>
      <point x="307" y="170"/>
      <point x="311" y="127"/>
      <point x="223" y="127" type="curve" smooth="yes"/>
      <point x="169" y="127"/>
      <point x="154" y="138"/>
      <point x="154" y="206" type="curve"/>
      <point x="18" y="206" type="line"/>
      <point x="18" y="59"/>
      <point x="71" y="0"/>
      <point x="229" y="0" type="curve" smooth="yes"/>
      <point x="428" y="0"/>
      <point x="442" y="84"/>
      <point x="442" y="238" type="curve" smooth="yes"/>
      <point x="442" y="303"/>
      <point x="441" y="359"/>
      <point x="391" y="412" type="curve"/>
      <point x="428" y="448"/>
      <point x="440" y="499"/>
      <point x="440" y="547" type="curve" smooth="yes"/>
      <point x="440" y="699"/>
      <point x="424" y="784"/>
      <point x="229" y="784" type="curve" smooth="yes"/>
      <point x="71" y="784"/>
      <point x="18" y="723"/>
      <point x="18" y="580" type="curve"/>
      <point x="154" y="580" type="line"/>
      <point x="154" y="649"/>
      <point x="153" y="656"/>
      <point x="229" y="656" type="curve"/>
      <point x="303" y="653"/>
      <point x="306" y="640"/>
      <point x="306" y="580" type="curve" smooth="yes"/>
      <point x="306" y="534"/>
      <point x="310" y="478"/>
      <point x="226" y="475" type="curve" smooth="yes"/>
      <point x="207" y="474"/>
      <point x="191" y="475"/>
      <point x="174" y="475" type="curve" smooth="yes"/>
      <point x="143" y="475" type="line"/>
    </contour>
  </outline>
</glyph>
<glyph name="four" format="2">
  <advance width="486"/>
  <unicode hex="0034"/>
  <outline>
    <contour>
      <point x="463" y="359" type="line"/>
      <point x="403" y="359" type="line"/>
      <point x="403" y="784" type="line"/>
      <point x="270" y="784" type="line"/>
      <point x="23" y="355" type="line"/>
      <point x="22" y="342"/>
      <point x="22" y="329"/>
      <point x="22" y="316" type="curve" smooth="yes"/>
      <point x="22" y="252" type="line"/>
      <point x="22" y="232" type="line"/>
      <point x="268" y="232" type="line"/>
      <point x="268" y="0" type="line"/>
      <point x="403" y="0" type="line"/>
      <point x="403" y="232" type="line"/>
      <point x="463" y="232" type="line"/>
    </contour>
    <contour>
      <point x="268" y="359" type="line"/>
      <point x="176" y="359" type="line"/>
      <point x="207" y="411"/>
      <point x="239" y="462"/>
      <point x="268" y="514" type="curve"/>
    </contour>
  </outline>
</glyph>
<glyph name="five" format="2">
  <advance width="481"/>
  <unicode hex="0035"/>
  <outline>
    <contour>
      <point x="31" y="205" type="line"/>
      <point x="31" y="58"/>
      <point x="84" y="0"/>
      <point x="242" y="0" type="curve" smooth="yes"/>
      <point x="439" y="0"/>
      <point x="454" y="84"/>
      <point x="454" y="238" type="curve" smooth="yes"/>
      <point x="454" y="277" type="line" smooth="yes"/>
      <point x="454" y="415"/>
      <point x="458" y="506"/>
      <point x="253" y="506" type="curve" smooth="yes"/>
      <point x="166" y="506" type="line"/>
      <point x="166" y="655" type="line"/>
      <point x="454" y="655" type="line"/>
      <point x="454" y="784" type="line"/>
      <point x="31" y="784" type="line"/>
      <point x="31" y="379" type="line"/>
      <point x="220" y="379" type="line" smooth="yes"/>
      <point x="320" y="379"/>
      <point x="322" y="363"/>
      <point x="322" y="276" type="curve" smooth="yes"/>
      <point x="322" y="266" type="line" smooth="yes"/>
      <point x="322" y="237"/>
      <point x="323" y="185"/>
      <point x="304" y="157" type="curve" smooth="yes"/>
      <point x="291" y="138"/>
      <point x="265" y="132"/>
      <point x="244" y="132" type="curve" smooth="yes"/>
      <point x="224" y="132"/>
      <point x="206" y="136"/>
      <point x="193" y="143" type="curve"/>
      <point x="193" y="142" type="line"/>
      <point x="165" y="152"/>
      <point x="166" y="201"/>
      <point x="166" y="205" type="curve" name=".hr01"/>
    </contour>
  </outline>
</glyph>
<glyph name="six" format="2">
  <advance width="485"/>
  <unicode hex="0036"/>
  <outline>
    <contour>
      <point x="457" y="580" type="line"/>
      <point x="457" y="723"/>
      <point x="404" y="784"/>
      <point x="246" y="784" type="curve" smooth="yes"/>
      <point x="43" y="784"/>
      <point x="35" y="689"/>
      <point x="35" y="554" type="curve" smooth="yes"/>
      <point x="35" y="212" type="line" smooth="yes"/>
      <point x="35" y="91"/>
      <point x="54" y="0"/>
      <point x="246" y="0" type="curve" smooth="yes"/>
      <point x="405" y="0"/>
      <point x="457" y="56"/>
      <point x="457" y="199" type="curve" smooth="yes"/>
      <point x="457" y="224" type="line" smooth="yes"/>
      <point x="457" y="370"/>
      <point x="459" y="474"/>
      <point x="246" y="474" type="curve" smooth="yes"/>
      <point x="221" y="474"/>
      <point x="193" y="473"/>
      <point x="169" y="468" type="curve"/>
      <point x="169" y="484" type="line" smooth="yes"/>
      <point x="169" y="501"/>
      <point x="168" y="522"/>
      <point x="168" y="545" type="curve" smooth="yes"/>
      <point x="168" y="586"/>
      <point x="171" y="632"/>
      <point x="176" y="644" type="curve"/>
      <point x="175" y="644" type="line"/>
      <point x="180" y="652"/>
      <point x="213" y="656"/>
      <point x="245" y="656" type="curve" smooth="yes"/>
      <point x="273" y="656"/>
      <point x="303" y="654"/>
      <point x="307" y="650" type="curve"/>
      <point x="333" y="634"/>
      <point x="319" y="583"/>
      <point x="319" y="580" type="curve"/>
    </contour>
    <contour>
      <point x="170" y="250" type="line" smooth="yes"/>
      <point x="170" y="322"/>
      <point x="171" y="346"/>
      <point x="246" y="349" type="curve" smooth="yes"/>
      <point x="319" y="352"/>
      <point x="322" y="329"/>
      <point x="322" y="256" type="curve" smooth="yes"/>
      <point x="322" y="222" type="line" smooth="yes"/>
      <point x="322" y="149"/>
      <point x="324" y="131"/>
      <point x="245" y="131" type="curve" smooth="yes"/>
      <point x="178" y="131"/>
      <point x="170" y="137"/>
      <point x="170" y="233" type="curve" smooth="yes"/>
    </contour>
  </outline>
</glyph>
<glyph name="seven" format="2">
  <advance width="432"/>
  <unicode hex="0037"/>
  <outline>
    <contour>
      <point x="404" y="784" type="line"/>
      <point x="22" y="784" type="line"/>
      <point x="22" y="656" type="line"/>
      <point x="269" y="656" type="line"/>
      <point x="64" y="0" type="line"/>
      <point x="205" y="0" type="line"/>
      <point x="217" y="35"/>
      <point x="231" y="73"/>
      <point x="240" y="108" type="curve"/>
      <point x="240" y="107" type="line"/>
      <point x="308" y="311"/>
      <point x="438" y="693"/>
      <point x="410" y="779" type="curve"/>
    </contour>
  </outline>
</glyph>
<glyph name="eight" format="2">
  <advance width="480"/>
  <unicode hex="0038"/>
  <outline>
    <contour>
      <point x="25" y="199" type="line" smooth="yes"/>
      <point x="25" y="56"/>
      <point x="78" y="0"/>
      <point x="238" y="0" type="curve" smooth="yes"/>
      <point x="434" y="0"/>
      <point x="448" y="84"/>
      <point x="448" y="238" type="curve" smooth="yes"/>
      <point x="448" y="301"/>
      <point x="449" y="361"/>
      <point x="398" y="412" type="curve"/>
      <point x="435" y="448"/>
      <point x="448" y="498"/>
      <point x="448" y="546" type="curve" smooth="yes"/>
      <point x="448" y="698"/>
      <point x="434" y="784"/>
      <point x="238" y="784" type="curve" smooth="yes"/>
      <point x="78" y="784"/>
      <point x="25" y="725"/>
      <point x="25" y="584" type="curve" smooth="yes"/>
      <point x="25" y="523"/>
      <point x="23" y="460"/>
      <point x="76" y="412" type="curve"/>
      <point x="36" y="374"/>
      <point x="25" y="324"/>
      <point x="25" y="275" type="curve" smooth="yes"/>
      <point x="25" y="224" type="line"/>
    </contour>
    <contour>
      <point x="313" y="172" type="line"/>
      <point x="314" y="145"/>
      <point x="274" y="133"/>
      <point x="234" y="133" type="curve" smooth="yes"/>
      <point x="197" y="133"/>
      <point x="161" y="144"/>
      <point x="161" y="172" type="curve" smooth="yes"/>
      <point x="161" y="217" type="line" smooth="yes"/>
      <point x="161" y="237"/>
      <point x="161" y="258"/>
      <point x="162" y="279" type="curve" smooth="yes"/>
      <point x="163" y="300"/>
      <point x="165" y="314"/>
      <point x="169" y="319" type="curve" smooth="yes"/>
      <point x="195" y="353"/>
      <point x="277" y="351"/>
      <point x="304" y="319" type="curve"/>
      <point x="313" y="310"/>
      <point x="313" y="257"/>
      <point x="313" y="217" type="curve" smooth="yes"/>
    </contour>
    <contour>
      <point x="162" y="630" type="curve"/>
      <point x="171" y="649"/>
      <point x="203" y="658"/>
      <point x="235" y="658" type="curve" smooth="yes"/>
      <point x="272" y="658"/>
      <point x="312" y="646"/>
      <point x="312" y="622" type="curve" smooth="yes"/>
      <point x="312" y="610"/>
      <point x="313" y="601"/>
      <point x="313" y="589" type="curve"/>
      <point x="314" y="564"/>
      <point x="316" y="541"/>
      <point x="308" y="514" type="curve"/>
      <point x="303" y="491"/>
      <point x="270" y="479"/>
      <point x="238" y="479" type="curve" smooth="yes"/>
      <point x="210" y="479"/>
      <point x="185" y="487"/>
      <point x="173" y="499" type="curve" smooth="yes"/>
      <point x="161" y="511"/>
      <point x="160" y="540"/>
      <point x="160" y="569" type="curve" smooth="yes"/>
      <point x="160" y="593"/>
      <point x="161" y="617"/>
    </contour>
  </outline>
</glyph>
<glyph name="nine" format="2">
  <advance width="472"/>
  <unicode hex="0039"/>
  <outline>
    <contour>
      <point x="166" y="646" type="line"/>
      <point x="174" y="654"/>
      <point x="207" y="659"/>
      <point x="239" y="659" type="curve" smooth="yes"/>
      <point x="267" y="659"/>
      <point x="297" y="655"/>
      <point x="302" y="646" type="curve"/>
      <point x="310" y="636"/>
      <point x="312" y="592"/>
      <point x="312" y="565" type="curve" smooth="yes"/>
      <point x="312" y="546" type="line"/>
      <point x="312" y="523" type="line" smooth="yes"/>
      <point x="312" y="497"/>
      <point x="310" y="457"/>
      <point x="305" y="448" type="curve"/>
      <point x="297" y="440"/>
      <point x="263" y="437"/>
      <point x="234" y="437" type="curve" smooth="yes"/>
      <point x="202" y="437"/>
      <point x="170" y="440"/>
      <point x="163" y="448" type="curve"/>
      <point x="157" y="457"/>
      <point x="154" y="537"/>
      <point x="154" y="546" type="curve" smooth="yes"/>
      <point x="154" y="558" type="line" smooth="yes"/>
      <point x="154" y="591"/>
      <point x="152" y="634"/>
      <point x="164" y="646" type="curve"/>
    </contour>
    <contour>
      <point x="23" y="206" type="line"/>
      <point x="23" y="59"/>
      <point x="75" y="0"/>
      <point x="234" y="0" type="curve" smooth="yes"/>
      <point x="445" y="0"/>
      <point x="444" y="101"/>
      <point x="444" y="241" type="curve" smooth="yes"/>
      <point x="444" y="274" type="line"/>
      <point x="445" y="486" type="line"/>
      <point x="445" y="568" type="line" smooth="yes"/>
      <point x="445" y="692"/>
      <point x="426" y="784"/>
      <point x="234" y="784" type="curve" smooth="yes"/>
      <point x="75" y="784"/>
      <point x="23" y="725"/>
      <point x="23" y="586" type="curve" smooth="yes"/>
      <point x="23" y="558" type="line" smooth="yes"/>
      <point x="23" y="414"/>
      <point x="21" y="308"/>
      <point x="234" y="308" type="curve" smooth="yes"/>
      <point x="259" y="308"/>
      <point x="283" y="309"/>
      <point x="311" y="314" type="curve"/>
      <point x="311" y="304" type="line" smooth="yes"/>
      <point x="311" y="253"/>
      <point x="312" y="152"/>
      <point x="305" y="138" type="curve"/>
      <point x="298" y="131"/>
      <point x="272" y="128"/>
      <point x="244" y="128" type="curve" smooth="yes"/>
      <point x="209" y="128"/>
      <point x="166" y="132"/>
      <point x="163" y="138" type="curve" smooth="yes"/>
      <point x="161" y="142"/>
      <point x="160" y="152"/>
      <point x="159" y="167" type="curve" smooth="yes"/>
      <point x="158" y="182" name=".hr01"/>
      <point x="158" y="194"/>
      <point x="158" y="203" type="curve"/>
    </contour>
  </outline>
</glyph>
<glyph name="less" format="2">
  <advance width="377"/>
  <unicode hex="003C"/>
  <outline>
    <contour>
      <point x="29" y="428" type="line"/>
      <point x="29" y="318" type="line"/>
      <point x="341" y="140" type="line"/>
      <point x="340" y="258" type="line"/>
      <point x="124" y="373" type="line"/>
      <point x="343" y="488" type="line"/>
      <point x="344" y="604" type="line"/>
    </contour>
  </outline>
</glyph>
<glyph name="equal" format="2">
  <advance width="404"/>
  <unicode hex="003D"/>
  <outline>
    <contour>
      <point x="29" y="505" type="line"/>
      <point x="29" y="408" type="line"/>
      <point x="379" y="408" type="line"/>
      <point x="379" y="505" type="line"/>
    </contour>
    <contour>
      <point x="380" y="340" type="line"/>
      <point x="30" y="340" type="line"/>
      <point x="30" y="242" type="line"/>
      <point x="380" y="242" type="line"/>
    </contour>
  </outline>
</glyph>
<glyph name="greater" format="2">
  <advance width="377"/>
  <unicode hex="003E"/>
  <outline>
    <contour>
      <point x="30" y="608" type="line"/>
      <point x="31" y="491" type="line"/>
      <point x="252" y="372" type="line"/>
      <point x="35" y="254" type="line"/>
      <point x="34" y="134" type="line"/>
      <point x="347" y="316" type="line"/>
      <point x="347" y="430" type="line"/>
    </contour>
  </outline>
</glyph>
<glyph name="question" format="2">
  <advance width="380"/>
  <unicode hex="003F"/>
  <outline>
    <contour>
      <point x="161" y="106" type="qcurve" smooth="yes"/>
      <point x="217" y="106"/>
      <point x="217" y="53" type="qcurve" smooth="yes"/>
      <point x="217" y="24"/>
      <point x="191" y="0"/>
      <point x="161" y="0" type="qcurve" smooth="yes"/>
      <point x="131" y="0"/>
      <point x="105" y="24"/>
      <point x="105" y="53" type="qcurve" smooth="yes"/>
      <point x="105" y="106"/>
    </contour>
    <contour>
      <point x="105" y="160" type="line"/>
      <point x="105" y="216"/>
      <point x="125" y="286"/>
      <point x="155" y="328"/>
      <point x="191" y="349"/>
      <point x="207" y="357" type="qcurve" smooth="yes"/>
      <point x="224" y="365"/>
      <point x="248" y="381"/>
      <point x="250" y="398" type="qcurve" smooth="yes"/>
      <point x="251" y="406"/>
      <point x="252" y="443"/>
      <point x="252" y="461" type="qcurve" smooth="yes"/>
      <point x="252" y="486"/>
      <point x="249" y="530"/>
      <point x="246" y="537" type="qcurve"/>
      <point x="243" y="541"/>
      <point x="213" y="544"/>
      <point x="194" y="544" type="qcurve" smooth="yes"/>
      <point x="171" y="544"/>
      <point x="131" y="540"/>
      <point x="129" y="536" type="qcurve" smooth="yes"/>
      <point x="127" y="534"/>
      <point x="125" y="519"/>
      <point x="124" y="501"/>
      <point x="124" y="484"/>
      <point x="124" y="481" type="qcurve"/>
      <point x="11" y="481" type="line"/>
      <point x="11" y="526"/>
      <point x="29" y="590"/>
      <point x="70" y="632"/>
      <point x="138" y="651"/>
      <point x="188" y="651" type="qcurve" smooth="yes"/>
      <point x="238" y="651"/>
      <point x="305" y="632"/>
      <point x="346" y="592"/>
      <point x="363" y="530"/>
      <point x="363" y="486" type="qcurve" smooth="yes"/>
      <point x="363" y="415"/>
      <point x="347" y="333"/>
      <point x="321" y="289"/>
      <point x="289" y="273"/>
      <point x="273" y="269" type="qcurve" smooth="yes"/>
      <point x="262" y="266"/>
      <point x="242" y="258"/>
      <point x="227" y="236"/>
      <point x="217" y="195"/>
      <point x="217" y="160" type="qcurve"/>
    </contour>
  </outline>
</glyph>
<glyph name="D" format="2">
  <advance width="487"/>
  <unicode hex="0044"/>
  <outline>
    <contour>
      <point x="34" y="0" type="line"/>
      <point x="152" y="0" type="line" smooth="yes"/>
      <point x="316" y="0"/>
      <point x="454" y="18"/>
      <point x="454" y="218" type="curve" smooth="yes"/>
      <point x="454" y="577" type="line" smooth="yes"/>
      <point x="454" y="717"/>
      <point x="401" y="779"/>
      <point x="244" y="779" type="curve" smooth="yes"/>
      <point x="34" y="779" type="line"/>
    </contour>
    <contour>
      <point x="168" y="653" type="line"/>
      <point x="193" y="653" type="line" smooth="yes"/>
      <point x="281" y="653"/>
      <point x="320" y="655"/>
      <point x="320" y="565" type="curve" smooth="yes"/>
      <point x="320" y="223" type="line" smooth="yes"/>
      <point x="320" y="131"/>
      <point x="277" y="127"/>
      <point x="168" y="127" type="curve"/>
    </contour>
  </outline>
</glyph>
<glyph name="E" format="2">
  <advance width="449"/>
  <unicode hex="0045"/>
  <outline>
    <contour>
      <point x="414" y="127" type="line"/>
      <point x="169" y="127" type="line"/>
      <point x="169" y="344" type="line"/>
      <point x="342" y="344" type="line"/>
      <point x="342" y="472" type="line"/>
      <point x="169" y="472" type="line"/>
      <point x="169" y="653" type="line"/>
      <point x="414" y="653" type="line"/>
      <point x="414" y="779" type="line"/>
      <point x="35" y="779" type="line"/>
      <point x="35" y="0" type="line"/>
      <point x="414" y="0" type="line"/>
    </contour>
  </outline>
</glyph>
<glyph name="H" format="2">
  <advance width="496"/>
  <unicode hex="0048"/>
  <outline>
    <contour>
      <point x="452" y="779" type="line"/>
      <point x="320" y="779" type="line"/>
      <point x="320" y="473" type="line"/>
      <point x="168" y="473" type="line"/>
      <point x="168" y="779" type="line"/>
      <point x="34" y="779" type="line"/>
      <point x="34" y="0" type="line"/>
      <point x="168" y="0" type="line"/>
      <point x="168" y="344" type="line"/>
      <point x="320" y="344" type="line"/>
      <point x="320" y="0" type="line"/>
      <point x="452" y="0" type="line"/>
    </contour>
  </outline>
</glyph>
<glyph name="P" format="2">
  <advance width="486"/>
  <unicode hex="0050"/>
  <outline>
    <contour>
      <point x="168" y="269" type="line"/>
      <point x="346" y="269"/>
      <point x="456" y="269"/>
      <point x="456" y="466" type="curve" smooth="yes"/>
      <point x="456" y="482"/>
      <point x="457" y="496"/>
      <point x="457" y="511" type="curve" smooth="yes"/>
      <point x="457" y="528"/>
      <point x="458" y="547"/>
      <point x="458" y="564" type="curve" smooth="yes"/>
      <point x="458" y="686"/>
      <point x="436" y="778"/>
      <point x="244" y="778" type="curve" smooth="yes"/>
      <point x="32" y="778" type="line"/>
      <point x="32" y="0" type="line"/>
      <point x="168" y="0" type="line"/>
    </contour>
    <contour>
      <point x="168" y="652" type="line"/>
      <point x="202" y="652" type="line" smooth="yes"/>
      <point x="263" y="652"/>
      <point x="326" y="656"/>
      <point x="323" y="570" type="curve"/>
      <point x="323" y="497" type="line"/>
      <point x="326" y="392"/>
      <point x="327" y="395"/>
      <point x="168" y="395" type="curve"/>
    </contour>
  </outline>
</glyph>
<glyph name="R" format="2">
  <advance width="492"/>
  <unicode hex="0052"/>
  <outline>
    <contour>
      <point x="461" y="0" type="line"/>
      <point x="350" y="282" type="line"/>
      <point x="402" y="297"/>
      <point x="429" y="327"/>
      <point x="444" y="364" type="curve" smooth="yes"/>
      <point x="451" y="383"/>
      <point x="456" y="403"/>
      <point x="458" y="425" type="curve" smooth="yes"/>
      <point x="460" y="447"/>
      <point x="460" y="487"/>
      <point x="459" y="546" type="curve" smooth="yes"/>
      <point x="458" y="605"/>
      <point x="454" y="646"/>
      <point x="447" y="671" type="curve" smooth="yes"/>
      <point x="440" y="696"/>
      <point x="429" y="716"/>
      <point x="413" y="732" type="curve" smooth="yes"/>
      <point x="381" y="764"/>
      <point x="327" y="779"/>
      <point x="248" y="779" type="curve" smooth="yes"/>
      <point x="37" y="779" type="line"/>
      <point x="37" y="0" type="line"/>
      <point x="172" y="0" type="line"/>
      <point x="172" y="269" type="line"/>
      <point x="211" y="269" type="line"/>
      <point x="317" y="0" type="line"/>
    </contour>
    <contour>
      <point x="172" y="653" type="line"/>
      <point x="248" y="653" type="line" smooth="yes"/>
      <point x="275" y="653"/>
      <point x="294" y="646"/>
      <point x="306" y="633" type="curve" smooth="yes"/>
      <point x="319" y="620"/>
      <point x="325" y="588"/>
      <point x="325" y="538" type="curve"/>
      <point x="326" y="489"/>
      <point x="325" y="457"/>
      <point x="324" y="444" type="curve" smooth="yes"/>
      <point x="322" y="403"/>
      <point x="286" y="395"/>
      <point x="172" y="395" type="curve"/>
    </contour>
  </outline>
</glyph>
<glyph name="V" format="2">
  <advance width="460"/>
  <unicode hex="0056"/>
  <outline>
    <contour>
      <point x="436" y="778" type="line"/>
      <point x="301" y="778" type="line"/>
      <point x="301" y="714"/>
      <point x="304" y="657"/>
      <point x="304" y="604" type="curve" smooth="yes"/>
      <point x="304" y="455"/>
      <point x="293" y="313"/>
      <point x="226" y="174" type="curve"/>
      <point x="155" y="303"/>
      <point x="146" y="452"/>
      <point x="146" y="601" type="curve" smooth="yes"/>
      <point x="146" y="630"/>
      <point x="148" y="659"/>
      <point x="148" y="688" type="curve" smooth="yes"/>
      <point x="148" y="715"/>
      <point x="149" y="750"/>
      <point x="149" y="778" type="curve"/>
      <point x="16" y="778" type="line"/>
      <point x="16" y="605" type="line" smooth="yes"/>
      <point x="16" y="391"/>
      <point x="29" y="193"/>
      <point x="182" y="0" type="curve"/>
      <point x="268" y="0" type="line"/>
      <point x="420" y="192"/>
      <point x="436" y="392"/>
      <point x="436" y="605" type="curve" smooth="yes"/>
    </contour>
  </outline>
</glyph>
<glyph name="X" format="2">
  <advance width="480"/>
  <unicode hex="0058"/>
  <outline>
    <contour>
      <point x="449" y="0" type="line"/>
      <point x="449" y="90" type="line" smooth="yes"/>
      <point x="449" y="204"/>
      <point x="441" y="293"/>
      <point x="336" y="390" type="curve"/>
      <point x="441" y="485"/>
      <point x="449" y="577"/>
      <point x="449" y="690" type="curve" smooth="yes"/>
      <point x="449" y="779" type="line"/>
      <point x="314" y="779" type="line"/>
      <point x="314" y="762"/>
      <point x="316" y="741"/>
      <point x="316" y="722" type="curve" smooth="yes"/>
      <point x="316" y="706"/>
      <point x="317" y="692"/>
      <point x="317" y="679" type="curve" smooth="yes"/>
      <point x="317" y="604"/>
      <point x="307" y="537"/>
      <point x="238" y="478" type="curve"/>
      <point x="168" y="535"/>
      <point x="160" y="601"/>
      <point x="160" y="674" type="curve" smooth="yes"/>
      <point x="160" y="690"/>
      <point x="161" y="704"/>
      <point x="161" y="720" type="curve" smooth="yes"/>
      <point x="161" y="737"/>
      <point x="162" y="762"/>
      <point x="162" y="779" type="curve"/>
      <point x="29" y="779" type="line"/>
      <point x="29" y="690" type="line" smooth="yes"/>
      <point x="29" y="576"/>
      <point x="36" y="486"/>
      <point x="140" y="390" type="curve"/>
      <point x="36" y="291"/>
      <point x="29" y="205"/>
      <point x="29" y="90" type="curve" smooth="yes"/>
      <point x="29" y="0" type="line"/>
      <point x="162" y="0" type="line"/>
      <point x="162" y="19"/>
      <point x="161" y="43"/>
      <point x="161" y="60" type="curve" smooth="yes"/>
      <point x="161" y="76"/>
      <point x="160" y="90"/>
      <point x="160" y="106" type="curve" smooth="yes"/>
      <point x="160" y="181"/>
      <point x="168" y="239"/>
      <point x="238" y="301" type="curve"/>
      <point x="307" y="237"/>
      <point x="317" y="177"/>
      <point x="317" y="102" type="curve" smooth="yes"/>
      <point x="317" y="89"/>
      <point x="316" y="75"/>
      <point x="316" y="59" type="curve" smooth="yes"/>
      <point x="316" y="42"/>
      <point x="314" y="19"/>
      <point x="314" y="0" type="curve"/>
    </contour>
  </outline>
</glyph>
<glyph name="Y" format="2">
  <advance width="466"/>
  <unicode hex="0059"/>
  <outline>
    <contour>
      <point x="440" y="779" type="line"/>
      <point x="306" y="779" type="line"/>
      <point x="306" y="738"/>
      <point x="308" y="701"/>
      <point x="308" y="672" type="curve" smooth="yes"/>
      <point x="308" y="585"/>
      <point x="297" y="509"/>
      <point x="228" y="437" type="curve"/>
      <point x="164" y="506"/>
      <point x="151" y="584"/>
      <point x="151" y="664" type="curve" smooth="yes"/>
      <point x="151" y="681"/>
      <point x="152" y="697"/>
      <point x="152" y="714" type="curve" smooth="yes"/>
      <point x="152" y="733"/>
      <point x="154" y="758"/>
      <point x="154" y="779" type="curve"/>
      <point x="20" y="779" type="line"/>
      <point x="20" y="688" type="line" smooth="yes"/>
      <point x="20" y="544"/>
      <point x="29" y="436"/>
      <point x="162" y="322" type="curve"/>
      <point x="162" y="0" type="line"/>
      <point x="296" y="0" type="line"/>
      <point x="296" y="322" type="line"/>
      <point x="428" y="436"/>
      <point x="440" y="544"/>
      <point x="440" y="688" type="curve" smooth="yes"/>
    </contour>
  </outline>
</glyph>
<glyph name="Z" format="2">
  <advance width="439"/>
  <unicode hex="005A"/>
  <outline>
    <contour>
      <point x="406" y="127" type="line"/>
      <point x="174" y="127" type="line"/>
      <point x="404" y="650" type="line"/>
      <point x="406" y="779" type="line"/>
      <point x="26" y="779" type="line"/>
      <point x="26" y="653" type="line"/>
      <point x="259" y="653" type="line"/>
      <point x="26" y="128" type="line"/>
      <point x="26" y="0" type="line"/>
      <point x="406" y="0" type="line"/>
    </contour>
  </outline>
</glyph>
<glyph name="bracketleft" format="2">
  <advance width="186"/>
  <unicode hex="005B"/>
  <outline>
    <contour>
      <point x="35" y="-139" type="line"/>
      <point x="36" y="781" type="line"/>
      <point x="268" y="781" type="line"/>
      <point x="268" y="688" type="line"/>
      <point x="147" y="688" type="line"/>
      <point x="146" y="-38" type="line"/>
      <point x="267" y="-38" type="line"/>
      <point x="267" y="-139" type="line"/>
    </contour>
  </outline>
</glyph>
<glyph name="underscore" format="2">
  <advance width="385"/>
  <unicode hex="005F"/>
  <outline>
    <contour>
      <point x="26" y="0" type="line"/>
      <point x="26" y="-97" type="line"/>
      <point x="354" y="-97" type="line"/>
      <point x="354" y="0" type="line"/>
    </contour>
  </outline>
</glyph>
<glyph name="grave" format="2">
  <advance width="224"/>
  <unicode hex="0060"/>
  <outline>
    <contour>
      <point x="56" y="709" type="curve" smooth="yes"/>
      <point x="75" y="685"/>
      <point x="94" y="660"/>
      <point x="94" y="659" type="curve"/>
      <point x="94" y="658"/>
      <point x="121" y="658"/>
      <point x="150" y="659" type="curve"/>
      <point x="167" y="659"/>
      <point x="186" y="659"/>
      <point x="208" y="660" type="curve"/>
      <point x="136" y="757" type="line"/>
      <point x="19" y="757" type="line"/>
      <point x="33" y="740"/>
      <point x="45" y="724"/>
    </contour>
  </outline>
</glyph>
<glyph name="f" format="2">
  <advance width="444"/>
  <unicode hex="0066"/>
  <outline>
    <contour>
      <point x="415" y="779" type="line"/>
      <point x="36" y="779" type="line"/>
      <point x="36" y="0" type="line"/>
      <point x="170" y="0" type="line"/>
      <point x="170" y="344" type="line"/>
      <point x="343" y="344" type="line"/>
      <point x="343" y="472" type="line"/>
      <point x="170" y="472" type="line"/>
      <point x="170" y="653" type="line"/>
      <point x="415" y="653" type="line"/>
    </contour>
  </outline>
</glyph>
<glyph name="g" format="2">
  <advance width="482"/>
  <unicode hex="0067"/>
  <outline>
    <contour>
      <point x="449" y="576" type="line" name=".hr02"/>
      <point x="449" y="720"/>
      <point x="395" y="779"/>
      <point x="239" y="779" type="curve" smooth="yes"/>
      <point x="79" y="779"/>
      <point x="29" y="722"/>
      <point x="29" y="582" type="curve" smooth="yes"/>
      <point x="29" y="198" type="line" smooth="yes"/>
      <point x="29" y="57"/>
      <point x="79" y="0"/>
      <point x="239" y="0" type="curve" smooth="yes"/>
      <point x="435" y="0"/>
      <point x="449" y="108"/>
      <point x="449" y="294" type="curve" smooth="yes"/>
      <point x="449" y="434" type="line"/>
      <point x="204" y="434" type="line"/>
      <point x="204" y="307" type="line"/>
      <point x="314" y="307" type="line"/>
      <point x="314" y="240" type="line" smooth="yes"/>
      <point x="314" y="165"/>
      <point x="309" y="124" name=".hr01"/>
      <point x="250" y="127" type="curve" smooth="yes"/>
      <point x="188" y="130"/>
      <point x="162" y="131"/>
      <point x="162" y="198" type="curve" smooth="yes"/>
      <point x="162" y="582" type="line" smooth="yes"/>
      <point x="162" y="650"/>
      <point x="184" y="653"/>
      <point x="239" y="653" type="curve" smooth="yes"/>
      <point x="276" y="653" type="line" smooth="yes"/>
      <point x="303" y="653"/>
      <point x="304" y="641"/>
      <point x="308" y="608" type="curve"/>
      <point x="311" y="576" type="line"/>
    </contour>
  </outline>
</glyph>
<glyph name="j" format="2">
  <advance width="322"/>
  <unicode hex="006A"/>
  <outline>
    <contour>
      <point x="20" y="0" type="line"/>
      <point x="198" y="0"/>
      <point x="277" y="34"/>
      <point x="277" y="206" type="curve" smooth="yes"/>
      <point x="277" y="778" type="line"/>
      <point x="143" y="778" type="line"/>
      <point x="143" y="217" type="line" smooth="yes"/>
      <point x="143" y="132"/>
      <point x="126" y="127"/>
      <point x="20" y="127" type="curve"/>
    </contour>
  </outline>
</glyph>
<glyph name="k" format="2">
  <advance width="484"/>
  <unicode hex="006B"/>
  <outline>
    <contour>
      <point x="325" y="779" type="line"/>
      <point x="306" y="672"/>
      <point x="267" y="544"/>
      <point x="172" y="478" type="curve"/>
      <point x="172" y="779" type="line"/>
      <point x="37" y="779" type="line"/>
      <point x="37" y="0" type="line"/>
      <point x="172" y="0" type="line"/>
      <point x="172" y="302" type="line"/>
      <point x="266" y="237"/>
      <point x="306" y="106"/>
      <point x="325" y="0" type="curve"/>
      <point x="458" y="0" type="line"/>
      <point x="437" y="144"/>
      <point x="389" y="293"/>
      <point x="271" y="390" type="curve"/>
      <point x="391" y="486"/>
      <point x="437" y="638"/>
      <point x="458" y="779" type="curve"/>
    </contour>
  </outline>
</glyph>
<glyph name="l" format="2">
  <advance width="380"/>
  <unicode hex="006C"/>
  <outline>
    <contour>
      <point x="368" y="127" type="line"/>
      <point x="174" y="127" type="line"/>
      <point x="174" y="779" type="line"/>
      <point x="38" y="779" type="line"/>
      <point x="38" y="0" type="line"/>
      <point x="368" y="0" type="line"/>
    </contour>
  </outline>
</glyph>
<glyph name="m" format="2">
  <advance width="659"/>
  <unicode hex="006D"/>
  <outline>
    <contour>
      <point x="623" y="784" type="line"/>
      <point x="490" y="784" type="line"/>
      <point x="329" y="408" type="line"/>
      <point x="170" y="784" type="line"/>
      <point x="37" y="784" type="line"/>
      <point x="37" y="0" type="line"/>
      <point x="172" y="0" type="line"/>
      <point x="172" y="436" type="line"/>
      <point x="282" y="176" type="line"/>
      <point x="377" y="176" type="line"/>
      <point x="488" y="436" type="line"/>
      <point x="488" y="0" type="line"/>
      <point x="623" y="0" type="line"/>
    </contour>
  </outline>
</glyph>
<glyph name="n" format="2">
  <advance width="446"/>
  <unicode hex="006E"/>
  <outline>
    <contour>
      <point x="413" y="0" type="line"/>
      <point x="301" y="0" type="line"/>
      <point x="140" y="368" type="line"/>
      <point x="140" y="0" type="line"/>
      <point x="29" y="0" type="line"/>
      <point x="29" y="649" type="line"/>
      <point x="139" y="649" type="line"/>
      <point x="300" y="281" type="line"/>
      <point x="300" y="649" type="line"/>
      <point x="413" y="649" type="line"/>
    </contour>
  </outline>
</glyph>
<glyph name="o" format="2">
  <advance width="482"/>
  <unicode hex="006F"/>
  <outline>
    <contour>
      <point x="449" y="581" type="line" smooth="yes"/>
      <point x="449" y="724"/>
      <point x="393" y="779"/>
      <point x="238" y="779" type="curve" smooth="yes"/>
      <point x="86" y="779"/>
      <point x="30" y="724"/>
      <point x="30" y="581" type="curve" smooth="yes"/>
      <point x="30" y="198" type="line" smooth="yes"/>
      <point x="30" y="54"/>
      <point x="85" y="0"/>
      <point x="239" y="0" type="curve" smooth="yes"/>
      <point x="430" y="0"/>
      <point x="449" y="80"/>
      <point x="449" y="236" type="curve" smooth="yes"/>
    </contour>
    <contour>
      <point x="162" y="581" type="line"/>
      <point x="162" y="638"/>
      <point x="165" y="652"/>
      <point x="239" y="652" type="curve" smooth="yes"/>
      <point x="310" y="652"/>
      <point x="314" y="649"/>
      <point x="314" y="581" type="curve" smooth="yes"/>
      <point x="314" y="236" type="line" smooth="yes"/>
      <point x="314" y="166"/>
      <point x="314" y="130"/>
      <point x="241" y="130" type="curve" smooth="yes"/>
      <point x="173" y="130"/>
      <point x="164" y="149"/>
      <point x="164" y="230" type="curve"/>
    </contour>
  </outline>
</glyph>
<glyph name="q" format="2">
  <advance width="492"/>
  <unicode hex="0071"/>
  <outline>
    <contour>
      <point x="454" y="581" type="line" smooth="yes"/>
      <point x="454" y="720"/>
      <point x="401" y="779"/>
      <point x="244" y="779" type="curve" smooth="yes"/>
      <point x="84" y="779"/>
      <point x="34" y="720"/>
      <point x="34" y="581" type="curve" smooth="yes"/>
      <point x="34" y="198" type="line" smooth="yes"/>
      <point x="34" y="123"/>
      <point x="50" y="72"/>
      <point x="83" y="43" type="curve" smooth="yes"/>
      <point x="116" y="14"/>
      <point x="167" y="0"/>
      <point x="234" y="0" type="curve" smooth="yes"/>
      <point x="250" y="0"/>
      <point x="271" y="1"/>
      <point x="288" y="2" type="curve"/>
      <point x="347" y="-78" type="line"/>
      <point x="382" y="-55"/>
      <point x="426" y="-28"/>
      <point x="458" y="-5" type="curve"/>
      <point x="440" y="20" type="line" smooth="yes"/>
      <point x="432" y="32"/>
      <point x="423" y="46"/>
      <point x="415" y="54" type="curve"/>
      <point x="455" y="101"/>
      <point x="454" y="161"/>
      <point x="454" y="217" type="curve" smooth="yes"/>
    </contour>
    <contour>
      <point x="256" y="128" type="curve"/>
      <point x="165" y="128"/>
      <point x="168" y="163"/>
      <point x="168" y="196" type="curve" smooth="yes"/>
      <point x="168" y="606" type="line" smooth="yes"/>
      <point x="168" y="639"/>
      <point x="203" y="655"/>
      <point x="240" y="655" type="curve" smooth="yes"/>
      <point x="279" y="655"/>
      <point x="319" y="638"/>
      <point x="319" y="606" type="curve" smooth="yes"/>
      <point x="319" y="226" type="line" smooth="yes"/>
      <point x="319" y="165"/>
      <point x="319" y="133"/>
    </contour>
  </outline>
</glyph>
<glyph name="t" format="2">
  <advance width="356"/>
  <unicode hex="0074"/>
  <outline>
    <contour>
      <point x="367" y="779" type="line"/>
      <point x="-16" y="779" type="line"/>
      <point x="-16" y="653" type="line"/>
      <point x="109" y="653" type="line"/>
      <point x="109" y="0" type="line"/>
      <point x="242" y="0" type="line"/>
      <point x="242" y="653" type="line"/>
      <point x="367" y="653" type="line"/>
    </contour>
  </outline>
</glyph>
<glyph name="u" format="2">
  <advance width="481"/>
  <unicode hex="0075"/>
  <outline>
    <contour>
      <point x="30" y="778" type="line"/>
      <point x="30" y="198" type="line" smooth="yes"/>
      <point x="30" y="57"/>
      <point x="82" y="0"/>
      <point x="240" y="0" type="curve" smooth="yes"/>
      <point x="436" y="0"/>
      <point x="450" y="85"/>
      <point x="450" y="236" type="curve" smooth="yes"/>
      <point x="450" y="778" type="line"/>
      <point x="317" y="778" type="line"/>
      <point x="317" y="759"/>
      <point x="316" y="552"/>
      <point x="314" y="157" type="curve"/>
      <point x="311" y="140"/>
      <point x="277" y="128"/>
      <point x="242" y="128" type="curve" smooth="yes"/>
      <point x="210" y="128"/>
      <point x="180" y="137"/>
      <point x="172" y="150" type="curve"/>
      <point x="173" y="150" type="line"/>
      <point x="168" y="161"/>
      <point x="168" y="179"/>
      <point x="168" y="192" type="curve" smooth="yes"/>
      <point x="168" y="198" type="line"/>
      <point x="164" y="778" type="line"/>
    </contour>
  </outline>
</glyph>
<glyph name="braceleft" format="2">
  <advance width="251"/>
  <unicode hex="007B"/>
  <outline>
    <contour>
      <point x="206" y="442" type="line"/>
      <point x="200" y="391"/>
      <point x="163" y="325"/>
      <point x="152" y="311" type="qcurve"/>
      <point x="158" y="303"/>
      <point x="175" y="278"/>
      <point x="192" y="242"/>
      <point x="204" y="196"/>
      <point x="206" y="168" type="qcurve"/>
      <point x="206" y="30" type="line" smooth="yes"/>
      <point x="206" y="3"/>
      <point x="213" y="-27"/>
      <point x="235" y="-42"/>
      <point x="275" y="-45"/>
      <point x="308" y="-45" type="qcurve"/>
      <point x="308" y="-151" type="line"/>
      <point x="252" y="-151"/>
      <point x="172" y="-138"/>
      <point x="119" y="-100"/>
      <point x="94" y="-33"/>
      <point x="94" y="21" type="qcurve" smooth="yes"/>
      <point x="94" y="148" type="line"/>
      <point x="92" y="176"/>
      <point x="84" y="201" type="qcurve"/>
      <point x="76" y="222"/>
      <point x="47" y="262"/>
      <point x="20" y="270" type="qcurve"/>
      <point x="20" y="301" type="line"/>
      <point x="20" y="319" type="line"/>
      <point x="20" y="352" type="line"/>
      <point x="47" y="360"/>
      <point x="76" y="401"/>
      <point x="84" y="422" type="qcurve"/>
      <point x="92" y="447"/>
      <point x="94" y="476" type="qcurve"/>
      <point x="94" y="621" type="line" smooth="yes"/>
      <point x="94" y="675"/>
      <point x="119" y="742"/>
      <point x="172" y="780"/>
      <point x="252" y="793"/>
      <point x="308" y="793" type="qcurve"/>
      <point x="308" y="687" type="line"/>
      <point x="275" y="687"/>
      <point x="235" y="684"/>
      <point x="213" y="669"/>
      <point x="206" y="639"/>
      <point x="206" y="612" type="qcurve" smooth="yes"/>
    </contour>
  </outline>
</glyph>
<glyph name="exclamdown" format="2">
  <advance width="200"/>
  <unicode hex="00A1"/>
  <outline>
    <contour>
      <point x="101" y="654" type="curve" smooth="yes"/>
      <point x="149" y="654"/>
      <point x="168" y="672"/>
      <point x="168" y="717" type="curve" smooth="yes"/>
      <point x="168" y="764"/>
      <point x="149" y="781"/>
      <point x="101" y="781" type="curve" smooth="yes"/>
      <point x="52" y="781"/>
      <point x="32" y="764"/>
      <point x="32" y="717" type="curve" smooth="yes"/>
      <point x="32" y="672"/>
      <point x="52" y="654"/>
    </contour>
    <contour>
      <point x="32" y="0" type="line"/>
      <point x="168" y="0" type="line"/>
      <point x="168" y="589" type="line"/>
      <point x="32" y="589" type="line"/>
    </contour>
  </outline>
</glyph>
<glyph name="sterling" format="2">
  <advance width="476"/>
  <unicode hex="00A3"/>
  <outline>
    <contour>
      <point x="220" y="128" type="line"/>
      <point x="233" y="142" type="line"/>
      <point x="249" y="158"/>
      <point x="278" y="197"/>
      <point x="284" y="250" type="curve"/>
      <point x="409" y="250" type="line"/>
      <point x="409" y="302" type="line"/>
      <point x="286" y="302" type="line"/>
      <point x="286" y="304" type="line"/>
      <point x="272" y="411"/>
      <point x="215" y="421"/>
      <point x="180" y="451" type="curve"/>
      <point x="157" y="468"/>
      <point x="160" y="498"/>
      <point x="161" y="526" type="curve"/>
      <point x="161" y="534"/>
      <point x="162" y="539"/>
      <point x="162" y="546" type="curve" smooth="yes"/>
      <point x="162" y="633"/>
      <point x="175" y="656"/>
      <point x="238" y="656" type="curve" smooth="yes"/>
      <point x="294" y="656"/>
      <point x="319" y="651"/>
      <point x="314" y="580" type="curve"/>
      <point x="450" y="580" type="line"/>
      <point x="450" y="723"/>
      <point x="397" y="784"/>
      <point x="238" y="784" type="curve" smooth="yes"/>
      <point x="77" y="784"/>
      <point x="28" y="724"/>
      <point x="28" y="586" type="curve" smooth="yes"/>
      <point x="28" y="558" type="line" smooth="yes"/>
      <point x="28" y="447"/>
      <point x="26" y="359"/>
      <point x="121" y="325" type="curve" smooth="yes"/>
      <point x="124" y="324"/>
      <point x="127" y="323"/>
      <point x="130" y="320" type="curve" smooth="yes"/>
      <point x="134" y="317"/>
      <point x="142" y="313"/>
      <point x="146" y="302" type="curve"/>
      <point x="74" y="302" type="line"/>
      <point x="74" y="250" type="line"/>
      <point x="150" y="250" type="line"/>
      <point x="149" y="245"/>
      <point x="149" y="241"/>
      <point x="146" y="236" type="curve"/>
      <point x="138" y="209"/>
      <point x="109" y="183"/>
      <point x="82" y="162" type="curve" smooth="yes"/>
      <point x="66" y="150"/>
      <point x="48" y="139"/>
      <point x="28" y="128" type="curve"/>
      <point x="28" y="0" type="line"/>
      <point x="450" y="0" type="line"/>
      <point x="449" y="25"/>
      <point x="448" y="55"/>
      <point x="448" y="80" type="curve" smooth="yes"/>
      <point x="448" y="99"/>
      <point x="449" y="111"/>
      <point x="449" y="127" type="curve"/>
    </contour>
  </outline>
</glyph>
<glyph name="yen" format="2">
  <advance width="388"/>
  <unicode hex="00A5"/>
  <outline>
    <contour>
      <point x="370" y="573" type="line" smooth="yes"/>
      <point x="370" y="528"/>
      <point x="363" y="448"/>
      <point x="339" y="374"/>
      <point x="291" y="304"/>
      <point x="250" y="268" type="qcurve"/>
      <point x="250" y="265" type="line"/>
      <point x="324" y="265" type="line"/>
      <point x="324" y="221" type="line"/>
      <point x="250" y="221" type="line"/>
      <point x="250" y="142" type="line"/>
      <point x="324" y="142" type="line"/>
      <point x="324" y="98" type="line"/>
      <point x="250" y="98" type="line"/>
      <point x="250" y="0" type="line"/>
      <point x="138" y="0" type="line"/>
      <point x="138" y="98" type="line"/>
      <point x="66" y="98" type="line"/>
      <point x="66" y="142" type="line"/>
      <point x="138" y="142" type="line"/>
      <point x="138" y="221" type="line"/>
      <point x="66" y="221" type="line"/>
      <point x="66" y="265" type="line"/>
      <point x="138" y="265" type="line"/>
      <point x="138" y="268" type="line"/>
      <point x="96" y="304"/>
      <point x="49" y="374"/>
      <point x="26" y="448"/>
      <point x="20" y="528"/>
      <point x="20" y="573" type="qcurve" smooth="yes"/>
      <point x="20" y="649" type="line"/>
      <point x="131" y="649" type="line"/>
      <point x="131" y="636"/>
      <point x="130" y="607"/>
      <point x="130" y="595" type="qcurve" smooth="yes"/>
      <point x="130" y="584"/>
      <point x="129" y="564"/>
      <point x="129" y="553" type="qcurve" smooth="yes"/>
      <point x="129" y="502"/>
      <point x="153" y="409"/>
      <point x="193" y="364" type="qcurve"/>
      <point x="236" y="409"/>
      <point x="260" y="506"/>
      <point x="260" y="560" type="qcurve" smooth="yes"/>
      <point x="260" y="570"/>
      <point x="259" y="589"/>
      <point x="259" y="600" type="qcurve" smooth="yes"/>
      <point x="259" y="611"/>
      <point x="258" y="638"/>
      <point x="258" y="649" type="qcurve"/>
      <point x="370" y="649" type="line"/>
    </contour>
  </outline>
</glyph>
<glyph name="section" format="2">
  <advance width="482"/>
  <unicode hex="00A7"/>
  <outline>
    <contour>
      <point x="442" y="372" type="line"/>
      <point x="442" y="394" type="line" smooth="yes"/>
      <point x="442" y="401"/>
      <point x="441" y="408"/>
      <point x="440" y="415" type="curve"/>
      <point x="442" y="415" type="line"/>
      <point x="442" y="432"/>
      <point x="440" y="447"/>
      <point x="439" y="462" type="curve" smooth="yes"/>
      <point x="431" y="557"/>
      <point x="395" y="619"/>
      <point x="232" y="619" type="curve" smooth="yes"/>
      <point x="219" y="619"/>
      <point x="164" y="622"/>
      <point x="161" y="631" type="curve" smooth="yes"/>
      <point x="153" y="654"/>
      <point x="154" y="678"/>
      <point x="154" y="721" type="curve"/>
      <point x="155" y="744"/>
      <point x="155" y="759"/>
      <point x="156" y="768" type="curve" smooth="yes"/>
      <point x="161" y="797"/>
      <point x="176" y="799"/>
      <point x="232" y="799" type="curve" smooth="yes"/>
      <point x="309" y="799"/>
      <point x="307" y="795"/>
      <point x="307" y="722" type="curve"/>
      <point x="442" y="722" type="line"/>
      <point x="442" y="866"/>
      <point x="388" y="925"/>
      <point x="232" y="925" type="curve" smooth="yes"/>
      <point x="72" y="925"/>
      <point x="22" y="870"/>
      <point x="22" y="728" type="curve" smooth="yes"/>
      <point x="22" y="652"/>
      <point x="24" y="594"/>
      <point x="52" y="554" type="curve"/>
      <point x="29" y="522"/>
      <point x="22" y="478"/>
      <point x="22" y="421" type="curve" smooth="yes"/>
      <point x="22" y="270"/>
      <point x="33" y="185"/>
      <point x="232" y="185" type="curve" smooth="yes"/>
      <point x="236" y="185" type="line" smooth="yes"/>
      <point x="260" y="185"/>
      <point x="296" y="182"/>
      <point x="304" y="168" type="curve"/>
      <point x="307" y="152"/>
      <point x="308" y="136"/>
      <point x="308" y="119" type="curve"/>
      <point x="311" y="102"/>
      <point x="308" y="72"/>
      <point x="307" y="25" type="curve"/>
      <point x="307" y="-25"/>
      <point x="307" y="-29"/>
      <point x="242" y="-32" type="curve" smooth="yes"/>
      <point x="155" y="-37"/>
      <point x="149" y="-19"/>
      <point x="154" y="38" type="curve"/>
      <point x="154" y="51"/>
      <point x="155" y="68"/>
      <point x="155" y="83" type="curve"/>
      <point x="22" y="83" type="line"/>
      <point x="22" y="-72"/>
      <point x="33" y="-160"/>
      <point x="232" y="-160" type="curve" smooth="yes"/>
      <point x="389" y="-160"/>
      <point x="442" y="-103"/>
      <point x="442" y="38" type="curve" smooth="yes"/>
      <point x="442" y="65" type="line" smooth="yes"/>
      <point x="442" y="132"/>
      <point x="442" y="187"/>
      <point x="421" y="230" type="curve"/>
      <point x="435" y="258"/>
      <point x="442" y="297"/>
      <point x="442" y="346" type="curve" smooth="yes"/>
    </contour>
    <contour>
      <point x="232" y="312" type="curve" smooth="yes"/>
      <point x="220" y="312"/>
      <point x="158" y="314"/>
      <point x="156" y="324" type="curve"/>
      <point x="148" y="411"/>
      <point x="155" y="448"/>
      <point x="156" y="461" type="curve"/>
      <point x="161" y="489"/>
      <point x="176" y="492"/>
      <point x="232" y="492" type="curve" smooth="yes"/>
      <point x="240" y="492" type="line" smooth="yes"/>
      <point x="257" y="492"/>
      <point x="281" y="490"/>
      <point x="294" y="482" type="curve"/>
      <point x="308" y="437"/>
      <point x="306" y="348"/>
      <point x="298" y="306" type="curve"/>
      <point x="275" y="309"/>
      <point x="260" y="312"/>
    </contour>
  </outline>
</glyph>
<glyph name="dieresis" format="2">
  <advance width="425"/>
  <unicode hex="00A8"/>
  <outline>
    <contour>
      <point x="62" y="820" type="line"/>
      <point x="62" y="819"/>
      <point x="68" y="818"/>
      <point x="79" y="818" type="curve" smooth="yes"/>
      <point x="119" y="818" type="line" smooth="yes"/>
      <point x="136" y="818"/>
      <point x="155" y="819"/>
      <point x="176" y="820" type="curve"/>
      <point x="175" y="918" type="line"/>
      <point x="62" y="917" type="line"/>
    </contour>
    <contour>
      <point x="246" y="822" type="line"/>
      <point x="246" y="821" name=".hr01"/>
      <point x="252" y="821"/>
      <point x="264" y="821" type="curve" smooth="yes"/>
      <point x="304" y="821" type="line" smooth="yes"/>
      <point x="321" y="821"/>
      <point x="340" y="821"/>
      <point x="361" y="822" type="curve"/>
      <point x="361" y="919" type="line"/>
      <point x="246" y="919" type="line"/>
    </contour>
  </outline>
</glyph>
<glyph name="guillemotleft" format="2">
  <advance width="414"/>
  <unicode hex="00AB"/>
  <outline>
    <contour>
      <point x="288" y="572" type="line"/>
      <point x="196" y="418" type="line"/>
      <point x="288" y="265" type="line"/>
      <point x="384" y="265" type="line"/>
      <point x="306" y="418" type="line"/>
      <point x="384" y="572" type="line"/>
    </contour>
    <contour>
      <point x="120" y="572" type="line"/>
      <point x="28" y="418" type="line"/>
      <point x="120" y="265" type="line"/>
      <point x="216" y="265" type="line"/>
      <point x="138" y="418" type="line"/>
      <point x="216" y="572" type="line"/>
    </contour>
  </outline>
</glyph>
<glyph name="uni00AD" format="2">
  <advance width="343"/>
  <unicode hex="00AD"/>
  <outline>
    <contour>
      <point x="29" y="430" type="line"/>
      <point x="29" y="332" type="line"/>
      <point x="314" y="332" type="line"/>
      <point x="314" y="430" type="line"/>
    </contour>
  </outline>
</glyph>
<glyph name="registered" format="2">
  <advance width="475"/>
  <unicode hex="00AE"/>
  <outline>
    <contour>
      <point x="19" y="535" type="curve" smooth="yes"/>
      <point x="19" y="413"/>
      <point x="118" y="317"/>
      <point x="237" y="317" type="curve" smooth="yes"/>
      <point x="359" y="317"/>
      <point x="456" y="413"/>
      <point x="456" y="535" type="curve" smooth="yes"/>
      <point x="456" y="654"/>
      <point x="359" y="754"/>
      <point x="237" y="754" type="curve" smooth="yes"/>
      <point x="118" y="754"/>
      <point x="19" y="654"/>
    </contour>
    <contour>
      <point x="62" y="535" type="curve" smooth="yes"/>
      <point x="62" y="632"/>
      <point x="142" y="710"/>
      <point x="238" y="710" type="curve" smooth="yes"/>
      <point x="333" y="710"/>
      <point x="413" y="632"/>
      <point x="413" y="535" type="curve" smooth="yes"/>
      <point x="413" y="436"/>
      <point x="333" y="359"/>
      <point x="238" y="359" type="curve" smooth="yes"/>
      <point x="142" y="359"/>
      <point x="62" y="436"/>
    </contour>
    <contour>
      <point x="314" y="403" type="line"/>
      <point x="276" y="499" type="line"/>
      <point x="292" y="504"/>
      <point x="304" y="514"/>
      <point x="308" y="526" type="curve" smooth="yes"/>
      <point x="313" y="538"/>
      <point x="314" y="548"/>
      <point x="313" y="588" type="curve"/>
      <point x="313" y="628"/>
      <point x="309" y="640"/>
      <point x="297" y="651" type="curve" smooth="yes"/>
      <point x="285" y="662"/>
      <point x="266" y="667"/>
      <point x="241" y="667" type="curve" smooth="yes"/>
      <point x="168" y="667" type="line"/>
      <point x="168" y="403" type="line"/>
      <point x="215" y="403" type="line"/>
      <point x="215" y="494" type="line"/>
      <point x="228" y="494" type="line"/>
      <point x="264" y="403" type="line"/>
    </contour>
    <contour>
      <point x="215" y="625" type="line"/>
      <point x="241" y="625" type="line" smooth="yes"/>
      <point x="258" y="625"/>
      <point x="268" y="620"/>
      <point x="268" y="585" type="curve" smooth="yes"/>
      <point x="268" y="568"/>
      <point x="268" y="558"/>
      <point x="267" y="553" type="curve" smooth="yes"/>
      <point x="265" y="540"/>
      <point x="253" y="536"/>
      <point x="215" y="536" type="curve"/>
    </contour>
  </outline>
</glyph>
<glyph name="degree" format="2">
  <advance width="234"/>
  <unicode hex="00B0"/>
  <outline>
    <contour>
      <point x="29" y="714" type="curve" smooth="yes"/>
      <point x="29" y="667"/>
      <point x="67" y="626"/>
      <point x="118" y="626" type="curve" smooth="yes"/>
      <point x="170" y="626"/>
      <point x="208" y="667"/>
      <point x="208" y="714" type="curve" smooth="yes"/>
      <point x="208" y="765"/>
      <point x="170" y="805"/>
      <point x="118" y="805" type="curve" smooth="yes"/>
      <point x="67" y="805"/>
      <point x="29" y="765"/>
    </contour>
    <contour>
      <point x="119" y="739" type="curve" smooth="yes"/>
      <point x="131" y="739"/>
      <point x="146" y="728"/>
      <point x="146" y="713" type="curve" smooth="yes"/>
      <point x="146" y="698"/>
      <point x="131" y="688"/>
      <point x="119" y="688" type="curve" smooth="yes"/>
      <point x="81" y="688"/>
      <point x="81" y="739"/>
    </contour>
  </outline>
</glyph>
<glyph name="plusminus" format="2">
  <advance width="367"/>
  <unicode hex="00B1"/>
  <outline>
    <contour>
      <point x="235" y="520" type="line"/>
      <point x="235" y="629" type="line"/>
      <point x="138" y="629" type="line"/>
      <point x="138" y="520" type="line"/>
      <point x="29" y="520" type="line"/>
      <point x="29" y="422" type="line"/>
      <point x="138" y="422" type="line"/>
      <point x="138" y="313" type="line"/>
      <point x="235" y="313" type="line"/>
      <point x="235" y="422" type="line"/>
      <point x="344" y="422" type="line"/>
      <point x="344" y="520" type="line"/>
    </contour>
    <contour>
      <point x="346" y="253" type="line"/>
      <point x="34" y="253" type="line"/>
      <point x="34" y="156" type="line"/>
      <point x="346" y="156" type="line"/>
    </contour>
  </outline>
</glyph>
<glyph name="middot" format="2">
  <advance width="194"/>
  <unicode hex="00B7"/>
  <outline>
    <contour>
      <point x="97" y="505" type="curve" smooth="yes"/>
      <point x="48" y="505"/>
      <point x="30" y="485"/>
      <point x="30" y="440" type="curve" smooth="yes"/>
      <point x="30" y="397"/>
      <point x="49" y="377"/>
      <point x="97" y="377" type="curve" smooth="yes"/>
      <point x="142" y="377"/>
      <point x="164" y="398"/>
      <point x="164" y="440" type="curve" smooth="yes"/>
      <point x="164" y="487"/>
      <point x="145" y="505"/>
    </contour>
  </outline>
</glyph>
<glyph name="guillemotright" format="2">
  <advance width="414"/>
  <unicode hex="00BB"/>
  <outline>
    <contour>
      <point x="128" y="260" type="line"/>
      <point x="221" y="415" type="line"/>
      <point x="128" y="568" type="line"/>
      <point x="32" y="568" type="line"/>
      <point x="110" y="415" type="line"/>
      <point x="32" y="260" type="line"/>
    </contour>
    <contour>
      <point x="296" y="260" type="line"/>
      <point x="389" y="415" type="line"/>
      <point x="296" y="568" type="line"/>
      <point x="200" y="568" type="line"/>
      <point x="278" y="415" type="line"/>
      <point x="200" y="260" type="line"/>
    </contour>
  </outline>
</glyph>
<glyph name="questiondown" format="2">
  <advance width="456"/>
  <unicode hex="00BF"/>
  <outline>
    <contour>
      <point x="192" y="718" type="curve" smooth="yes"/>
      <point x="192" y="675"/>
      <point x="214" y="654"/>
      <point x="259" y="654" type="curve" smooth="yes"/>
      <point x="304" y="654" name=".hr01"/>
      <point x="326" y="675" name=".hr02"/>
      <point x="326" y="718" type="curve" smooth="yes"/>
      <point x="326" y="763"/>
      <point x="307" y="781"/>
      <point x="259" y="781" type="curve" smooth="yes"/>
      <point x="211" y="781"/>
      <point x="192" y="763"/>
    </contour>
    <contour>
      <point x="192" y="589" type="line"/>
      <point x="192" y="476"/>
      <point x="158" y="469"/>
      <point x="125" y="458" type="curve"/>
      <point x="73" y="447"/>
      <point x="17" y="422"/>
      <point x="17" y="198" type="curve" smooth="yes"/>
      <point x="17" y="59"/>
      <point x="66" y="0"/>
      <point x="227" y="0" type="curve" smooth="yes"/>
      <point x="387" y="0"/>
      <point x="439" y="60"/>
      <point x="439" y="204" type="curve" name=".hr03"/>
      <point x="304" y="204" type="line"/>
      <point x="304" y="190" type="line" smooth="yes"/>
      <point x="304" y="172"/>
      <point x="301" y="141"/>
      <point x="298" y="138" type="curve"/>
      <point x="294" y="131"/>
      <point x="256" y="128"/>
      <point x="220" y="128" type="curve" smooth="yes"/>
      <point x="189" y="128"/>
      <point x="162" y="130"/>
      <point x="157" y="137" type="curve"/>
      <point x="153" y="148"/>
      <point x="150" y="188"/>
      <point x="150" y="228" type="curve" smooth="yes"/>
      <point x="150" y="257"/>
      <point x="151" y="291"/>
      <point x="152" y="304" type="curve"/>
      <point x="156" y="331"/>
      <point x="177" y="340"/>
      <point x="204" y="353" type="curve" smooth="yes"/>
      <point x="255" y="377"/>
      <point x="326" y="410"/>
      <point x="326" y="589" type="curve" name=".hr04"/>
    </contour>
  </outline>
</glyph>
<glyph name="AE" format="2">
  <advance width="597"/>
  <unicode hex="00C6"/>
  <outline>
    <contour>
      <point x="369" y="544" type="line"/>
      <point x="369" y="393" type="line"/>
      <point x="513" y="393" type="line"/>
      <point x="513" y="287" type="line"/>
      <point x="369" y="287" type="line"/>
      <point x="369" y="106" type="line"/>
      <point x="573" y="106" type="line"/>
      <point x="573" y="0" type="line"/>
      <point x="257" y="0" type="line"/>
      <point x="257" y="128" type="line"/>
      <point x="137" y="128" type="line"/>
      <point x="137" y="0" type="line"/>
      <point x="26" y="0" type="line"/>
      <point x="26" y="139" type="line" smooth="yes"/>
      <point x="26" y="207"/>
      <point x="40" y="340"/>
      <point x="77" y="468"/>
      <point x="139" y="590"/>
      <point x="187" y="649" type="qcurve"/>
      <point x="261" y="649" type="line"/>
      <point x="573" y="649" type="line"/>
      <point x="573" y="544" type="line"/>
    </contour>
    <contour>
      <point x="257" y="233" type="line"/>
      <point x="257" y="557" type="line"/>
      <point x="237" y="529"/>
      <point x="196" y="474"/>
      <point x="162" y="402"/>
      <point x="139" y="304"/>
      <point x="137" y="233" type="qcurve"/>
    </contour>
  </outline>
</glyph>
<glyph name="Eacute" format="2">
  <advance width="449"/>
  <unicode hex="00C9"/>
  <outline>
    <contour>
      <point x="414" y="127" type="line"/>
      <point x="169" y="127" type="line"/>
      <point x="169" y="344" type="line"/>
      <point x="342" y="344" type="line"/>
      <point x="342" y="472" type="line"/>
      <point x="169" y="472" type="line"/>
      <point x="169" y="653" type="line"/>
      <point x="414" y="653" type="line"/>
      <point x="414" y="779" type="line"/>
      <point x="35" y="779" type="line"/>
      <point x="35" y="0" type="line"/>
      <point x="414" y="0" type="line"/>
    </contour>
    <contour>
      <point x="188" y="869" type="line" smooth="yes"/>
      <point x="172" y="845"/>
      <point x="157" y="821"/>
      <point x="157" y="818" type="curve"/>
      <point x="157" y="817"/>
      <point x="185" y="817"/>
      <point x="214" y="818" type="curve"/>
      <point x="231" y="818"/>
      <point x="250" y="819"/>
      <point x="271" y="820" type="curve"/>
      <point x="336" y="917" type="line"/>
      <point x="220" y="917" type="line"/>
    </contour>
  </outline>
</glyph>
<glyph name="Ecircumflex" format="2">
  <advance width="449"/>
  <unicode hex="00CA"/>
  <outline>
    <contour>
      <point x="414" y="127" type="line"/>
      <point x="169" y="127" type="line"/>
      <point x="169" y="344" type="line"/>
      <point x="342" y="344" type="line"/>
      <point x="342" y="472" type="line"/>
      <point x="169" y="472" type="line"/>
      <point x="169" y="653" type="line"/>
      <point x="414" y="653" type="line"/>
      <point x="414" y="779" type="line"/>
      <point x="35" y="779" type="line"/>
      <point x="35" y="0" type="line"/>
      <point x="414" y="0" type="line"/>
    </contour>
    <contour>
      <point x="49" y="821" type="line"/>
      <point x="174" y="821" type="line"/>
      <point x="221" y="886" type="line"/>
      <point x="271" y="821" type="line"/>
      <point x="396" y="821" type="line"/>
      <point x="324" y="931" type="line"/>
      <point x="119" y="930" type="line"/>
    </contour>
  </outline>
</glyph>
<glyph name="Edieresis" format="2">
  <advance width="449"/>
  <unicode hex="00CB"/>
  <outline>
    <contour>
      <point x="414" y="127" type="line"/>
      <point x="169" y="127" type="line"/>
      <point x="169" y="344" type="line"/>
      <point x="342" y="344" type="line"/>
      <point x="342" y="472" type="line"/>
      <point x="169" y="472" type="line"/>
      <point x="169" y="653" type="line"/>
      <point x="414" y="653" type="line"/>
      <point x="414" y="779" type="line"/>
      <point x="35" y="779" type="line"/>
      <point x="35" y="0" type="line"/>
      <point x="414" y="0" type="line"/>
    </contour>
    <contour>
      <point x="71" y="818" type="line" name=".hr01"/>
      <point x="71" y="817"/>
      <point x="99" y="817"/>
      <point x="127" y="818" type="curve"/>
      <point x="144" y="818"/>
      <point x="163" y="819"/>
      <point x="185" y="820" type="curve"/>
      <point x="186" y="917" type="line"/>
      <point x="71" y="917" type="line"/>
    </contour>
    <contour>
      <point x="258" y="822" type="line"/>
      <point x="258" y="821" name=".hr02"/>
      <point x="264" y="821"/>
      <point x="276" y="821" type="curve" smooth="yes"/>
      <point x="314" y="821" type="line" smooth="yes"/>
      <point x="331" y="821"/>
      <point x="351" y="821"/>
      <point x="372" y="822" type="curve"/>
      <point x="373" y="919" type="line"/>
      <point x="258" y="919" type="line"/>
    </contour>
  </outline>
</glyph>
<glyph name="Ntilde" format="2">
  <advance width="535"/>
  <unicode hex="00D1"/>
  <outline>
    <contour>
      <point x="496" y="779" type="line"/>
      <point x="360" y="779" type="line"/>
      <point x="360" y="337" type="line"/>
      <point x="167" y="779" type="line"/>
      <point x="35" y="779" type="line"/>
      <point x="35" y="0" type="line"/>
      <point x="168" y="0" type="line"/>
      <point x="168" y="442" type="line"/>
      <point x="361" y="0" type="line"/>
      <point x="496" y="0" type="line"/>
    </contour>
    <contour>
      <point x="395" y="923" type="line"/>
      <point x="391" y="917" type="line"/>
      <point x="379" y="901"/>
      <point x="366" y="891"/>
      <point x="352" y="887" type="curve" smooth="yes"/>
      <point x="334" y="883"/>
      <point x="311" y="890"/>
      <point x="284" y="908" type="curve" smooth="yes"/>
      <point x="263" y="923"/>
      <point x="241" y="930" name=".hr01"/>
      <point x="218" y="930" type="curve" smooth="yes"/>
      <point x="194" y="930"/>
      <point x="171" y="923"/>
      <point x="150" y="908" type="curve"/>
      <point x="118" y="891"/>
      <point x="99" y="864"/>
      <point x="96" y="860" type="curve"/>
      <point x="92" y="853" type="line"/>
      <point x="142" y="809" type="line"/>
      <point x="146" y="805" type="line"/>
      <point x="151" y="811" type="line"/>
      <point x="161" y="821" type="line"/>
      <point x="170" y="832" type="line"/>
      <point x="185" y="842" type="line"/>
      <point x="194" y="847"/>
      <point x="206" y="852"/>
      <point x="218" y="852" type="curve" smooth="yes"/>
      <point x="229" y="852"/>
      <point x="237" y="847"/>
      <point x="246" y="842" type="curve"/>
      <point x="281" y="819"/>
      <point x="313" y="808" name=".hr02"/>
      <point x="342" y="808" type="curve" smooth="yes"/>
      <point x="353" y="808" type="line" smooth="yes"/>
      <point x="357" y="808"/>
      <point x="361" y="808"/>
      <point x="365" y="809" type="curve" smooth="yes"/>
      <point x="394" y="816"/>
      <point x="420" y="835"/>
      <point x="445" y="864" type="curve" smooth="yes"/>
      <point x="450" y="870" type="line"/>
    </contour>
  </outline>
</glyph>
<glyph name="Ograve" format="2">
  <advance width="482"/>
  <unicode hex="00D2"/>
  <outline>
    <contour>
      <point x="449" y="581" type="line" smooth="yes"/>
      <point x="449" y="724"/>
      <point x="393" y="779"/>
      <point x="238" y="779" type="curve" smooth="yes"/>
      <point x="86" y="779"/>
      <point x="30" y="724"/>
      <point x="30" y="581" type="curve" smooth="yes"/>
      <point x="30" y="198" type="line" smooth="yes"/>
      <point x="30" y="54"/>
      <point x="85" y="0"/>
      <point x="239" y="0" type="curve" smooth="yes"/>
      <point x="430" y="0"/>
      <point x="449" y="80"/>
      <point x="449" y="236" type="curve" smooth="yes"/>
    </contour>
    <contour>
      <point x="162" y="581" type="line"/>
      <point x="162" y="638"/>
      <point x="165" y="652"/>
      <point x="239" y="652" type="curve" smooth="yes"/>
      <point x="310" y="652"/>
      <point x="314" y="649"/>
      <point x="314" y="581" type="curve" smooth="yes"/>
      <point x="314" y="236" type="line" smooth="yes"/>
      <point x="314" y="166"/>
      <point x="314" y="130"/>
      <point x="241" y="130" type="curve" smooth="yes"/>
      <point x="173" y="130"/>
      <point x="164" y="149"/>
      <point x="164" y="230" type="curve"/>
    </contour>
    <contour>
      <point x="161" y="866" type="line"/>
      <point x="178" y="842"/>
      <point x="198" y="817"/>
      <point x="198" y="816" type="curve"/>
      <point x="198" y="815"/>
      <point x="226" y="815"/>
      <point x="254" y="816" type="curve"/>
      <point x="271" y="816"/>
      <point x="291" y="816"/>
      <point x="312" y="817" type="curve"/>
      <point x="240" y="914" type="line"/>
      <point x="124" y="914" type="line"/>
    </contour>
  </outline>
</glyph>
<glyph name="Otilde" format="2">
  <advance width="482"/>
  <unicode hex="00D5"/>
  <outline>
    <contour>
      <point x="449" y="581" type="line" smooth="yes"/>
      <point x="449" y="724"/>
      <point x="393" y="779"/>
      <point x="238" y="779" type="curve" smooth="yes"/>
      <point x="86" y="779"/>
      <point x="30" y="724"/>
      <point x="30" y="581" type="curve" smooth="yes"/>
      <point x="30" y="198" type="line" smooth="yes"/>
      <point x="30" y="54"/>
      <point x="85" y="0"/>
      <point x="239" y="0" type="curve" smooth="yes"/>
      <point x="430" y="0"/>
      <point x="449" y="80"/>
      <point x="449" y="236" type="curve" smooth="yes"/>
    </contour>
    <contour>
      <point x="162" y="581" type="line"/>
      <point x="162" y="638"/>
      <point x="165" y="652"/>
      <point x="239" y="652" type="curve" smooth="yes"/>
      <point x="310" y="652"/>
      <point x="314" y="649"/>
      <point x="314" y="581" type="curve" smooth="yes"/>
      <point x="314" y="236" type="line" smooth="yes"/>
      <point x="314" y="166"/>
      <point x="314" y="130"/>
      <point x="241" y="130" type="curve" smooth="yes"/>
      <point x="173" y="130"/>
      <point x="164" y="149"/>
      <point x="164" y="230" type="curve"/>
    </contour>
    <contour>
      <point x="365" y="920" type="line"/>
      <point x="361" y="914" type="line"/>
      <point x="349" y="898"/>
      <point x="336" y="888"/>
      <point x="322" y="884" type="curve" smooth="yes"/>
      <point x="304" y="880"/>
      <point x="281" y="887"/>
      <point x="254" y="906" type="curve" smooth="yes"/>
      <point x="233" y="921"/>
      <point x="211" y="928" name=".hr01"/>
      <point x="188" y="928" type="curve" smooth="yes"/>
      <point x="164" y="928"/>
      <point x="141" y="921"/>
      <point x="120" y="906" type="curve"/>
      <point x="88" y="889"/>
      <point x="69" y="861"/>
      <point x="66" y="858" type="curve"/>
      <point x="62" y="851" type="line"/>
      <point x="112" y="806" type="line"/>
      <point x="116" y="803" type="line"/>
      <point x="121" y="809" type="line"/>
      <point x="131" y="818" type="line"/>
      <point x="142" y="828" type="line"/>
      <point x="145" y="832"/>
      <point x="149" y="836"/>
      <point x="155" y="840" type="curve" smooth="yes"/>
      <point x="164" y="845"/>
      <point x="176" y="850"/>
      <point x="188" y="850" type="curve" smooth="yes"/>
      <point x="199" y="850"/>
      <point x="207" y="845"/>
      <point x="216" y="840" type="curve"/>
      <point x="251" y="817"/>
      <point x="283" y="805" name=".hr02"/>
      <point x="312" y="805" type="curve" smooth="yes"/>
      <point x="324" y="805" type="line" smooth="yes"/>
      <point x="327" y="805"/>
      <point x="331" y="805"/>
      <point x="335" y="806" type="curve" smooth="yes"/>
      <point x="364" y="813"/>
      <point x="390" y="832"/>
      <point x="415" y="862" type="curve" smooth="yes"/>
      <point x="420" y="868" type="line"/>
    </contour>
  </outline>
</glyph>
<glyph name="Odieresis" format="2">
  <advance width="482"/>
  <unicode hex="00D6"/>
  <outline>
    <contour>
      <point x="449" y="581" type="line" smooth="yes"/>
      <point x="449" y="724"/>
      <point x="393" y="779"/>
      <point x="238" y="779" type="curve" smooth="yes"/>
      <point x="86" y="779"/>
      <point x="30" y="724"/>
      <point x="30" y="581" type="curve" smooth="yes"/>
      <point x="30" y="198" type="line" smooth="yes"/>
      <point x="30" y="54"/>
      <point x="85" y="0"/>
      <point x="239" y="0" type="curve" smooth="yes"/>
      <point x="430" y="0"/>
      <point x="449" y="80"/>
      <point x="449" y="236" type="curve" smooth="yes"/>
    </contour>
    <contour>
      <point x="162" y="581" type="line"/>
      <point x="162" y="638"/>
      <point x="165" y="652"/>
      <point x="239" y="652" type="curve" smooth="yes"/>
      <point x="310" y="652"/>
      <point x="314" y="649"/>
      <point x="314" y="581" type="curve" smooth="yes"/>
      <point x="314" y="236" type="line" smooth="yes"/>
      <point x="314" y="166"/>
      <point x="314" y="130"/>
      <point x="241" y="130" type="curve" smooth="yes"/>
      <point x="173" y="130"/>
      <point x="164" y="149"/>
      <point x="164" y="230" type="curve"/>
    </contour>
    <contour>
      <point x="94" y="818" type="line" name=".hr01"/>
      <point x="94" y="817"/>
      <point x="121" y="817"/>
      <point x="150" y="818" type="curve"/>
      <point x="167" y="818"/>
      <point x="186" y="819"/>
      <point x="208" y="820" type="curve"/>
      <point x="209" y="917" type="line"/>
      <point x="94" y="917" type="line"/>
    </contour>
    <contour>
      <point x="281" y="822" type="line"/>
      <point x="281" y="821" name=".hr02"/>
      <point x="287" y="821"/>
      <point x="299" y="821" type="curve" smooth="yes"/>
      <point x="337" y="821" type="line" smooth="yes"/>
      <point x="354" y="821"/>
      <point x="373" y="821"/>
      <point x="395" y="822" type="curve"/>
      <point x="396" y="919" type="line"/>
      <point x="281" y="919" type="line"/>
    </contour>
  </outline>
</glyph>
<glyph name="multiply" format="2">
  <advance width="486"/>
  <unicode hex="00D7"/>
  <outline>
    <contour>
      <point x="383" y="637" type="line"/>
      <point x="244" y="498" type="line"/>
      <point x="104" y="637" type="line"/>
      <point x="36" y="568" type="line"/>
      <point x="175" y="428" type="line"/>
      <point x="36" y="289" type="line"/>
      <point x="104" y="221" type="line"/>
      <point x="244" y="360" type="line"/>
      <point x="383" y="221" type="line"/>
      <point x="452" y="289" type="line"/>
      <point x="313" y="428" type="line"/>
      <point x="452" y="568" type="line"/>
    </contour>
  </outline>
</glyph>
<glyph name="Oslash" format="2">
  <advance width="482"/>
  <unicode hex="00D8"/>
  <outline>
    <contour>
      <point x="437" y="782" type="line"/>
      <point x="370" y="810" type="line"/>
      <point x="352" y="766" type="line"/>
      <point x="323" y="775"/>
      <point x="287" y="779"/>
      <point x="242" y="779" type="curve" smooth="yes"/>
      <point x="89" y="779"/>
      <point x="34" y="724"/>
      <point x="34" y="581" type="curve" smooth="yes"/>
      <point x="34" y="198" type="line" smooth="yes"/>
      <point x="34" y="137"/>
      <point x="45" y="92"/>
      <point x="67" y="61" type="curve"/>
      <point x="43" y="0" type="line"/>
      <point x="110" y="-28" type="line"/>
      <point x="128" y="17" type="line"/>
      <point x="159" y="6"/>
      <point x="197" y="0"/>
      <point x="242" y="0" type="curve" smooth="yes"/>
      <point x="433" y="0"/>
      <point x="452" y="80"/>
      <point x="452" y="236" type="curve" smooth="yes"/>
      <point x="452" y="581" type="line" smooth="yes"/>
      <point x="452" y="648"/>
      <point x="441" y="694"/>
      <point x="414" y="726" type="curve"/>
    </contour>
    <contour>
      <point x="166" y="581" type="line"/>
      <point x="166" y="638"/>
      <point x="169" y="652"/>
      <point x="242" y="652" type="curve" smooth="yes"/>
      <point x="274" y="652"/>
      <point x="292" y="651"/>
      <point x="304" y="646" type="curve"/>
      <point x="168" y="311" type="line"/>
    </contour>
    <contour>
      <point x="245" y="130" type="curve" smooth="yes"/>
      <point x="212" y="130"/>
      <point x="191" y="136"/>
      <point x="181" y="149" type="curve"/>
      <point x="318" y="488" type="line"/>
      <point x="318" y="236" type="line" smooth="yes"/>
      <point x="318" y="166"/>
      <point x="316" y="130"/>
    </contour>
  </outline>
</glyph>
<glyph name="Ugrave" format="2">
  <advance width="401"/>
  <unicode hex="00D9"/>
  <outline>
    <contour>
      <point x="137" y="648" type="line"/>
      <point x="140" y="165" type="line"/>
      <point x="140" y="160" type="line" smooth="yes"/>
      <point x="140" y="152"/>
      <point x="141" y="132"/>
      <point x="144" y="125" type="qcurve"/>
      <point x="143" y="125" type="line"/>
      <point x="148" y="117"/>
      <point x="182" y="107"/>
      <point x="202" y="107" type="qcurve" smooth="yes"/>
      <point x="223" y="107"/>
      <point x="260" y="120"/>
      <point x="262" y="131" type="qcurve"/>
      <point x="263" y="154"/>
      <point x="264" y="625"/>
      <point x="264" y="648" type="qcurve"/>
      <point x="375" y="648" type="line"/>
      <point x="375" y="197" type="line" smooth="yes"/>
      <point x="375" y="150"/>
      <point x="366" y="76"/>
      <point x="332" y="26"/>
      <point x="261" y="0"/>
      <point x="200" y="0" type="qcurve" smooth="yes"/>
      <point x="150" y="0"/>
      <point x="83" y="18"/>
      <point x="43" y="58"/>
      <point x="25" y="121"/>
      <point x="25" y="165" type="qcurve" smooth="yes"/>
      <point x="25" y="648" type="line"/>
    </contour>
    <contour>
      <point x="174" y="681" type="qcurve"/>
      <point x="174" y="682"/>
      <point x="154" y="708"/>
      <point x="143" y="723" type="qcurve" smooth="yes"/>
      <point x="129" y="741"/>
      <point x="112" y="763" type="qcurve"/>
      <point x="209" y="763" type="line"/>
      <point x="269" y="682" type="line"/>
      <point x="242" y="681"/>
      <point x="221" y="681" type="qcurve"/>
      <point x="203" y="680"/>
      <point x="174" y="680"/>
    </contour>
  </outline>
</glyph>
<glyph name="Uacute" format="2">
  <advance width="481"/>
  <unicode hex="00DA"/>
  <outline>
    <contour>
      <point x="30" y="778" type="line"/>
      <point x="30" y="198" type="line" smooth="yes"/>
      <point x="30" y="57"/>
      <point x="82" y="0"/>
      <point x="240" y="0" type="curve" smooth="yes"/>
      <point x="436" y="0"/>
      <point x="450" y="85"/>
      <point x="450" y="236" type="curve" smooth="yes"/>
      <point x="450" y="778" type="line"/>
      <point x="317" y="778" type="line"/>
      <point x="317" y="759"/>
      <point x="317" y="656"/>
      <point x="316" y="467" type="curve"/>
      <point x="316" y="279"/>
      <point x="315" y="176"/>
      <point x="314" y="157" type="curve"/>
      <point x="311" y="140"/>
      <point x="277" y="128"/>
      <point x="242" y="128" type="curve" smooth="yes"/>
      <point x="210" y="128"/>
      <point x="180" y="137"/>
      <point x="172" y="150" type="curve"/>
      <point x="173" y="150" type="line"/>
      <point x="168" y="161"/>
      <point x="168" y="179"/>
      <point x="168" y="192" type="curve" smooth="yes"/>
      <point x="168" y="198" type="line"/>
      <point x="164" y="778" type="line"/>
    </contour>
    <contour>
      <point x="199" y="869" type="line" smooth="yes"/>
      <point x="183" y="845"/>
      <point x="168" y="821"/>
      <point x="168" y="818" type="curve"/>
      <point x="168" y="817"/>
      <point x="196" y="817"/>
      <point x="224" y="818" type="curve"/>
      <point x="241" y="818"/>
      <point x="261" y="819"/>
      <point x="282" y="820" type="curve"/>
      <point x="347" y="917" type="line"/>
      <point x="230" y="917" type="line"/>
    </contour>
  </outline>
</glyph>
<glyph name="Ucircumflex" format="2">
  <advance width="481"/>
  <unicode hex="00DB"/>
  <outline>
    <contour>
      <point x="30" y="778" type="line"/>
      <point x="30" y="198" type="line" smooth="yes"/>
      <point x="30" y="57"/>
      <point x="82" y="0"/>
      <point x="240" y="0" type="curve" smooth="yes"/>
      <point x="436" y="0"/>
      <point x="450" y="85"/>
      <point x="450" y="236" type="curve" smooth="yes"/>
      <point x="450" y="778" type="line"/>
      <point x="317" y="778" type="line"/>
      <point x="317" y="711" type="line"/>
      <point x="318" y="685"/>
      <point x="318" y="591"/>
      <point x="317" y="428" type="curve" smooth="yes"/>
      <point x="316" y="266"/>
      <point x="315" y="176"/>
      <point x="314" y="157" type="curve"/>
      <point x="311" y="140"/>
      <point x="277" y="128"/>
      <point x="242" y="128" type="curve" smooth="yes"/>
      <point x="210" y="128"/>
      <point x="180" y="137"/>
      <point x="172" y="150" type="curve"/>
      <point x="173" y="150" type="line"/>
      <point x="168" y="161"/>
      <point x="168" y="179"/>
      <point x="168" y="192" type="curve" smooth="yes"/>
      <point x="168" y="198" type="line"/>
      <point x="164" y="778" type="line"/>
    </contour>
    <contour>
      <point x="67" y="811" type="line"/>
      <point x="192" y="811" type="line"/>
      <point x="239" y="883" type="line"/>
      <point x="289" y="816" type="line"/>
      <point x="414" y="816" type="line"/>
      <point x="342" y="929" type="line"/>
      <point x="137" y="926" type="line"/>
    </contour>
  </outline>
</glyph>
<glyph name="Udieresis" format="2">
  <advance width="481"/>
  <unicode hex="00DC"/>
  <outline>
    <contour>
      <point x="30" y="778" type="line"/>
      <point x="30" y="198" type="line" smooth="yes"/>
      <point x="30" y="57"/>
      <point x="82" y="0"/>
      <point x="240" y="0" type="curve" smooth="yes"/>
      <point x="436" y="0"/>
      <point x="450" y="85"/>
      <point x="450" y="236" type="curve" smooth="yes"/>
      <point x="450" y="778" type="line"/>
      <point x="317" y="778" type="line"/>
      <point x="317" y="711" type="line"/>
      <point x="318" y="685"/>
      <point x="318" y="591"/>
      <point x="317" y="428" type="curve" smooth="yes"/>
      <point x="316" y="266"/>
      <point x="315" y="176"/>
      <point x="314" y="157" type="curve"/>
      <point x="311" y="140"/>
      <point x="277" y="128"/>
      <point x="242" y="128" type="curve" smooth="yes"/>
      <point x="210" y="128"/>
      <point x="180" y="137"/>
      <point x="172" y="150" type="curve"/>
      <point x="173" y="150" type="line"/>
      <point x="168" y="161"/>
      <point x="168" y="179"/>
      <point x="168" y="192" type="curve" smooth="yes"/>
      <point x="168" y="198" type="line"/>
      <point x="164" y="778" type="line"/>
    </contour>
    <contour>
      <point x="84" y="817" type="line"/>
      <point x="84" y="816"/>
      <point x="112" y="816"/>
      <point x="140" y="817" type="curve"/>
      <point x="157" y="817"/>
      <point x="177" y="817"/>
      <point x="198" y="818" type="curve"/>
      <point x="199" y="916" type="line"/>
      <point x="84" y="916" type="line"/>
    </contour>
    <contour>
      <point x="268" y="821" type="line" name=".hr01"/>
      <point x="268" y="820"/>
      <point x="274" y="820"/>
      <point x="286" y="820" type="curve" smooth="yes"/>
      <point x="324" y="820" type="line" smooth="yes"/>
      <point x="341" y="820"/>
      <point x="360" y="820"/>
      <point x="382" y="821" type="curve"/>
      <point x="383" y="918" type="line"/>
      <point x="268" y="918" type="line"/>
    </contour>
  </outline>
</glyph>
<glyph name="Yacute" format="2">
  <advance width="466"/>
  <unicode hex="00DD"/>
  <outline>
    <contour>
      <point x="440" y="779" type="line"/>
      <point x="306" y="779" type="line"/>
      <point x="306" y="738"/>
      <point x="308" y="701"/>
      <point x="308" y="672" type="curve" smooth="yes"/>
      <point x="308" y="585"/>
      <point x="297" y="509"/>
      <point x="228" y="437" type="curve"/>
      <point x="164" y="506"/>
      <point x="151" y="584"/>
      <point x="151" y="664" type="curve" smooth="yes"/>
      <point x="151" y="681"/>
      <point x="152" y="697"/>
      <point x="152" y="714" type="curve" smooth="yes"/>
      <point x="152" y="733"/>
      <point x="154" y="758"/>
      <point x="154" y="779" type="curve"/>
      <point x="20" y="779" type="line"/>
      <point x="20" y="688" type="line" smooth="yes"/>
      <point x="20" y="544"/>
      <point x="29" y="436"/>
      <point x="162" y="322" type="curve"/>
      <point x="162" y="0" type="line"/>
      <point x="296" y="0" type="line"/>
      <point x="296" y="322" type="line"/>
      <point x="428" y="436"/>
      <point x="440" y="544"/>
      <point x="440" y="688" type="curve" smooth="yes"/>
    </contour>
    <contour>
      <point x="188" y="869" type="line" smooth="yes"/>
      <point x="172" y="845"/>
      <point x="157" y="821"/>
      <point x="157" y="818" type="curve"/>
      <point x="157" y="817"/>
      <point x="185" y="817"/>
      <point x="214" y="818" type="curve"/>
      <point x="231" y="818"/>
      <point x="250" y="819"/>
      <point x="271" y="820" type="curve"/>
      <point x="336" y="917" type="line"/>
      <point x="220" y="917" type="line"/>
    </contour>
  </outline>
</glyph>
<glyph name="germandbls" format="2">
  <advance width="468"/>
  <unicode hex="00DF"/>
  <outline>
    <contour>
      <point x="401" y="412" type="curve"/>
      <point x="437" y="448"/>
      <point x="450" y="488"/>
      <point x="450" y="536" type="curve" smooth="yes"/>
      <point x="450" y="689"/>
      <point x="434" y="784"/>
      <point x="239" y="784" type="curve" smooth="yes"/>
      <point x="79" y="784"/>
      <point x="28" y="701"/>
      <point x="28" y="557" type="curve" smooth="yes"/>
      <point x="28" y="0" type="line"/>
      <point x="161" y="0" type="line"/>
      <point x="161" y="557" type="line"/>
      <point x="163" y="557" type="line"/>
      <point x="163" y="625"/>
      <point x="164" y="656"/>
      <point x="239" y="656" type="curve"/>
      <point x="312" y="653"/>
      <point x="316" y="620"/>
      <point x="316" y="559" type="curve" smooth="yes"/>
      <point x="316" y="513"/>
      <point x="319" y="478"/>
      <point x="235" y="475" type="curve"/>
      <point x="206" y="475" type="line"/>
      <point x="206" y="347" type="line"/>
      <point x="240" y="347" type="line" smooth="yes"/>
      <point x="272" y="347"/>
      <point x="247" y="349"/>
      <point x="282" y="338" type="curve" smooth="yes"/>
      <point x="309" y="330"/>
      <point x="317" y="306"/>
      <point x="317" y="238" type="curve" smooth="yes"/>
      <point x="317" y="217" type="line" smooth="yes"/>
      <point x="317" y="170"/>
      <point x="283" y="131"/>
      <point x="202" y="127" type="curve"/>
      <point x="202" y="0" type="line"/>
      <point x="398" y="0"/>
      <point x="451" y="84"/>
      <point x="451" y="238" type="curve" smooth="yes"/>
      <point x="451" y="303"/>
      <point x="451" y="359"/>
    </contour>
  </outline>
</glyph>
<glyph name="egrave" format="2">
  <advance width="449"/>
  <unicode hex="00E8"/>
  <outline>
    <contour>
      <point x="414" y="127" type="line"/>
      <point x="169" y="127" type="line"/>
      <point x="169" y="344" type="line"/>
      <point x="342" y="344" type="line"/>
      <point x="342" y="472" type="line"/>
      <point x="169" y="472" type="line"/>
      <point x="169" y="653" type="line"/>
      <point x="414" y="653" type="line"/>
      <point x="414" y="779" type="line"/>
      <point x="35" y="779" type="line"/>
      <point x="35" y="0" type="line"/>
      <point x="414" y="0" type="line"/>
    </contour>
    <contour>
      <point x="142" y="869" type="line"/>
      <point x="159" y="845"/>
      <point x="179" y="821"/>
      <point x="179" y="818" type="curve"/>
      <point x="179" y="817"/>
      <point x="207" y="817"/>
      <point x="235" y="818" type="curve"/>
      <point x="252" y="818"/>
      <point x="271" y="819"/>
      <point x="293" y="820" type="curve"/>
      <point x="221" y="917" type="line"/>
      <point x="104" y="917" type="line"/>
    </contour>
  </outline>
</glyph>
<glyph name="edieresis" format="2">
  <advance width="374"/>
  <unicode hex="00EB"/>
  <outline>
    <contour>
      <point x="345" y="0" type="line"/>
      <point x="29" y="0" type="line"/>
      <point x="29" y="649" type="line"/>
      <point x="345" y="649" type="line"/>
      <point x="345" y="544" type="line"/>
      <point x="141" y="544" type="line"/>
      <point x="141" y="393" type="line"/>
      <point x="285" y="393" type="line"/>
      <point x="285" y="287" type="line"/>
      <point x="141" y="287" type="line"/>
      <point x="141" y="106" type="line"/>
      <point x="345" y="106" type="line"/>
    </contour>
    <contour>
      <point x="59" y="764" type="line"/>
      <point x="155" y="764" type="line"/>
      <point x="154" y="683" type="line"/>
      <point x="127" y="682"/>
      <point x="106" y="682" type="qcurve"/>
      <point x="88" y="681"/>
      <point x="59" y="681"/>
      <point x="59" y="682" type="qcurve"/>
    </contour>
    <contour>
      <point x="215" y="766" type="line"/>
      <point x="311" y="766" type="line"/>
      <point x="310" y="685" type="line"/>
      <point x="283" y="684"/>
      <point x="262" y="684" type="qcurve" smooth="yes"/>
      <point x="244" y="684"/>
      <point x="215" y="684"/>
      <point x="215" y="685" type="qcurve"/>
    </contour>
  </outline>
</glyph>
<glyph name="igrave" format="2">
  <advance width="203"/>
  <unicode hex="00EC"/>
  <outline>
    <contour>
      <point x="34" y="0" type="line"/>
      <point x="169" y="0" type="line"/>
      <point x="169" y="776" type="line"/>
      <point x="34" y="776" type="line"/>
    </contour>
    <contour>
      <point x="26" y="869" type="line" smooth="yes"/>
      <point x="45" y="845"/>
      <point x="64" y="821"/>
      <point x="64" y="818" type="curve"/>
      <point x="64" y="817"/>
      <point x="91" y="817"/>
      <point x="120" y="818" type="curve"/>
      <point x="137" y="818"/>
      <point x="156" y="819"/>
      <point x="178" y="820" type="curve"/>
      <point x="106" y="917" type="line"/>
      <point x="-11" y="917" type="line"/>
    </contour>
  </outline>
</glyph>
<glyph name="iacute" format="2">
  <advance width="203"/>
  <unicode hex="00ED"/>
  <outline>
    <contour>
      <point x="34" y="0" type="line"/>
      <point x="169" y="0" type="line"/>
      <point x="169" y="776" type="line"/>
      <point x="34" y="776" type="line"/>
    </contour>
    <contour>
      <point x="70" y="869" type="line" smooth="yes"/>
      <point x="54" y="845"/>
      <point x="38" y="821"/>
      <point x="38" y="818" type="curve"/>
      <point x="38" y="817"/>
      <point x="66" y="817"/>
      <point x="95" y="818" type="curve"/>
      <point x="112" y="818"/>
      <point x="131" y="819"/>
      <point x="152" y="820" type="curve"/>
      <point x="217" y="917" type="line"/>
      <point x="101" y="917" type="line"/>
    </contour>
  </outline>
</glyph>
<glyph name="icircumflex" format="2">
  <advance width="169"/>
  <unicode hex="00EE"/>
  <outline>
    <contour>
      <point x="28" y="647" type="line"/>
      <point x="141" y="647" type="line"/>
      <point x="141" y="0" type="line"/>
      <point x="28" y="0" type="line"/>
    </contour>
    <contour>
      <point x="2" y="772" type="line"/>
      <point x="173" y="774" type="line"/>
      <point x="233" y="682" type="line"/>
      <point x="129" y="682" type="line"/>
      <point x="87" y="736" type="line"/>
      <point x="48" y="678" type="line"/>
      <point x="-56" y="678" type="line"/>
    </contour>
  </outline>
</glyph>
<glyph name="idieresis" format="2">
  <advance width="203"/>
  <unicode hex="00EF"/>
  <outline>
    <contour>
      <point x="35" y="0" type="line"/>
      <point x="170" y="0" type="line"/>
      <point x="170" y="776" type="line"/>
      <point x="35" y="776" type="line"/>
    </contour>
    <contour>
      <point x="-42" y="818" type="line" name=".hr01"/>
      <point x="-42" y="817"/>
      <point x="-14" y="817"/>
      <point x="14" y="818" type="curve"/>
      <point x="31" y="818"/>
      <point x="51" y="819"/>
      <point x="72" y="820" type="curve"/>
      <point x="73" y="917" type="line"/>
      <point x="-42" y="917" type="line"/>
    </contour>
    <contour>
      <point x="134" y="822" type="line"/>
      <point x="134" y="821" name=".hr02"/>
      <point x="140" y="821"/>
      <point x="152" y="821" type="curve" smooth="yes"/>
      <point x="191" y="821" type="line" smooth="yes"/>
      <point x="208" y="821"/>
      <point x="227" y="821"/>
      <point x="248" y="822" type="curve"/>
      <point x="250" y="919" type="line"/>
      <point x="134" y="919" type="line"/>
    </contour>
  </outline>
</glyph>
<glyph name="oacute" format="2">
  <advance width="482"/>
  <unicode hex="00F3"/>
  <outline>
    <contour>
      <point x="449" y="581" type="line" smooth="yes"/>
      <point x="449" y="724"/>
      <point x="393" y="779"/>
      <point x="238" y="779" type="curve" smooth="yes"/>
      <point x="86" y="779"/>
      <point x="30" y="724"/>
      <point x="30" y="581" type="curve" smooth="yes"/>
      <point x="30" y="198" type="line" smooth="yes"/>
      <point x="30" y="54"/>
      <point x="85" y="0"/>
      <point x="239" y="0" type="curve" smooth="yes"/>
      <point x="430" y="0"/>
      <point x="449" y="80"/>
      <point x="449" y="236" type="curve" smooth="yes"/>
    </contour>
    <contour>
      <point x="162" y="581" type="line"/>
      <point x="162" y="638"/>
      <point x="165" y="652"/>
      <point x="239" y="652" type="curve" smooth="yes"/>
      <point x="310" y="652"/>
      <point x="314" y="649"/>
      <point x="314" y="581" type="curve" smooth="yes"/>
      <point x="314" y="236" type="line" smooth="yes"/>
      <point x="314" y="166"/>
      <point x="314" y="130"/>
      <point x="241" y="130" type="curve" smooth="yes"/>
      <point x="173" y="130"/>
      <point x="164" y="149"/>
      <point x="164" y="230" type="curve"/>
    </contour>
    <contour>
      <point x="194" y="869" type="line" smooth="yes"/>
      <point x="178" y="845"/>
      <point x="163" y="821"/>
      <point x="163" y="818" type="curve"/>
      <point x="163" y="817"/>
      <point x="191" y="817"/>
      <point x="220" y="818" type="curve"/>
      <point x="237" y="818"/>
      <point x="256" y="819"/>
      <point x="277" y="820" type="curve"/>
      <point x="342" y="917" type="line"/>
      <point x="226" y="917" type="line"/>
    </contour>
  </outline>
</glyph>
<glyph name="ocircumflex" format="2">
  <advance width="482"/>
  <unicode hex="00F4"/>
  <outline>
    <contour>
      <point x="449" y="581" type="line" smooth="yes"/>
      <point x="449" y="724"/>
      <point x="393" y="779"/>
      <point x="238" y="779" type="curve" smooth="yes"/>
      <point x="86" y="779"/>
      <point x="30" y="724"/>
      <point x="30" y="581" type="curve" smooth="yes"/>
      <point x="30" y="198" type="line" smooth="yes"/>
      <point x="30" y="54"/>
      <point x="85" y="0"/>
      <point x="239" y="0" type="curve" smooth="yes"/>
      <point x="430" y="0"/>
      <point x="449" y="80"/>
      <point x="449" y="236" type="curve" smooth="yes"/>
    </contour>
    <contour>
      <point x="162" y="581" type="line"/>
      <point x="162" y="638"/>
      <point x="165" y="652"/>
      <point x="239" y="652" type="curve" smooth="yes"/>
      <point x="310" y="652"/>
      <point x="314" y="649"/>
      <point x="314" y="581" type="curve" smooth="yes"/>
      <point x="314" y="236" type="line" smooth="yes"/>
      <point x="314" y="166"/>
      <point x="314" y="130"/>
      <point x="241" y="130" type="curve" smooth="yes"/>
      <point x="173" y="130"/>
      <point x="164" y="149"/>
      <point x="164" y="230" type="curve"/>
    </contour>
    <contour>
      <point x="65" y="811" type="line"/>
      <point x="190" y="811" type="line"/>
      <point x="236" y="883" type="line"/>
      <point x="287" y="816" type="line"/>
      <point x="412" y="816" type="line"/>
      <point x="340" y="929" type="line"/>
      <point x="134" y="926" type="line"/>
    </contour>
  </outline>
</glyph>
<glyph name="divide" format="2">
  <advance width="413"/>
  <unicode hex="00F7"/>
  <outline>
    <contour>
      <point x="385" y="464" type="line"/>
      <point x="29" y="464" type="line"/>
      <point x="29" y="367" type="line"/>
      <point x="385" y="367" type="line"/>
    </contour>
    <contour>
      <point x="118" y="583" type="curve" smooth="yes"/>
      <point x="118" y="536"/>
      <point x="156" y="496"/>
      <point x="207" y="496" type="curve" smooth="yes"/>
      <point x="259" y="496"/>
      <point x="296" y="536"/>
      <point x="296" y="583" type="curve" smooth="yes"/>
      <point x="296" y="635"/>
      <point x="259" y="674"/>
      <point x="207" y="674" type="curve" smooth="yes"/>
      <point x="156" y="674"/>
      <point x="118" y="635"/>
    </contour>
    <contour>
      <point x="208" y="608" type="curve" smooth="yes"/>
      <point x="220" y="608"/>
      <point x="235" y="597"/>
      <point x="235" y="582" type="curve" smooth="yes"/>
      <point x="235" y="567"/>
      <point x="220" y="557"/>
      <point x="208" y="557" type="curve" smooth="yes"/>
      <point x="170" y="557"/>
      <point x="170" y="608"/>
    </contour>
    <contour>
      <point x="116" y="240" type="curve" smooth="yes"/>
      <point x="116" y="193"/>
      <point x="155" y="152"/>
      <point x="206" y="152" type="curve" smooth="yes"/>
      <point x="258" y="152"/>
      <point x="295" y="193"/>
      <point x="295" y="240" type="curve" smooth="yes"/>
      <point x="295" y="291"/>
      <point x="258" y="331"/>
      <point x="206" y="331" type="curve" smooth="yes"/>
      <point x="155" y="331"/>
      <point x="116" y="291"/>
    </contour>
    <contour>
      <point x="206" y="265" type="curve" smooth="yes"/>
      <point x="219" y="265"/>
      <point x="234" y="254"/>
      <point x="234" y="239" type="curve" smooth="yes"/>
      <point x="234" y="224"/>
      <point x="219" y="214"/>
      <point x="206" y="214" type="curve" smooth="yes"/>
      <point x="169" y="214"/>
      <point x="169" y="265"/>
    </contour>
  </outline>
</glyph>
<glyph name="ugrave" format="2">
  <advance width="481"/>
  <unicode hex="00F9"/>
  <outline>
    <contour>
      <point x="30" y="778" type="line"/>
      <point x="30" y="198" type="line" smooth="yes"/>
      <point x="30" y="57"/>
      <point x="82" y="0"/>
      <point x="240" y="0" type="curve" smooth="yes"/>
      <point x="436" y="0"/>
      <point x="450" y="85"/>
      <point x="450" y="236" type="curve" smooth="yes"/>
      <point x="450" y="778" type="line"/>
      <point x="317" y="778" type="line"/>
      <point x="317" y="759"/>
      <point x="317" y="656"/>
      <point x="316" y="467" type="curve"/>
      <point x="316" y="279"/>
      <point x="315" y="176"/>
      <point x="314" y="157" type="curve"/>
      <point x="311" y="140"/>
      <point x="277" y="128"/>
      <point x="242" y="128" type="curve" smooth="yes"/>
      <point x="210" y="128"/>
      <point x="180" y="137"/>
      <point x="172" y="150" type="curve"/>
      <point x="173" y="150" type="line"/>
      <point x="168" y="161"/>
      <point x="168" y="179"/>
      <point x="168" y="192" type="curve" smooth="yes"/>
      <point x="168" y="198" type="line"/>
      <point x="164" y="778" type="line"/>
    </contour>
    <contour>
      <point x="91" y="869" type="line" smooth="yes"/>
      <point x="75" y="845"/>
      <point x="60" y="821"/>
      <point x="60" y="818" type="curve"/>
      <point x="60" y="817"/>
      <point x="88" y="817"/>
      <point x="116" y="818" type="curve"/>
      <point x="133" y="818"/>
      <point x="153" y="819"/>
      <point x="174" y="820" type="curve"/>
      <point x="239" y="917" type="line"/>
      <point x="122" y="917" type="line"/>
    </contour>
    <contour>
      <point x="288" y="869" type="line" smooth="yes"/>
      <point x="272" y="845"/>
      <point x="257" y="821"/>
      <point x="257" y="818" type="curve"/>
      <point x="257" y="817"/>
      <point x="285" y="817"/>
      <point x="313" y="818" type="curve"/>
      <point x="330" y="818"/>
      <point x="349" y="819"/>
      <point x="371" y="820" type="curve"/>
      <point x="436" y="917" type="line"/>
      <point x="319" y="917" type="line"/>
    </contour>
  </outline>
</glyph>
<glyph name="thorn" format="2">
  <advance width="470"/>
  <unicode hex="00FE"/>
  <outline>
    <contour>
      <point x="239" y="690" type="curve" smooth="yes"/>
      <point x="211" y="690"/>
      <point x="187" y="689"/>
      <point x="166" y="685" type="curve"/>
      <point x="166" y="784" type="line"/>
      <point x="30" y="784" type="line"/>
      <point x="30" y="492" type="line"/>
      <point x="30" y="281" type="line"/>
      <point x="30" y="0" type="line"/>
      <point x="166" y="0" type="line"/>
      <point x="166" y="89" type="line"/>
      <point x="187" y="85"/>
      <point x="211" y="83"/>
      <point x="239" y="83" type="curve" smooth="yes"/>
      <point x="430" y="83"/>
      <point x="449" y="163"/>
      <point x="449" y="319" type="curve" smooth="yes"/>
      <point x="449" y="492" type="line" smooth="yes"/>
      <point x="449" y="636"/>
      <point x="392" y="690"/>
    </contour>
    <contour>
      <point x="314" y="319" type="line" smooth="yes"/>
      <point x="314" y="250"/>
      <point x="314" y="212"/>
      <point x="241" y="212" type="curve" smooth="yes"/>
      <point x="185" y="212"/>
      <point x="169" y="227"/>
      <point x="166" y="272" type="curve"/>
      <point x="166" y="536" type="line"/>
      <point x="171" y="557"/>
      <point x="190" y="563"/>
      <point x="239" y="563" type="curve" smooth="yes"/>
      <point x="310" y="563"/>
      <point x="314" y="560"/>
      <point x="314" y="492" type="curve" smooth="yes"/>
    </contour>
  </outline>
</glyph>
<glyph name="Dcaron" format="2">
  <advance width="487"/>
  <unicode hex="010E"/>
  <outline>
    <contour>
      <point x="34" y="0" type="line"/>
      <point x="152" y="0" type="line" smooth="yes"/>
      <point x="316" y="0"/>
      <point x="454" y="18"/>
      <point x="454" y="218" type="curve" smooth="yes"/>
      <point x="454" y="577" type="line" smooth="yes"/>
      <point x="454" y="717"/>
      <point x="401" y="779"/>
      <point x="244" y="779" type="curve" smooth="yes"/>
      <point x="34" y="779" type="line"/>
    </contour>
    <contour>
      <point x="168" y="653" type="line"/>
      <point x="193" y="653" type="line" smooth="yes"/>
      <point x="281" y="653"/>
      <point x="320" y="655"/>
      <point x="320" y="565" type="curve" smooth="yes"/>
      <point x="320" y="223" type="line" smooth="yes"/>
      <point x="320" y="131"/>
      <point x="277" y="127"/>
      <point x="168" y="127" type="curve"/>
    </contour>
    <contour>
      <point x="390" y="925" type="line"/>
      <point x="265" y="925" type="line"/>
      <point x="218" y="853" type="line"/>
      <point x="168" y="920" type="line"/>
      <point x="43" y="920" type="line"/>
      <point x="115" y="810" type="line"/>
      <point x="320" y="812" type="line"/>
    </contour>
  </outline>
</glyph>
<glyph name="dslash" format="2">
  <advance width="504"/>
  <unicode hex="0111"/>
  <outline>
    <contour>
      <point x="58" y="779" type="line"/>
      <point x="58" y="462" type="line"/>
      <point x="22" y="462" type="line"/>
      <point x="22" y="334" type="line"/>
      <point x="58" y="334" type="line"/>
      <point x="58" y="0" type="line"/>
      <point x="176" y="0" type="line" smooth="yes"/>
      <point x="340" y="0"/>
      <point x="478" y="18"/>
      <point x="478" y="218" type="curve" smooth="yes"/>
      <point x="478" y="577" type="line" smooth="yes"/>
      <point x="478" y="717"/>
      <point x="425" y="779"/>
      <point x="268" y="779" type="curve" smooth="yes"/>
    </contour>
    <contour>
      <point x="344" y="223" type="line" smooth="yes"/>
      <point x="344" y="131"/>
      <point x="301" y="127"/>
      <point x="192" y="127" type="curve"/>
      <point x="192" y="334" type="line"/>
      <point x="287" y="334" type="line"/>
      <point x="287" y="462" type="line"/>
      <point x="192" y="462" type="line"/>
      <point x="192" y="653" type="line"/>
      <point x="217" y="653" type="line" smooth="yes"/>
      <point x="305" y="653"/>
      <point x="344" y="655"/>
      <point x="344" y="565" type="curve" smooth="yes"/>
    </contour>
  </outline>
</glyph>
<glyph name="emacron" format="2">
  <advance width="449"/>
  <unicode hex="0113"/>
  <outline>
    <contour>
      <point x="414" y="127" type="line"/>
      <point x="169" y="127" type="line"/>
      <point x="169" y="344" type="line"/>
      <point x="342" y="344" type="line"/>
      <point x="342" y="472" type="line"/>
      <point x="169" y="472" type="line"/>
      <point x="169" y="653" type="line"/>
      <point x="414" y="653" type="line"/>
      <point x="414" y="779" type="line"/>
      <point x="35" y="779" type="line"/>
      <point x="35" y="0" type="line"/>
      <point x="414" y="0" type="line"/>
    </contour>
    <contour>
      <point x="98" y="822" type="line" name=".hr01"/>
      <point x="109" y="821" type="line"/>
      <point x="137" y="821" type="line"/>
      <point x="175" y="821" type="line"/>
      <point x="221" y="821" type="line" smooth="yes"/>
      <point x="257" y="821"/>
      <point x="298" y="821"/>
      <point x="343" y="822" type="curve"/>
      <point x="344" y="919" type="line"/>
      <point x="98" y="919" type="line"/>
    </contour>
  </outline>
</glyph>
<glyph name="Ebreve" format="2">
  <advance width="449"/>
  <unicode hex="0114"/>
  <outline>
    <contour>
      <point x="414" y="127" type="line"/>
      <point x="169" y="127" type="line"/>
      <point x="169" y="344" type="line"/>
      <point x="342" y="344" type="line"/>
      <point x="342" y="472" type="line"/>
      <point x="169" y="472" type="line"/>
      <point x="169" y="653" type="line"/>
      <point x="414" y="653" type="line"/>
      <point x="414" y="779" type="line"/>
      <point x="35" y="779" type="line"/>
      <point x="35" y="0" type="line"/>
      <point x="414" y="0" type="line"/>
    </contour>
    <contour>
      <point x="88" y="940" type="line"/>
      <point x="91" y="849"/>
      <point x="137" y="815"/>
      <point x="228" y="815" type="curve" smooth="yes"/>
      <point x="319" y="815"/>
      <point x="367" y="849"/>
      <point x="371" y="940" type="curve"/>
      <point x="293" y="940" type="line"/>
      <point x="286" y="893"/>
      <point x="263" y="890"/>
      <point x="228" y="890" type="curve" smooth="yes"/>
      <point x="195" y="890"/>
      <point x="171" y="893"/>
      <point x="166" y="940" type="curve"/>
    </contour>
  </outline>
</glyph>
<glyph name="edotaccent" format="2">
  <advance width="449"/>
  <unicode hex="0117"/>
  <outline>
    <contour>
      <point x="414" y="127" type="line"/>
      <point x="169" y="127" type="line"/>
      <point x="169" y="344" type="line"/>
      <point x="342" y="344" type="line"/>
      <point x="342" y="472" type="line"/>
      <point x="169" y="472" type="line"/>
      <point x="169" y="653" type="line"/>
      <point x="414" y="653" type="line"/>
      <point x="414" y="779" type="line"/>
      <point x="35" y="779" type="line"/>
      <point x="35" y="0" type="line"/>
      <point x="414" y="0" type="line"/>
    </contour>
    <contour>
      <point x="227" y="943" type="curve" smooth="yes"/>
      <point x="178" y="943"/>
      <point x="160" y="923" name=".hr01"/>
      <point x="160" y="878" type="curve" smooth="yes"/>
      <point x="160" y="835"/>
      <point x="179" y="815"/>
      <point x="227" y="815" type="curve" smooth="yes"/>
      <point x="272" y="815"/>
      <point x="294" y="836"/>
      <point x="294" y="878" type="curve" smooth="yes"/>
      <point x="294" y="925"/>
      <point x="275" y="943"/>
    </contour>
  </outline>
</glyph>
<glyph name="eogonek" format="2">
  <advance width="449"/>
  <unicode hex="0119"/>
  <outline>
    <contour>
      <point x="416" y="653" type="line"/>
      <point x="416" y="779" type="line"/>
      <point x="37" y="779" type="line"/>
      <point x="37" y="0" type="line"/>
      <point x="276" y="0" type="line"/>
      <point x="261" y="-5"/>
      <point x="249" y="-13"/>
      <point x="241" y="-24" type="curve" smooth="yes"/>
      <point x="232" y="-36"/>
      <point x="227" y="-51"/>
      <point x="227" y="-68" type="curve" smooth="yes"/>
      <point x="227" y="-91"/>
      <point x="236" y="-117"/>
      <point x="253" y="-136" type="curve"/>
      <point x="285" y="-168"/>
      <point x="324" y="-164"/>
      <point x="373" y="-160" type="curve"/>
      <point x="380" y="-131" type="line"/>
      <point x="372" y="-132"/>
      <point x="367" y="-133"/>
      <point x="360" y="-133" type="curve" smooth="yes"/>
      <point x="345" y="-133"/>
      <point x="333" y="-127"/>
      <point x="322" y="-116" type="curve" smooth="yes"/>
      <point x="311" y="-106"/>
      <point x="306" y="-94"/>
      <point x="306" y="-80" type="curve" smooth="yes"/>
      <point x="306" y="-71"/>
      <point x="309" y="-63"/>
      <point x="316" y="-55" type="curve" smooth="yes"/>
      <point x="323" y="-48"/>
      <point x="331" y="-44"/>
      <point x="342" y="-44" type="curve" smooth="yes"/>
      <point x="345" y="-44"/>
      <point x="348" y="-46"/>
      <point x="353" y="-46" type="curve"/>
      <point x="326" y="0" type="line"/>
      <point x="416" y="0" type="line"/>
      <point x="416" y="127" type="line"/>
      <point x="172" y="127" type="line"/>
      <point x="172" y="344" type="line"/>
      <point x="344" y="344" type="line"/>
      <point x="344" y="472" type="line"/>
      <point x="172" y="472" type="line"/>
      <point x="172" y="653" type="line"/>
    </contour>
  </outline>
</glyph>
<glyph name="ecaron" format="2">
  <advance width="449"/>
  <unicode hex="011B"/>
  <outline>
    <contour>
      <point x="414" y="127" type="line"/>
      <point x="169" y="127" type="line"/>
      <point x="169" y="344" type="line"/>
      <point x="342" y="344" type="line"/>
      <point x="342" y="472" type="line"/>
      <point x="169" y="472" type="line"/>
      <point x="169" y="653" type="line"/>
      <point x="414" y="653" type="line"/>
      <point x="414" y="779" type="line"/>
      <point x="35" y="779" type="line"/>
      <point x="35" y="0" type="line"/>
      <point x="414" y="0" type="line"/>
    </contour>
    <contour>
      <point x="398" y="922" type="line"/>
      <point x="274" y="922" type="line"/>
      <point x="227" y="853" type="line"/>
      <point x="176" y="920" type="line"/>
      <point x="52" y="920" type="line"/>
      <point x="124" y="814" type="line"/>
      <point x="329" y="815" type="line"/>
    </contour>
  </outline>
</glyph>
<glyph name="Gcircumflex" format="2">
  <advance width="482"/>
  <unicode hex="011C"/>
  <outline>
    <contour>
      <point x="449" y="576" type="line" name=".hr02"/>
      <point x="449" y="720"/>
      <point x="395" y="779"/>
      <point x="239" y="779" type="curve" smooth="yes"/>
      <point x="79" y="779"/>
      <point x="29" y="722"/>
      <point x="29" y="582" type="curve" smooth="yes"/>
      <point x="29" y="198" type="line" smooth="yes"/>
      <point x="29" y="57"/>
      <point x="79" y="0"/>
      <point x="239" y="0" type="curve" smooth="yes"/>
      <point x="435" y="0"/>
      <point x="449" y="108"/>
      <point x="449" y="294" type="curve" smooth="yes"/>
      <point x="449" y="434" type="line"/>
      <point x="204" y="434" type="line"/>
      <point x="204" y="307" type="line"/>
      <point x="314" y="307" type="line"/>
      <point x="314" y="240" type="line" smooth="yes"/>
      <point x="314" y="165"/>
      <point x="309" y="124" name=".hr01"/>
      <point x="250" y="127" type="curve" smooth="yes"/>
      <point x="188" y="130"/>
      <point x="162" y="131"/>
      <point x="162" y="198" type="curve" smooth="yes"/>
      <point x="162" y="582" type="line" smooth="yes"/>
      <point x="162" y="650"/>
      <point x="184" y="653"/>
      <point x="239" y="653" type="curve" smooth="yes"/>
      <point x="276" y="653" type="line" smooth="yes"/>
      <point x="303" y="653"/>
      <point x="304" y="641"/>
      <point x="308" y="608" type="curve"/>
      <point x="311" y="576" type="line"/>
    </contour>
    <contour>
      <point x="68" y="816" type="line"/>
      <point x="193" y="816" type="line"/>
      <point x="240" y="886" type="line"/>
      <point x="290" y="821" type="line"/>
      <point x="415" y="821" type="line"/>
      <point x="343" y="931" type="line"/>
      <point x="138" y="930" type="line"/>
    </contour>
  </outline>
</glyph>
<glyph name="Gbreve" format="2">
  <advance width="482"/>
  <unicode hex="011E"/>
  <outline>
    <contour>
      <point x="449" y="576" type="line" name=".hr02"/>
      <point x="449" y="720"/>
      <point x="395" y="779"/>
      <point x="239" y="779" type="curve" smooth="yes"/>
      <point x="79" y="779"/>
      <point x="29" y="722"/>
      <point x="29" y="582" type="curve" smooth="yes"/>
      <point x="29" y="198" type="line" smooth="yes"/>
      <point x="29" y="57"/>
      <point x="79" y="0"/>
      <point x="239" y="0" type="curve" smooth="yes"/>
      <point x="435" y="0"/>
      <point x="449" y="108"/>
      <point x="449" y="294" type="curve" smooth="yes"/>
      <point x="449" y="434" type="line"/>
      <point x="204" y="434" type="line"/>
      <point x="204" y="307" type="line"/>
      <point x="314" y="307" type="line"/>
      <point x="314" y="240" type="line" smooth="yes"/>
      <point x="314" y="165"/>
      <point x="309" y="124" name=".hr01"/>
      <point x="250" y="127" type="curve" smooth="yes"/>
      <point x="188" y="130"/>
      <point x="162" y="131"/>
      <point x="162" y="198" type="curve" smooth="yes"/>
      <point x="162" y="582" type="line" smooth="yes"/>
      <point x="162" y="650"/>
      <point x="184" y="653"/>
      <point x="239" y="653" type="curve" smooth="yes"/>
      <point x="276" y="653" type="line" smooth="yes"/>
      <point x="303" y="653"/>
      <point x="304" y="641"/>
      <point x="308" y="608" type="curve"/>
      <point x="311" y="576" type="line"/>
    </contour>
    <contour>
      <point x="88" y="940" type="line"/>
      <point x="91" y="849"/>
      <point x="137" y="815"/>
      <point x="228" y="815" type="curve" smooth="yes"/>
      <point x="319" y="815"/>
      <point x="367" y="849"/>
      <point x="371" y="940" type="curve"/>
      <point x="293" y="940" type="line"/>
      <point x="286" y="893"/>
      <point x="263" y="890"/>
      <point x="228" y="890" type="curve" smooth="yes"/>
      <point x="195" y="890"/>
      <point x="171" y="893"/>
      <point x="166" y="940" type="curve"/>
    </contour>
  </outline>
</glyph>
<glyph name="gdotaccent" format="2">
  <advance width="482"/>
  <unicode hex="0121"/>
  <outline>
    <contour>
      <point x="449" y="576" type="line" name=".hr02"/>
      <point x="449" y="720"/>
      <point x="395" y="779"/>
      <point x="239" y="779" type="curve" smooth="yes"/>
      <point x="79" y="779"/>
      <point x="29" y="722"/>
      <point x="29" y="582" type="curve" smooth="yes"/>
      <point x="29" y="198" type="line" smooth="yes"/>
      <point x="29" y="57"/>
      <point x="79" y="0"/>
      <point x="239" y="0" type="curve" smooth="yes"/>
      <point x="435" y="0"/>
      <point x="449" y="108"/>
      <point x="449" y="294" type="curve" smooth="yes"/>
      <point x="449" y="434" type="line"/>
      <point x="204" y="434" type="line"/>
      <point x="204" y="307" type="line"/>
      <point x="314" y="307" type="line"/>
      <point x="314" y="240" type="line" smooth="yes"/>
      <point x="314" y="165"/>
      <point x="309" y="124" name=".hr01"/>
      <point x="250" y="127" type="curve" smooth="yes"/>
      <point x="188" y="130"/>
      <point x="162" y="131"/>
      <point x="162" y="198" type="curve" smooth="yes"/>
      <point x="162" y="582" type="line" smooth="yes"/>
      <point x="162" y="650"/>
      <point x="184" y="653"/>
      <point x="239" y="653" type="curve" smooth="yes"/>
      <point x="276" y="653" type="line" smooth="yes"/>
      <point x="303" y="653"/>
      <point x="304" y="641"/>
      <point x="308" y="608" type="curve"/>
      <point x="311" y="576" type="line"/>
    </contour>
    <contour>
      <point x="240" y="943" type="curve" smooth="yes"/>
      <point x="191" y="943"/>
      <point x="173" y="923"/>
      <point x="173" y="878" type="curve" smooth="yes"/>
      <point x="173" y="835"/>
      <point x="192" y="815"/>
      <point x="240" y="815" type="curve" smooth="yes"/>
      <point x="285" y="815"/>
      <point x="307" y="836"/>
      <point x="307" y="878" type="curve" smooth="yes"/>
      <point x="307" y="925"/>
      <point x="288" y="943"/>
    </contour>
  </outline>
</glyph>
<glyph name="Gcommaaccent" format="2">
  <advance width="482"/>
  <unicode hex="0122"/>
  <outline>
    <contour>
      <point x="449" y="576" type="line" name=".hr02"/>
      <point x="449" y="720"/>
      <point x="395" y="779"/>
      <point x="239" y="779" type="curve" smooth="yes"/>
      <point x="79" y="779"/>
      <point x="29" y="722"/>
      <point x="29" y="582" type="curve" smooth="yes"/>
      <point x="29" y="198" type="line" smooth="yes"/>
      <point x="29" y="57"/>
      <point x="79" y="0"/>
      <point x="239" y="0" type="curve" smooth="yes"/>
      <point x="435" y="0"/>
      <point x="449" y="108"/>
      <point x="449" y="294" type="curve" smooth="yes"/>
      <point x="449" y="434" type="line"/>
      <point x="204" y="434" type="line"/>
      <point x="204" y="307" type="line"/>
      <point x="314" y="307" type="line"/>
      <point x="314" y="240" type="line" smooth="yes"/>
      <point x="314" y="165"/>
      <point x="309" y="124" name=".hr01"/>
      <point x="250" y="127" type="curve" smooth="yes"/>
      <point x="188" y="130"/>
      <point x="162" y="131"/>
      <point x="162" y="198" type="curve" smooth="yes"/>
      <point x="162" y="582" type="line" smooth="yes"/>
      <point x="162" y="650"/>
      <point x="184" y="653"/>
      <point x="239" y="653" type="curve" smooth="yes"/>
      <point x="276" y="653" type="line" smooth="yes"/>
      <point x="303" y="653"/>
      <point x="304" y="641"/>
      <point x="308" y="608" type="curve"/>
      <point x="311" y="576" type="line"/>
    </contour>
    <contour>
      <point x="211" y="-254" type="line"/>
      <point x="264" y="-218"/>
      <point x="309" y="-166" name=".hr03"/>
      <point x="302" y="-103" type="curve" smooth="yes"/>
      <point x="298" y="-60"/>
      <point x="271" y="-44"/>
      <point x="240" y="-44" type="curve" smooth="yes"/>
      <point x="197" y="-44"/>
      <point x="156" y="-77"/>
      <point x="164" y="-119" type="curve"/>
      <point x="168" y="-130"/>
      <point x="171" y="-135"/>
      <point x="178" y="-142" type="curve"/>
      <point x="178" y="-140" type="line"/>
      <point x="184" y="-150" type="line"/>
      <point x="192" y="-162"/>
      <point x="196" y="-177"/>
      <point x="196" y="-194" type="curve" smooth="yes"/>
      <point x="196" y="-209"/>
      <point x="189" y="-222"/>
      <point x="174" y="-232" type="curve"/>
    </contour>
  </outline>
</glyph>
<glyph name="hcircumflex" format="2">
  <advance width="496"/>
  <unicode hex="0125"/>
  <outline>
    <contour>
      <point x="452" y="779" type="line"/>
      <point x="320" y="779" type="line"/>
      <point x="320" y="473" type="line"/>
      <point x="168" y="473" type="line"/>
      <point x="168" y="779" type="line"/>
      <point x="34" y="779" type="line"/>
      <point x="34" y="0" type="line"/>
      <point x="168" y="0" type="line"/>
      <point x="168" y="344" type="line"/>
      <point x="320" y="344" type="line"/>
      <point x="320" y="0" type="line"/>
      <point x="452" y="0" type="line"/>
    </contour>
    <contour>
      <point x="67" y="815" type="line"/>
      <point x="182" y="815" type="line"/>
      <point x="232" y="883" type="line"/>
      <point x="280" y="816" type="line"/>
      <point x="401" y="816" type="line"/>
      <point x="328" y="929" type="line"/>
      <point x="139" y="929" type="line"/>
    </contour>
  </outline>
</glyph>
<glyph name="hbar" format="2">
  <advance width="551"/>
  <unicode hex="0127"/>
  <outline>
    <contour>
      <point x="487" y="654" type="line"/>
      <point x="487" y="779" type="line"/>
      <point x="355" y="779" type="line"/>
      <point x="355" y="654" type="line"/>
      <point x="203" y="654" type="line"/>
      <point x="203" y="779" type="line"/>
      <point x="68" y="779" type="line"/>
      <point x="68" y="654" type="line"/>
      <point x="31" y="654" type="line"/>
      <point x="31" y="538" type="line"/>
      <point x="68" y="538" type="line"/>
      <point x="68" y="0" type="line"/>
      <point x="203" y="0" type="line"/>
      <point x="203" y="344" type="line"/>
      <point x="355" y="344" type="line"/>
      <point x="355" y="0" type="line"/>
      <point x="487" y="0" type="line"/>
      <point x="487" y="538" type="line"/>
      <point x="522" y="538" type="line"/>
      <point x="522" y="654" type="line"/>
    </contour>
    <contour>
      <point x="203" y="473" type="line"/>
      <point x="203" y="538" type="line"/>
      <point x="355" y="538" type="line"/>
      <point x="355" y="473" type="line"/>
    </contour>
  </outline>
</glyph>
<glyph name="Itilde" format="2">
  <advance width="283"/>
  <unicode hex="0128"/>
  <outline>
    <contour>
      <point x="71" y="0" type="line"/>
      <point x="206" y="0" type="line"/>
      <point x="206" y="776" type="line"/>
      <point x="71" y="776" type="line"/>
    </contour>
    <contour>
      <point x="276" y="920" type="line"/>
      <point x="272" y="914" type="line"/>
      <point x="260" y="898"/>
      <point x="247" y="888"/>
      <point x="233" y="884" type="curve" smooth="yes"/>
      <point x="215" y="880"/>
      <point x="193" y="887"/>
      <point x="166" y="906" type="curve" smooth="yes"/>
      <point x="144" y="921"/>
      <point x="122" y="928" name=".hr01"/>
      <point x="100" y="928" type="curve" smooth="yes"/>
      <point x="76" y="928"/>
      <point x="53" y="921"/>
      <point x="31" y="906" type="curve"/>
      <point x="-1" y="889"/>
      <point x="-19" y="861"/>
      <point x="-23" y="858" type="curve"/>
      <point x="-26" y="851" type="line"/>
      <point x="23" y="806" type="line"/>
      <point x="28" y="803" type="line"/>
      <point x="32" y="809" type="line"/>
      <point x="42" y="818" type="line"/>
      <point x="52" y="829" type="line"/>
      <point x="66" y="840" type="line"/>
      <point x="75" y="845"/>
      <point x="87" y="850"/>
      <point x="100" y="850" type="curve" smooth="yes"/>
      <point x="109" y="850"/>
      <point x="118" y="845"/>
      <point x="127" y="840" type="curve"/>
      <point x="162" y="817"/>
      <point x="194" y="805" name=".hr02"/>
      <point x="223" y="805" type="curve" smooth="yes"/>
      <point x="234" y="805" type="line" smooth="yes"/>
      <point x="238" y="805"/>
      <point x="242" y="805"/>
      <point x="246" y="806" type="curve" smooth="yes"/>
      <point x="275" y="813"/>
      <point x="301" y="832"/>
      <point x="326" y="862" type="curve" smooth="yes"/>
      <point x="331" y="868" type="line"/>
    </contour>
  </outline>
</glyph>
<glyph name="Imacron" format="2">
  <advance width="259"/>
  <unicode hex="012A"/>
  <outline>
    <contour>
      <point x="60" y="0" type="line"/>
      <point x="196" y="0" type="line"/>
      <point x="196" y="776" type="line"/>
      <point x="60" y="776" type="line"/>
    </contour>
    <contour>
      <point x="10" y="822" type="line"/>
      <point x="19" y="821" type="line"/>
      <point x="47" y="821" type="line"/>
      <point x="84" y="821" type="line"/>
      <point x="128" y="821" type="line" smooth="yes"/>
      <point x="163" y="821"/>
      <point x="203" y="821"/>
      <point x="248" y="822" type="curve"/>
      <point x="250" y="919" type="line"/>
      <point x="10" y="919" type="line"/>
    </contour>
  </outline>
</glyph>
<glyph name="ibreve" format="2">
  <advance width="252"/>
  <unicode hex="012D"/>
  <outline>
    <contour>
      <point x="62" y="0" type="line"/>
      <point x="198" y="0" type="line"/>
      <point x="198" y="776" type="line"/>
      <point x="62" y="776" type="line"/>
    </contour>
    <contour>
      <point x="-6" y="940" type="line"/>
      <point x="-3" y="849"/>
      <point x="38" y="815"/>
      <point x="129" y="815" type="curve" smooth="yes"/>
      <point x="221" y="815"/>
      <point x="265" y="849"/>
      <point x="269" y="940" type="curve"/>
      <point x="191" y="940" type="line"/>
      <point x="184" y="893"/>
      <point x="165" y="890"/>
      <point x="130" y="890" type="curve" smooth="yes"/>
      <point x="95" y="890"/>
      <point x="79" y="893"/>
      <point x="72" y="940" type="curve"/>
    </contour>
  </outline>
</glyph>
<glyph name="iogonek" format="2">
  <advance width="203"/>
  <unicode hex="012F"/>
  <outline>
    <contour>
      <point x="161" y="-133" type="curve" smooth="yes"/>
      <point x="146" y="-133"/>
      <point x="133" y="-127"/>
      <point x="122" y="-116" type="curve" smooth="yes"/>
      <point x="112" y="-106"/>
      <point x="107" y="-94"/>
      <point x="107" y="-80" type="curve" smooth="yes"/>
      <point x="107" y="-71"/>
      <point x="110" y="-63"/>
      <point x="116" y="-55" type="curve"/>
      <point x="123" y="-48"/>
      <point x="132" y="-44"/>
      <point x="143" y="-44" type="curve" smooth="yes"/>
      <point x="146" y="-44"/>
      <point x="149" y="-46"/>
      <point x="154" y="-46" type="curve"/>
      <point x="127" y="0" type="line"/>
      <point x="170" y="0" type="line"/>
      <point x="170" y="776" type="line"/>
      <point x="35" y="776" type="line"/>
      <point x="35" y="0" type="line"/>
      <point x="78" y="0" type="line"/>
      <point x="63" y="-5"/>
      <point x="51" y="-13"/>
      <point x="42" y="-24" type="curve" smooth="yes"/>
      <point x="33" y="-36"/>
      <point x="28" y="-51"/>
      <point x="28" y="-68" type="curve" smooth="yes"/>
      <point x="28" y="-91"/>
      <point x="37" y="-117"/>
      <point x="54" y="-136" type="curve"/>
      <point x="86" y="-168"/>
      <point x="125" y="-164"/>
      <point x="174" y="-160" type="curve"/>
      <point x="181" y="-131" type="line"/>
      <point x="173" y="-132"/>
      <point x="168" y="-133"/>
    </contour>
  </outline>
</glyph>
<glyph name="Idot" format="2">
  <advance width="203"/>
  <unicode hex="0130"/>
  <outline>
    <contour>
      <point x="34" y="0" type="line"/>
      <point x="169" y="0" type="line"/>
      <point x="169" y="776" type="line"/>
      <point x="34" y="776" type="line"/>
    </contour>
    <contour>
      <point x="104" y="937" type="curve" smooth="yes"/>
      <point x="55" y="937"/>
      <point x="37" y="917" name=".hr01"/>
      <point x="37" y="872" type="curve" smooth="yes"/>
      <point x="37" y="829"/>
      <point x="56" y="809"/>
      <point x="104" y="809" type="curve" smooth="yes"/>
      <point x="149" y="809"/>
      <point x="172" y="830"/>
      <point x="172" y="872" type="curve" smooth="yes"/>
      <point x="172" y="919"/>
      <point x="152" y="937"/>
    </contour>
  </outline>
</glyph>
<glyph name="dotlessi" format="2">
  <advance width="203"/>
  <unicode hex="0131"/>
  <outline>
    <contour>
      <point x="34" y="0" type="line"/>
      <point x="169" y="0" type="line"/>
      <point x="169" y="776" type="line"/>
      <point x="34" y="776" type="line"/>
    </contour>
  </outline>
</glyph>
<glyph name="ij" format="2">
  <advance width="539"/>
  <unicode hex="0133"/>
  <outline>
    <contour>
      <point x="47" y="0" type="line"/>
      <point x="182" y="0" type="line"/>
      <point x="182" y="776" type="line"/>
      <point x="47" y="776" type="line"/>
    </contour>
    <contour>
      <point x="230" y="0" type="line"/>
      <point x="408" y="0"/>
      <point x="487" y="34"/>
      <point x="487" y="206" type="curve" smooth="yes"/>
      <point x="487" y="778" type="line"/>
      <point x="353" y="778" type="line"/>
      <point x="353" y="217" type="line" smooth="yes"/>
      <point x="353" y="132"/>
      <point x="336" y="127"/>
      <point x="230" y="127" type="curve"/>
    </contour>
  </outline>
</glyph>
<glyph name="Jcircumflex" format="2">
  <advance width="338"/>
  <unicode hex="0134"/>
  <outline>
    <contour>
      <point x="20" y="0" type="line"/>
      <point x="198" y="0"/>
      <point x="277" y="34"/>
      <point x="277" y="206" type="curve" smooth="yes"/>
      <point x="277" y="778" type="line"/>
      <point x="143" y="778" type="line"/>
      <point x="143" y="217" type="line" smooth="yes"/>
      <point x="143" y="132"/>
      <point x="126" y="127"/>
      <point x="20" y="127" type="curve"/>
    </contour>
    <contour>
      <point x="41" y="815" type="line"/>
      <point x="154" y="815" type="line"/>
      <point x="200" y="883" type="line"/>
      <point x="251" y="816" type="line"/>
      <point x="361" y="816" type="line"/>
      <point x="288" y="929" type="line"/>
      <point x="114" y="929" type="line"/>
    </contour>
  </outline>
</glyph>
<glyph name="Kcommaaccent" format="2">
  <advance width="484"/>
  <unicode hex="0136"/>
  <outline>
    <contour>
      <point x="325" y="779" type="line"/>
      <point x="306" y="672"/>
      <point x="267" y="544"/>
      <point x="172" y="478" type="curve"/>
      <point x="172" y="779" type="line"/>
      <point x="37" y="779" type="line"/>
      <point x="37" y="0" type="line"/>
      <point x="172" y="0" type="line"/>
      <point x="172" y="302" type="line"/>
      <point x="266" y="237"/>
      <point x="306" y="106"/>
      <point x="325" y="0" type="curve"/>
      <point x="458" y="0" type="line"/>
      <point x="437" y="144"/>
      <point x="389" y="293"/>
      <point x="271" y="390" type="curve"/>
      <point x="391" y="486"/>
      <point x="437" y="638"/>
      <point x="458" y="779" type="curve"/>
    </contour>
    <contour>
      <point x="211" y="-254" type="line"/>
      <point x="264" y="-218"/>
      <point x="309" y="-166"/>
      <point x="302" y="-103" type="curve" smooth="yes"/>
      <point x="298" y="-60"/>
      <point x="271" y="-44"/>
      <point x="240" y="-44" type="curve" smooth="yes"/>
      <point x="197" y="-44"/>
      <point x="156" y="-77"/>
      <point x="164" y="-119" type="curve"/>
      <point x="168" y="-130"/>
      <point x="171" y="-135"/>
      <point x="178" y="-142" type="curve"/>
      <point x="178" y="-140" type="line"/>
      <point x="184" y="-150" type="line"/>
      <point x="192" y="-162"/>
      <point x="196" y="-177"/>
      <point x="196" y="-194" type="curve" smooth="yes"/>
      <point x="196" y="-209"/>
      <point x="189" y="-222"/>
      <point x="174" y="-232" type="curve"/>
    </contour>
  </outline>
</glyph>
<glyph name="lacute" format="2">
  <advance width="380"/>
  <unicode hex="013A"/>
  <outline>
    <contour>
      <point x="368" y="127" type="line"/>
      <point x="174" y="127" type="line"/>
      <point x="174" y="779" type="line"/>
      <point x="38" y="779" type="line"/>
      <point x="38" y="0" type="line"/>
      <point x="368" y="0" type="line"/>
    </contour>
    <contour>
      <point x="80" y="869" type="line" smooth="yes"/>
      <point x="64" y="845"/>
      <point x="49" y="821"/>
      <point x="49" y="818" type="curve"/>
      <point x="49" y="817"/>
      <point x="77" y="817"/>
      <point x="106" y="818" type="curve"/>
      <point x="123" y="818"/>
      <point x="142" y="819"/>
      <point x="163" y="820" type="curve"/>
      <point x="228" y="917" type="line"/>
      <point x="112" y="917" type="line"/>
    </contour>
  </outline>
</glyph>
<glyph name="Lcommaaccent" format="2">
  <advance width="380"/>
  <unicode hex="013B"/>
  <outline>
    <contour>
      <point x="368" y="127" type="line"/>
      <point x="174" y="127" type="line"/>
      <point x="174" y="779" type="line"/>
      <point x="38" y="779" type="line"/>
      <point x="38" y="0" type="line"/>
      <point x="368" y="0" type="line"/>
    </contour>
    <contour>
      <point x="184" y="-254" type="line"/>
      <point x="236" y="-218"/>
      <point x="282" y="-166"/>
      <point x="275" y="-103" type="curve" smooth="yes"/>
      <point x="270" y="-60"/>
      <point x="243" y="-44"/>
      <point x="212" y="-44" type="curve" smooth="yes"/>
      <point x="172" y="-44"/>
      <point x="127" y="-77"/>
      <point x="137" y="-119" type="curve" smooth="yes"/>
      <point x="140" y="-130"/>
      <point x="143" y="-135"/>
      <point x="150" y="-142" type="curve"/>
      <point x="150" y="-140" type="line"/>
      <point x="156" y="-150" type="line"/>
      <point x="164" y="-162"/>
      <point x="168" y="-177"/>
      <point x="168" y="-194" type="curve" smooth="yes"/>
      <point x="168" y="-209"/>
      <point x="161" y="-222"/>
      <point x="146" y="-232" type="curve"/>
    </contour>
  </outline>
</glyph>
<glyph name="lcaron" format="2">
  <advance width="380"/>
  <unicode hex="013E"/>
  <outline>
    <contour>
      <point x="368" y="127" type="line"/>
      <point x="174" y="127" type="line"/>
      <point x="174" y="779" type="line"/>
      <point x="38" y="779" type="line"/>
      <point x="38" y="0" type="line"/>
      <point x="368" y="0" type="line"/>
    </contour>
    <contour>
      <point x="253" y="566" type="line"/>
      <point x="306" y="603"/>
      <point x="351" y="655"/>
      <point x="344" y="718" type="curve" smooth="yes"/>
      <point x="340" y="761"/>
      <point x="313" y="776"/>
      <point x="282" y="776" type="curve" smooth="yes"/>
      <point x="239" y="776"/>
      <point x="198" y="744"/>
      <point x="206" y="702" type="curve"/>
      <point x="210" y="691"/>
      <point x="213" y="686"/>
      <point x="220" y="679" type="curve"/>
      <point x="220" y="680" type="line"/>
      <point x="226" y="671" type="line" smooth="yes"/>
      <point x="234" y="659"/>
      <point x="238" y="644"/>
      <point x="238" y="626" type="curve" smooth="yes"/>
      <point x="238" y="611"/>
      <point x="231" y="599"/>
      <point x="216" y="589" type="curve"/>
    </contour>
  </outline>
</glyph>
<glyph name="Ldot" format="2">
  <advance width="380"/>
  <unicode hex="013F"/>
  <outline>
    <contour>
      <point x="368" y="127" type="line"/>
      <point x="174" y="127" type="line"/>
      <point x="174" y="779" type="line"/>
      <point x="38" y="779" type="line"/>
      <point x="38" y="0" type="line"/>
      <point x="368" y="0" type="line"/>
    </contour>
    <contour>
      <point x="293" y="612" type="curve" smooth="yes"/>
      <point x="244" y="612"/>
      <point x="226" y="592"/>
      <point x="226" y="547" type="curve" smooth="yes"/>
      <point x="226" y="504"/>
      <point x="245" y="484"/>
      <point x="293" y="484" type="curve" smooth="yes"/>
      <point x="338" y="484"/>
      <point x="360" y="505"/>
      <point x="360" y="547" type="curve" smooth="yes"/>
      <point x="360" y="594"/>
      <point x="341" y="612"/>
    </contour>
  </outline>
</glyph>
<glyph name="lslash" format="2">
  <advance width="428"/>
  <unicode hex="0142"/>
  <outline>
    <contour>
      <point x="202" y="340" type="line"/>
      <point x="349" y="433" type="line"/>
      <point x="349" y="557" type="line"/>
      <point x="202" y="466" type="line"/>
      <point x="202" y="779" type="line"/>
      <point x="66" y="779" type="line"/>
      <point x="66" y="382" type="line"/>
      <point x="16" y="349" type="line"/>
      <point x="16" y="222" type="line"/>
      <point x="66" y="253" type="line"/>
      <point x="66" y="0" type="line"/>
      <point x="396" y="0" type="line"/>
      <point x="396" y="127" type="line"/>
      <point x="202" y="127" type="line"/>
    </contour>
  </outline>
</glyph>
<glyph name="nacute" format="2">
  <advance width="535"/>
  <unicode hex="0144"/>
  <outline>
    <contour>
      <point x="496" y="779" type="line"/>
      <point x="360" y="779" type="line"/>
      <point x="360" y="337" type="line"/>
      <point x="167" y="779" type="line"/>
      <point x="35" y="779" type="line"/>
      <point x="35" y="0" type="line"/>
      <point x="168" y="0" type="line"/>
      <point x="168" y="442" type="line"/>
      <point x="361" y="0" type="line"/>
      <point x="496" y="0" type="line"/>
    </contour>
    <contour>
      <point x="215" y="869" type="line" smooth="yes"/>
      <point x="199" y="845"/>
      <point x="184" y="821"/>
      <point x="184" y="818" type="curve"/>
      <point x="184" y="817"/>
      <point x="211" y="817"/>
      <point x="240" y="818" type="curve"/>
      <point x="257" y="818"/>
      <point x="276" y="819"/>
      <point x="298" y="820" type="curve"/>
      <point x="362" y="917" type="line"/>
      <point x="246" y="917" type="line"/>
    </contour>
  </outline>
</glyph>
<glyph name="ncommaaccent" format="2">
  <advance width="535"/>
  <unicode hex="0146"/>
  <outline>
    <contour>
      <point x="496" y="779" type="line"/>
      <point x="360" y="779" type="line"/>
      <point x="360" y="337" type="line"/>
      <point x="167" y="779" type="line"/>
      <point x="35" y="779" type="line"/>
      <point x="35" y="0" type="line"/>
      <point x="168" y="0" type="line"/>
      <point x="168" y="442" type="line"/>
      <point x="361" y="0" type="line"/>
      <point x="496" y="0" type="line"/>
    </contour>
    <contour>
      <point x="227" y="-254" type="line"/>
      <point x="279" y="-218"/>
      <point x="325" y="-166"/>
      <point x="318" y="-103" type="curve" smooth="yes"/>
      <point x="313" y="-60"/>
      <point x="285" y="-44"/>
      <point x="256" y="-44" type="curve" smooth="yes"/>
      <point x="214" y="-44"/>
      <point x="170" y="-77"/>
      <point x="180" y="-119" type="curve" smooth="yes"/>
      <point x="183" y="-130"/>
      <point x="186" y="-135"/>
      <point x="193" y="-142" type="curve"/>
      <point x="193" y="-140" type="line"/>
      <point x="199" y="-150" type="line"/>
      <point x="207" y="-162"/>
      <point x="211" y="-177"/>
      <point x="211" y="-194" type="curve" smooth="yes"/>
      <point x="211" y="-209"/>
      <point x="204" y="-222"/>
      <point x="190" y="-232" type="curve"/>
    </contour>
  </outline>
</glyph>
<glyph name="Ncaron" format="2">
  <advance width="535"/>
  <unicode hex="0147"/>
  <outline>
    <contour>
      <point x="496" y="779" type="line"/>
      <point x="360" y="779" type="line"/>
      <point x="360" y="337" type="line"/>
      <point x="167" y="779" type="line"/>
      <point x="35" y="779" type="line"/>
      <point x="35" y="0" type="line"/>
      <point x="168" y="0" type="line"/>
      <point x="168" y="442" type="line"/>
      <point x="361" y="0" type="line"/>
      <point x="496" y="0" type="line"/>
    </contour>
    <contour>
      <point x="430" y="918" type="line"/>
      <point x="305" y="918" type="line"/>
      <point x="258" y="846" type="line"/>
      <point x="208" y="913" type="line"/>
      <point x="83" y="913" type="line"/>
      <point x="155" y="803" type="line"/>
      <point x="360" y="805" type="line"/>
    </contour>
  </outline>
</glyph>
<glyph name="napostrophe" format="2">
  <advance width="710"/>
  <unicode hex="0149"/>
  <outline>
    <contour>
      <point x="671" y="779" type="line"/>
      <point x="535" y="779" type="line"/>
      <point x="535" y="337" type="line"/>
      <point x="342" y="779" type="line"/>
      <point x="210" y="779" type="line"/>
      <point x="210" y="0" type="line"/>
      <point x="343" y="0" type="line"/>
      <point x="343" y="442" type="line"/>
      <point x="536" y="0" type="line"/>
      <point x="671" y="0" type="line"/>
    </contour>
    <contour>
      <point x="83" y="582" type="line"/>
      <point x="135" y="619"/>
      <point x="181" y="670"/>
      <point x="174" y="733" type="curve" smooth="yes"/>
      <point x="169" y="777"/>
      <point x="141" y="792"/>
      <point x="112" y="792" type="curve" smooth="yes"/>
      <point x="71" y="792"/>
      <point x="25" y="759"/>
      <point x="36" y="718" type="curve" smooth="yes"/>
      <point x="39" y="706"/>
      <point x="42" y="702"/>
      <point x="49" y="695" type="curve"/>
      <point x="49" y="696" type="line"/>
      <point x="55" y="686" type="line"/>
      <point x="63" y="674"/>
      <point x="67" y="659"/>
      <point x="67" y="642" type="curve" smooth="yes"/>
      <point x="67" y="627"/>
      <point x="60" y="614"/>
      <point x="46" y="605" type="curve"/>
    </contour>
  </outline>
</glyph>
<glyph name="Eng" format="2">
  <advance width="446"/>
  <unicode hex="014A"/>
  <outline>
    <contour>
      <point x="416" y="649" type="line"/>
      <point x="416" y="0" type="line" smooth="yes"/>
      <point x="416" y="-36"/>
      <point x="399" y="-89"/>
      <point x="372" y="-126"/>
      <point x="338" y="-151"/>
      <point x="320" y="-158" type="qcurve" smooth="yes"/>
      <point x="278" y="-176"/>
      <point x="224" y="-173" type="qcurve"/>
      <point x="224" y="-82" type="line"/>
      <point x="245" y="-83"/>
      <point x="274" y="-68"/>
      <point x="293" y="-43"/>
      <point x="302" y="-13"/>
      <point x="304" y="1" type="qcurve"/>
      <point x="143" y="368" type="line"/>
      <point x="143" y="0" type="line"/>
      <point x="32" y="0" type="line"/>
      <point x="32" y="649" type="line"/>
      <point x="142" y="649" type="line"/>
      <point x="303" y="281" type="line"/>
      <point x="303" y="649" type="line"/>
    </contour>
  </outline>
</glyph>
<glyph name="eng" format="2">
  <advance width="535"/>
  <unicode hex="014B"/>
  <outline>
    <contour>
      <point x="364" y="779" type="line"/>
      <point x="364" y="337" type="line"/>
      <point x="170" y="779" type="line"/>
      <point x="38" y="779" type="line"/>
      <point x="38" y="0" type="line"/>
      <point x="172" y="0" type="line"/>
      <point x="172" y="442" type="line"/>
      <point x="365" y="1" type="line"/>
      <point x="357" y="-43"/>
      <point x="338" y="-104"/>
      <point x="269" y="-98" type="curve"/>
      <point x="269" y="-208" type="line"/>
      <point x="312" y="-210"/>
      <point x="351" y="-204"/>
      <point x="384" y="-190" type="curve" smooth="yes"/>
      <point x="441" y="-167"/>
      <point x="499" y="-114"/>
      <point x="499" y="0" type="curve" smooth="yes"/>
      <point x="499" y="779" type="line"/>
    </contour>
  </outline>
</glyph>
<glyph name="Omacron" format="2">
  <advance width="482"/>
  <unicode hex="014C"/>
  <outline>
    <contour>
      <point x="449" y="581" type="line" smooth="yes"/>
      <point x="449" y="724"/>
      <point x="393" y="779"/>
      <point x="238" y="779" type="curve" smooth="yes"/>
      <point x="86" y="779"/>
      <point x="30" y="724"/>
      <point x="30" y="581" type="curve" smooth="yes"/>
      <point x="30" y="198" type="line" smooth="yes"/>
      <point x="30" y="54"/>
      <point x="85" y="0"/>
      <point x="239" y="0" type="curve" smooth="yes"/>
      <point x="430" y="0"/>
      <point x="449" y="80"/>
      <point x="449" y="236" type="curve" smooth="yes"/>
    </contour>
    <contour>
      <point x="162" y="581" type="line"/>
      <point x="162" y="638"/>
      <point x="165" y="652"/>
      <point x="239" y="652" type="curve" smooth="yes"/>
      <point x="310" y="652"/>
      <point x="314" y="649"/>
      <point x="314" y="581" type="curve" smooth="yes"/>
      <point x="314" y="236" type="line" smooth="yes"/>
      <point x="314" y="166"/>
      <point x="314" y="130"/>
      <point x="241" y="130" type="curve" smooth="yes"/>
      <point x="173" y="130"/>
      <point x="164" y="149"/>
      <point x="164" y="230" type="curve"/>
    </contour>
    <contour>
      <point x="119" y="821" type="line" name=".hr01"/>
      <point x="130" y="820" type="line"/>
      <point x="156" y="820" type="line"/>
      <point x="194" y="820" type="line"/>
      <point x="238" y="820" type="line" smooth="yes"/>
      <point x="273" y="820"/>
      <point x="313" y="820"/>
      <point x="358" y="821" type="curve"/>
      <point x="359" y="918" type="line"/>
      <point x="119" y="918" type="line"/>
    </contour>
  </outline>
</glyph>
<glyph name="obreve" format="2">
  <advance width="482"/>
  <unicode hex="014F"/>
  <outline>
    <contour>
      <point x="449" y="581" type="line" smooth="yes"/>
      <point x="449" y="724"/>
      <point x="393" y="779"/>
      <point x="238" y="779" type="curve" smooth="yes"/>
      <point x="86" y="779"/>
      <point x="30" y="724"/>
      <point x="30" y="581" type="curve" smooth="yes"/>
      <point x="30" y="198" type="line" smooth="yes"/>
      <point x="30" y="54"/>
      <point x="85" y="0"/>
      <point x="239" y="0" type="curve" smooth="yes"/>
      <point x="430" y="0"/>
      <point x="449" y="80"/>
      <point x="449" y="236" type="curve" smooth="yes"/>
    </contour>
    <contour>
      <point x="162" y="581" type="line"/>
      <point x="162" y="638"/>
      <point x="165" y="652"/>
      <point x="239" y="652" type="curve" smooth="yes"/>
      <point x="310" y="652"/>
      <point x="314" y="649"/>
      <point x="314" y="581" type="curve" smooth="yes"/>
      <point x="314" y="236" type="line" smooth="yes"/>
      <point x="314" y="166"/>
      <point x="314" y="130"/>
      <point x="241" y="130" type="curve" smooth="yes"/>
      <point x="173" y="130"/>
      <point x="164" y="149"/>
      <point x="164" y="230" type="curve"/>
    </contour>
    <contour>
      <point x="92" y="940" type="line"/>
      <point x="96" y="849"/>
      <point x="141" y="815"/>
      <point x="232" y="815" type="curve" smooth="yes"/>
      <point x="324" y="815"/>
      <point x="372" y="849"/>
      <point x="376" y="940" type="curve"/>
      <point x="298" y="940" type="line"/>
      <point x="291" y="893"/>
      <point x="268" y="890"/>
      <point x="233" y="890" type="curve" smooth="yes"/>
      <point x="200" y="890"/>
      <point x="177" y="893"/>
      <point x="170" y="940" type="curve"/>
    </contour>
  </outline>
</glyph>
<glyph name="ohungarumlaut" format="2">
  <advance width="482"/>
  <unicode hex="0151"/>
  <outline>
    <contour>
      <point x="449" y="581" type="line" smooth="yes"/>
      <point x="449" y="724"/>
      <point x="393" y="779"/>
      <point x="238" y="779" type="curve" smooth="yes"/>
      <point x="86" y="779"/>
      <point x="30" y="724"/>
      <point x="30" y="581" type="curve" smooth="yes"/>
      <point x="30" y="198" type="line" smooth="yes"/>
      <point x="30" y="54"/>
      <point x="85" y="0"/>
      <point x="239" y="0" type="curve" smooth="yes"/>
      <point x="430" y="0"/>
      <point x="449" y="80"/>
      <point x="449" y="236" type="curve" smooth="yes"/>
    </contour>
    <contour>
      <point x="162" y="581" type="line"/>
      <point x="162" y="638"/>
      <point x="165" y="652"/>
      <point x="239" y="652" type="curve" smooth="yes"/>
      <point x="310" y="652"/>
      <point x="314" y="649"/>
      <point x="314" y="581" type="curve" smooth="yes"/>
      <point x="314" y="236" type="line" smooth="yes"/>
      <point x="314" y="166"/>
      <point x="314" y="130"/>
      <point x="241" y="130" type="curve" smooth="yes"/>
      <point x="173" y="130"/>
      <point x="164" y="149"/>
      <point x="164" y="230" type="curve"/>
    </contour>
    <contour>
      <point x="91" y="869" type="line" smooth="yes"/>
      <point x="75" y="845"/>
      <point x="60" y="821"/>
      <point x="60" y="818" type="curve"/>
      <point x="60" y="817"/>
      <point x="88" y="817"/>
      <point x="116" y="818" type="curve"/>
      <point x="133" y="818"/>
      <point x="153" y="819"/>
      <point x="174" y="820" type="curve"/>
      <point x="239" y="917" type="line"/>
      <point x="122" y="917" type="line"/>
    </contour>
    <contour>
      <point x="288" y="869" type="line" smooth="yes"/>
      <point x="272" y="845"/>
      <point x="257" y="821"/>
      <point x="257" y="818" type="curve"/>
      <point x="257" y="817"/>
      <point x="285" y="817"/>
      <point x="313" y="818" type="curve"/>
      <point x="330" y="818"/>
      <point x="349" y="819"/>
      <point x="371" y="820" type="curve"/>
      <point x="436" y="917" type="line"/>
      <point x="319" y="917" type="line"/>
    </contour>
  </outline>
</glyph>
<glyph name="OE" format="2">
  <advance width="696"/>
  <unicode hex="0152"/>
  <outline>
    <contour>
      <point x="673" y="653" type="line"/>
      <point x="673" y="779" type="line"/>
      <point x="294" y="779" type="line" smooth="yes"/>
      <point x="140" y="779"/>
      <point x="30" y="724"/>
      <point x="30" y="581" type="curve" smooth="yes"/>
      <point x="30" y="198" type="line" smooth="yes"/>
      <point x="30" y="54"/>
      <point x="140" y="0"/>
      <point x="294" y="0" type="curve" smooth="yes"/>
      <point x="673" y="0" type="line"/>
      <point x="673" y="127" type="line"/>
      <point x="428" y="127" type="line"/>
      <point x="428" y="344" type="line"/>
      <point x="601" y="344" type="line"/>
      <point x="601" y="472" type="line"/>
      <point x="428" y="472" type="line"/>
      <point x="428" y="653" type="line"/>
    </contour>
    <contour>
      <point x="294" y="130" type="line" name=".hr01"/>
      <point x="227" y="130"/>
      <point x="164" y="149"/>
      <point x="164" y="230" type="curve"/>
      <point x="162" y="580" type="line"/>
      <point x="162" y="637"/>
      <point x="219" y="652"/>
      <point x="294" y="652" type="curve"/>
    </contour>
  </outline>
</glyph>
<glyph name="racute" format="2">
  <advance width="492"/>
  <unicode hex="0155"/>
  <outline>
    <contour>
      <point x="461" y="0" type="line"/>
      <point x="350" y="282" type="line"/>
      <point x="402" y="297"/>
      <point x="429" y="327"/>
      <point x="444" y="364" type="curve" smooth="yes"/>
      <point x="451" y="383"/>
      <point x="456" y="403"/>
      <point x="458" y="425" type="curve" smooth="yes"/>
      <point x="460" y="447"/>
      <point x="460" y="487"/>
      <point x="459" y="546" type="curve" smooth="yes"/>
      <point x="458" y="605"/>
      <point x="454" y="646"/>
      <point x="447" y="671" type="curve" smooth="yes"/>
      <point x="440" y="696"/>
      <point x="429" y="716"/>
      <point x="413" y="732" type="curve" smooth="yes"/>
      <point x="381" y="764"/>
      <point x="327" y="779"/>
      <point x="248" y="779" type="curve" smooth="yes"/>
      <point x="37" y="779" type="line"/>
      <point x="37" y="0" type="line"/>
      <point x="172" y="0" type="line"/>
      <point x="172" y="269" type="line"/>
      <point x="211" y="269" type="line"/>
      <point x="317" y="0" type="line"/>
    </contour>
    <contour>
      <point x="172" y="653" type="line"/>
      <point x="248" y="653" type="line" smooth="yes"/>
      <point x="275" y="653"/>
      <point x="294" y="646"/>
      <point x="306" y="633" type="curve" smooth="yes"/>
      <point x="319" y="620"/>
      <point x="325" y="588"/>
      <point x="325" y="538" type="curve"/>
      <point x="326" y="489"/>
      <point x="325" y="457"/>
      <point x="324" y="444" type="curve" smooth="yes"/>
      <point x="322" y="403"/>
      <point x="286" y="395"/>
      <point x="172" y="395" type="curve"/>
    </contour>
    <contour>
      <point x="188" y="869" type="line" smooth="yes"/>
      <point x="172" y="845"/>
      <point x="157" y="821"/>
      <point x="157" y="818" type="curve"/>
      <point x="157" y="817"/>
      <point x="185" y="817"/>
      <point x="214" y="818" type="curve"/>
      <point x="231" y="818"/>
      <point x="250" y="819"/>
      <point x="271" y="820" type="curve"/>
      <point x="336" y="917" type="line"/>
      <point x="220" y="917" type="line"/>
    </contour>
  </outline>
</glyph>
<glyph name="rcommaaccent" format="2">
  <advance width="492"/>
  <unicode hex="0157"/>
  <outline>
    <contour>
      <point x="461" y="0" type="line"/>
      <point x="350" y="282" type="line"/>
      <point x="402" y="297"/>
      <point x="429" y="327"/>
      <point x="444" y="364" type="curve" smooth="yes"/>
      <point x="451" y="383"/>
      <point x="456" y="403"/>
      <point x="458" y="425" type="curve" smooth="yes"/>
      <point x="460" y="447"/>
      <point x="460" y="487"/>
      <point x="459" y="546" type="curve" smooth="yes"/>
      <point x="458" y="605"/>
      <point x="454" y="646"/>
      <point x="447" y="671" type="curve" smooth="yes"/>
      <point x="440" y="696"/>
      <point x="429" y="716"/>
      <point x="413" y="732" type="curve" smooth="yes"/>
      <point x="381" y="764"/>
      <point x="327" y="779"/>
      <point x="248" y="779" type="curve" smooth="yes"/>
      <point x="37" y="779" type="line"/>
      <point x="37" y="0" type="line"/>
      <point x="172" y="0" type="line"/>
      <point x="172" y="269" type="line"/>
      <point x="211" y="269" type="line"/>
      <point x="317" y="0" type="line"/>
    </contour>
    <contour>
      <point x="172" y="653" type="line"/>
      <point x="248" y="653" type="line" smooth="yes"/>
      <point x="275" y="653"/>
      <point x="294" y="646"/>
      <point x="306" y="633" type="curve" smooth="yes"/>
      <point x="319" y="620"/>
      <point x="325" y="588"/>
      <point x="325" y="538" type="curve"/>
      <point x="326" y="489"/>
      <point x="325" y="457"/>
      <point x="324" y="444" type="curve" smooth="yes"/>
      <point x="322" y="403"/>
      <point x="286" y="395"/>
      <point x="172" y="395" type="curve"/>
    </contour>
    <contour>
      <point x="215" y="-254" type="line"/>
      <point x="267" y="-218"/>
      <point x="313" y="-166"/>
      <point x="306" y="-103" type="curve" smooth="yes"/>
      <point x="301" y="-60"/>
      <point x="273" y="-44"/>
      <point x="244" y="-44" type="curve" smooth="yes"/>
      <point x="202" y="-44"/>
      <point x="158" y="-77"/>
      <point x="168" y="-119" type="curve" smooth="yes"/>
      <point x="171" y="-130"/>
      <point x="174" y="-135"/>
      <point x="181" y="-142" type="curve"/>
      <point x="181" y="-140" type="line"/>
      <point x="187" y="-150" type="line"/>
      <point x="195" y="-162"/>
      <point x="199" y="-177"/>
      <point x="199" y="-194" type="curve" smooth="yes"/>
      <point x="199" y="-209"/>
      <point x="192" y="-222"/>
      <point x="178" y="-232" type="curve"/>
    </contour>
  </outline>
</glyph>
<glyph name="rcaron" format="2">
  <advance width="492"/>
  <unicode hex="0159"/>
  <outline>
    <contour>
      <point x="461" y="0" type="line"/>
      <point x="350" y="282" type="line"/>
      <point x="402" y="297"/>
      <point x="429" y="327"/>
      <point x="444" y="364" type="curve" smooth="yes"/>
      <point x="451" y="383"/>
      <point x="456" y="403"/>
      <point x="458" y="425" type="curve" smooth="yes"/>
      <point x="460" y="447"/>
      <point x="460" y="487"/>
      <point x="459" y="546" type="curve" smooth="yes"/>
      <point x="458" y="605"/>
      <point x="454" y="646"/>
      <point x="447" y="671" type="curve" smooth="yes"/>
      <point x="440" y="696"/>
      <point x="429" y="716"/>
      <point x="413" y="732" type="curve" smooth="yes"/>
      <point x="381" y="764"/>
      <point x="327" y="779"/>
      <point x="248" y="779" type="curve" smooth="yes"/>
      <point x="37" y="779" type="line"/>
      <point x="37" y="0" type="line"/>
      <point x="172" y="0" type="line"/>
      <point x="172" y="269" type="line"/>
      <point x="211" y="269" type="line"/>
      <point x="317" y="0" type="line"/>
    </contour>
    <contour>
      <point x="172" y="653" type="line"/>
      <point x="248" y="653" type="line" smooth="yes"/>
      <point x="275" y="653"/>
      <point x="294" y="646"/>
      <point x="306" y="633" type="curve" smooth="yes"/>
      <point x="319" y="620"/>
      <point x="325" y="588"/>
      <point x="325" y="538" type="curve"/>
      <point x="326" y="489"/>
      <point x="325" y="457"/>
      <point x="324" y="444" type="curve" smooth="yes"/>
      <point x="322" y="403"/>
      <point x="286" y="395"/>
      <point x="172" y="395" type="curve"/>
    </contour>
    <contour>
      <point x="412" y="918" type="line"/>
      <point x="287" y="918" type="line"/>
      <point x="240" y="846" type="line"/>
      <point x="190" y="913" type="line"/>
      <point x="65" y="913" type="line"/>
      <point x="137" y="803" type="line"/>
      <point x="342" y="805" type="line"/>
    </contour>
  </outline>
</glyph>
<glyph name="sacute" format="2">
  <advance width="482"/>
  <unicode hex="015B"/>
  <outline>
    <contour>
      <point x="30" y="242" type="line"/>
      <point x="30" y="88"/>
      <point x="43" y="0"/>
      <point x="240" y="0" type="curve" smooth="yes"/>
      <point x="398" y="0"/>
      <point x="450" y="57"/>
      <point x="450" y="198" type="curve" smooth="yes"/>
      <point x="450" y="224" type="line" smooth="yes"/>
      <point x="450" y="368"/>
      <point x="451" y="472"/>
      <point x="240" y="472" type="curve" smooth="yes"/>
      <point x="230" y="472"/>
      <point x="172" y="473"/>
      <point x="169" y="484" type="curve"/>
      <point x="161" y="505"/>
      <point x="162" y="534"/>
      <point x="163" y="562" type="curve"/>
      <point x="163" y="581" type="line" smooth="yes"/>
      <point x="163" y="648"/>
      <point x="165" y="652"/>
      <point x="240" y="652" type="curve" smooth="yes"/>
      <point x="317" y="652"/>
      <point x="316" y="645"/>
      <point x="316" y="575" type="curve"/>
      <point x="450" y="575" type="line"/>
      <point x="450" y="719"/>
      <point x="396" y="778"/>
      <point x="240" y="778" type="curve" smooth="yes"/>
      <point x="82" y="778"/>
      <point x="30" y="721"/>
      <point x="30" y="581" type="curve" smooth="yes"/>
      <point x="30" y="430"/>
      <point x="43" y="344"/>
      <point x="240" y="344" type="curve" smooth="yes"/>
      <point x="245" y="344" type="line" smooth="yes"/>
      <point x="267" y="344"/>
      <point x="307" y="343"/>
      <point x="312" y="328" type="curve"/>
      <point x="319" y="296"/>
      <point x="318" y="261"/>
      <point x="317" y="230" type="curve"/>
      <point x="317" y="218"/>
      <point x="316" y="209"/>
      <point x="316" y="198" type="curve" smooth="yes"/>
      <point x="316" y="185" type="line" smooth="yes"/>
      <point x="316" y="135"/>
      <point x="314" y="130"/>
      <point x="251" y="127" type="curve"/>
      <point x="160" y="124"/>
      <point x="159" y="140"/>
      <point x="162" y="198" type="curve"/>
      <point x="162" y="211"/>
      <point x="163" y="229"/>
      <point x="163" y="242" type="curve"/>
    </contour>
    <contour>
      <point x="181" y="869" type="line" smooth="yes"/>
      <point x="165" y="845"/>
      <point x="150" y="821"/>
      <point x="150" y="818" type="curve"/>
      <point x="150" y="817"/>
      <point x="178" y="817"/>
      <point x="206" y="818" type="curve"/>
      <point x="223" y="818"/>
      <point x="243" y="819"/>
      <point x="264" y="820" type="curve"/>
      <point x="329" y="917" type="line"/>
      <point x="212" y="917" type="line"/>
    </contour>
  </outline>
</glyph>
<glyph name="Scircumflex" format="2">
  <advance width="482"/>
  <unicode hex="015C"/>
  <outline>
    <contour>
      <point x="30" y="242" type="line"/>
      <point x="30" y="88"/>
      <point x="43" y="0"/>
      <point x="240" y="0" type="curve" smooth="yes"/>
      <point x="398" y="0"/>
      <point x="450" y="57"/>
      <point x="450" y="198" type="curve" smooth="yes"/>
      <point x="450" y="224" type="line" smooth="yes"/>
      <point x="450" y="368"/>
      <point x="451" y="472"/>
      <point x="240" y="472" type="curve" smooth="yes"/>
      <point x="230" y="472"/>
      <point x="172" y="473"/>
      <point x="169" y="484" type="curve"/>
      <point x="161" y="505"/>
      <point x="162" y="534"/>
      <point x="163" y="562" type="curve"/>
      <point x="163" y="581" type="line" smooth="yes"/>
      <point x="163" y="648"/>
      <point x="165" y="652"/>
      <point x="240" y="652" type="curve" smooth="yes"/>
      <point x="317" y="652"/>
      <point x="316" y="645"/>
      <point x="316" y="575" type="curve"/>
      <point x="450" y="575" type="line"/>
      <point x="450" y="719"/>
      <point x="396" y="778"/>
      <point x="240" y="778" type="curve" smooth="yes"/>
      <point x="82" y="778"/>
      <point x="30" y="721"/>
      <point x="30" y="581" type="curve" smooth="yes"/>
      <point x="30" y="430"/>
      <point x="43" y="344"/>
      <point x="240" y="344" type="curve" smooth="yes"/>
      <point x="245" y="344" type="line" smooth="yes"/>
      <point x="267" y="344"/>
      <point x="307" y="343"/>
      <point x="312" y="328" type="curve"/>
      <point x="319" y="296"/>
      <point x="318" y="261"/>
      <point x="317" y="230" type="curve"/>
      <point x="317" y="218"/>
      <point x="316" y="209"/>
      <point x="316" y="198" type="curve" smooth="yes"/>
      <point x="316" y="185" type="line" smooth="yes"/>
      <point x="316" y="135"/>
      <point x="314" y="130"/>
      <point x="251" y="127" type="curve"/>
      <point x="160" y="124"/>
      <point x="159" y="140"/>
      <point x="162" y="198" type="curve"/>
      <point x="162" y="211"/>
      <point x="163" y="229"/>
      <point x="163" y="242" type="curve"/>
    </contour>
    <contour>
      <point x="65" y="811" type="line"/>
      <point x="190" y="811" type="line"/>
      <point x="236" y="883" type="line"/>
      <point x="287" y="816" type="line"/>
      <point x="412" y="816" type="line"/>
      <point x="340" y="929" type="line"/>
      <point x="134" y="926" type="line"/>
    </contour>
  </outline>
</glyph>
<glyph name="Scedilla" format="2">
  <advance width="482"/>
  <unicode hex="015E"/>
  <outline>
    <contour>
      <point x="242" y="470" type="curve" smooth="yes"/>
      <point x="231" y="470"/>
      <point x="175" y="474"/>
      <point x="172" y="482" type="curve" smooth="yes"/>
      <point x="164" y="505"/>
      <point x="163" y="533"/>
      <point x="166" y="560" type="curve"/>
      <point x="166" y="580" type="line" smooth="yes"/>
      <point x="166" y="648"/>
      <point x="169" y="650"/>
      <point x="242" y="650" type="curve" smooth="yes"/>
      <point x="319" y="650"/>
      <point x="318" y="645"/>
      <point x="318" y="574" type="curve"/>
      <point x="452" y="574" type="line"/>
      <point x="452" y="718"/>
      <point x="400" y="776"/>
      <point x="242" y="776" type="curve" smooth="yes"/>
      <point x="84" y="776"/>
      <point x="32" y="721"/>
      <point x="32" y="580" type="curve" smooth="yes"/>
      <point x="32" y="427"/>
      <point x="45" y="343"/>
      <point x="242" y="343" type="curve" smooth="yes"/>
      <point x="247" y="343" type="line" smooth="yes"/>
      <point x="270" y="343"/>
      <point x="308" y="340"/>
      <point x="314" y="326" type="curve"/>
      <point x="321" y="294"/>
      <point x="320" y="260"/>
      <point x="319" y="229" type="curve"/>
      <point x="319" y="217"/>
      <point x="318" y="208"/>
      <point x="318" y="197" type="curve" smooth="yes"/>
      <point x="318" y="184" type="line" smooth="yes"/>
      <point x="318" y="133"/>
      <point x="318" y="129"/>
      <point x="253" y="126" type="curve" smooth="yes"/>
      <point x="164" y="123"/>
      <point x="161" y="137"/>
      <point x="164" y="197" type="curve"/>
      <point x="164" y="209"/>
      <point x="166" y="226"/>
      <point x="166" y="241" type="curve"/>
      <point x="32" y="241" type="line"/>
      <point x="32" y="92"/>
      <point x="46" y="4"/>
      <point x="218" y="-1" type="curve"/>
      <point x="188" y="-46" type="line"/>
      <point x="193" y="-46"/>
      <point x="198" y="-44"/>
      <point x="202" y="-44" type="curve" smooth="yes"/>
      <point x="213" y="-44"/>
      <point x="223" y="-48"/>
      <point x="232" y="-55" type="curve"/>
      <point x="240" y="-63"/>
      <point x="244" y="-71" name=".hr01"/>
      <point x="244" y="-80" type="curve" smooth="yes"/>
      <point x="244" y="-94"/>
      <point x="238" y="-106"/>
      <point x="226" y="-116" type="curve" smooth="yes"/>
      <point x="212" y="-127"/>
      <point x="197" y="-133"/>
      <point x="180" y="-133" type="curve" smooth="yes"/>
      <point x="172" y="-133"/>
      <point x="164" y="-132"/>
      <point x="155" y="-131" type="curve"/>
      <point x="164" y="-160" type="line"/>
      <point x="223" y="-164"/>
      <point x="267" y="-168"/>
      <point x="306" y="-136" type="curve"/>
      <point x="327" y="-117"/>
      <point x="337" y="-91"/>
      <point x="337" y="-68" type="curve" smooth="yes"/>
      <point x="337" y="-51"/>
      <point x="331" y="-37"/>
      <point x="320" y="-24" type="curve" smooth="yes"/>
      <point x="311" y="-15"/>
      <point x="297" y="-7"/>
      <point x="277" y="0" type="curve"/>
      <point x="288" y="0" type="line" smooth="yes"/>
      <point x="291" y="0"/>
      <point x="295" y="0"/>
      <point x="298" y="1" type="curve"/>
      <point x="303" y="1"/>
      <point x="310" y="2"/>
      <point x="317" y="2" type="curve"/>
      <point x="308" y="2" type="line"/>
      <point x="416" y="18"/>
      <point x="452" y="77" name=".hr02"/>
      <point x="452" y="197" type="curve" smooth="yes"/>
      <point x="452" y="223" type="line" smooth="yes"/>
      <point x="452" y="367"/>
      <point x="454" y="470"/>
    </contour>
  </outline>
</glyph>
<glyph name="Scaron" format="2">
  <advance width="482"/>
  <unicode hex="0160"/>
  <outline>
    <contour>
      <point x="30" y="242" type="line"/>
      <point x="30" y="88"/>
      <point x="43" y="0"/>
      <point x="240" y="0" type="curve" smooth="yes"/>
      <point x="398" y="0"/>
      <point x="450" y="57"/>
      <point x="450" y="198" type="curve" smooth="yes"/>
      <point x="450" y="224" type="line" smooth="yes"/>
      <point x="450" y="368"/>
      <point x="451" y="472"/>
      <point x="240" y="472" type="curve" smooth="yes"/>
      <point x="230" y="472"/>
      <point x="172" y="473"/>
      <point x="169" y="484" type="curve"/>
      <point x="161" y="505"/>
      <point x="162" y="534"/>
      <point x="163" y="562" type="curve"/>
      <point x="163" y="581" type="line" smooth="yes"/>
      <point x="163" y="648"/>
      <point x="165" y="652"/>
      <point x="240" y="652" type="curve" smooth="yes"/>
      <point x="317" y="652"/>
      <point x="316" y="645"/>
      <point x="316" y="575" type="curve"/>
      <point x="450" y="575" type="line"/>
      <point x="450" y="719"/>
      <point x="396" y="778"/>
      <point x="240" y="778" type="curve" smooth="yes"/>
      <point x="82" y="778"/>
      <point x="30" y="721"/>
      <point x="30" y="581" type="curve" smooth="yes"/>
      <point x="30" y="430"/>
      <point x="43" y="344"/>
      <point x="240" y="344" type="curve" smooth="yes"/>
      <point x="245" y="344" type="line" smooth="yes"/>
      <point x="267" y="344"/>
      <point x="307" y="343"/>
      <point x="312" y="328" type="curve"/>
      <point x="319" y="296"/>
      <point x="318" y="261"/>
      <point x="317" y="230" type="curve"/>
      <point x="317" y="218"/>
      <point x="316" y="209"/>
      <point x="316" y="198" type="curve" smooth="yes"/>
      <point x="316" y="185" type="line" smooth="yes"/>
      <point x="316" y="135"/>
      <point x="314" y="130"/>
      <point x="251" y="127" type="curve"/>
      <point x="160" y="124"/>
      <point x="159" y="140"/>
      <point x="162" y="198" type="curve"/>
      <point x="162" y="211"/>
      <point x="163" y="229"/>
      <point x="163" y="242" type="curve"/>
    </contour>
    <contour>
      <point x="406" y="918" type="line"/>
      <point x="281" y="918" type="line"/>
      <point x="234" y="846" type="line"/>
      <point x="184" y="913" type="line"/>
      <point x="59" y="913" type="line"/>
      <point x="131" y="803" type="line"/>
      <point x="336" y="805" type="line"/>
    </contour>
  </outline>
</glyph>
<glyph name="Tcommaaccent" format="2">
  <advance width="356"/>
  <unicode hex="0162"/>
  <outline>
    <contour>
      <point x="247" y="653" type="line"/>
      <point x="372" y="653" type="line"/>
      <point x="372" y="779" type="line"/>
      <point x="-11" y="779" type="line"/>
      <point x="-11" y="653" type="line"/>
      <point x="114" y="653" type="line"/>
      <point x="114" y="0" type="line"/>
      <point x="154" y="0" type="line"/>
      <point x="139" y="-5"/>
      <point x="127" y="-13"/>
      <point x="118" y="-24" type="curve" smooth="yes"/>
      <point x="108" y="-36"/>
      <point x="103" y="-51"/>
      <point x="103" y="-68" type="curve" smooth="yes"/>
      <point x="103" y="-91"/>
      <point x="111" y="-117"/>
      <point x="130" y="-136" type="curve" smooth="yes"/>
      <point x="162" y="-168"/>
      <point x="199" y="-164"/>
      <point x="250" y="-160" type="curve"/>
      <point x="258" y="-131" type="line"/>
      <point x="250" y="-132"/>
      <point x="243" y="-133"/>
      <point x="236" y="-133" type="curve" smooth="yes"/>
      <point x="222" y="-133"/>
      <point x="209" y="-127"/>
      <point x="198" y="-116" type="curve" smooth="yes"/>
      <point x="187" y="-106"/>
      <point x="182" y="-94"/>
      <point x="182" y="-80" type="curve" smooth="yes"/>
      <point x="182" y="-72"/>
      <point x="186" y="-64"/>
      <point x="193" y="-55" type="curve" smooth="yes"/>
      <point x="199" y="-48"/>
      <point x="207" y="-44"/>
      <point x="218" y="-44" type="curve" smooth="yes"/>
      <point x="222" y="-44"/>
      <point x="226" y="-46"/>
      <point x="229" y="-46" type="curve"/>
      <point x="203" y="0" type="line"/>
      <point x="247" y="0" type="line"/>
    </contour>
  </outline>
</glyph>
<glyph name="tcommaaccent" format="2">
  <advance width="356"/>
  <unicode hex="0163"/>
  <outline>
    <contour>
      <point x="367" y="779" type="line"/>
      <point x="-16" y="779" type="line"/>
      <point x="-16" y="653" type="line"/>
      <point x="109" y="653" type="line"/>
      <point x="109" y="0" type="line"/>
      <point x="242" y="0" type="line"/>
      <point x="242" y="653" type="line"/>
      <point x="367" y="653" type="line"/>
    </contour>
    <contour>
      <point x="160" y="-254" type="line"/>
      <point x="212" y="-218"/>
      <point x="258" y="-166"/>
      <point x="251" y="-103" type="curve" smooth="yes"/>
      <point x="246" y="-60"/>
      <point x="219" y="-44"/>
      <point x="188" y="-44" type="curve" smooth="yes"/>
      <point x="148" y="-44"/>
      <point x="103" y="-77"/>
      <point x="113" y="-119" type="curve" smooth="yes"/>
      <point x="116" y="-130"/>
      <point x="119" y="-135"/>
      <point x="126" y="-142" type="curve"/>
      <point x="126" y="-140" type="line"/>
      <point x="132" y="-150" type="line"/>
      <point x="140" y="-162"/>
      <point x="144" y="-177"/>
      <point x="144" y="-194" type="curve" smooth="yes"/>
      <point x="144" y="-209"/>
      <point x="137" y="-222"/>
      <point x="122" y="-232" type="curve"/>
    </contour>
  </outline>
</glyph>
<glyph name="tcaron" format="2">
  <advance width="356"/>
  <unicode hex="0165"/>
  <outline>
    <contour>
      <point x="367" y="779" type="line"/>
      <point x="-16" y="779" type="line"/>
      <point x="-16" y="653" type="line"/>
      <point x="109" y="653" type="line"/>
      <point x="109" y="0" type="line"/>
      <point x="242" y="0" type="line"/>
      <point x="242" y="653" type="line"/>
      <point x="367" y="653" type="line"/>
    </contour>
    <contour>
      <point x="353" y="918" type="line"/>
      <point x="228" y="918" type="line"/>
      <point x="181" y="846" type="line"/>
      <point x="131" y="913" type="line"/>
      <point x="6" y="913" type="line"/>
      <point x="78" y="803" type="line"/>
      <point x="283" y="805" type="line"/>
    </contour>
  </outline>
</glyph>
<glyph name="Tbar" format="2">
  <advance width="356"/>
  <unicode hex="0166"/>
  <outline>
    <contour>
      <point x="368" y="779" type="line"/>
      <point x="-14" y="779" type="line"/>
      <point x="-14" y="653" type="line"/>
      <point x="110" y="653" type="line"/>
      <point x="110" y="516" type="line"/>
      <point x="12" y="516" type="line"/>
      <point x="12" y="426" type="line"/>
      <point x="110" y="426" type="line"/>
      <point x="110" y="0" type="line"/>
      <point x="244" y="0" type="line"/>
      <point x="244" y="426" type="line"/>
      <point x="342" y="426" type="line"/>
      <point x="342" y="516" type="line"/>
      <point x="244" y="516" type="line"/>
      <point x="244" y="653" type="line"/>
      <point x="368" y="653" type="line"/>
    </contour>
  </outline>
</glyph>
<glyph name="Utilde" format="2">
  <advance width="481"/>
  <unicode hex="0168"/>
  <outline>
    <contour>
      <point x="30" y="778" type="line"/>
      <point x="30" y="198" type="line" smooth="yes"/>
      <point x="30" y="57"/>
      <point x="82" y="0"/>
      <point x="240" y="0" type="curve" smooth="yes"/>
      <point x="436" y="0"/>
      <point x="450" y="85"/>
      <point x="450" y="236" type="curve" smooth="yes"/>
      <point x="450" y="778" type="line"/>
      <point x="317" y="778" type="line"/>
      <point x="316" y="383"/>
      <point x="315" y="176"/>
      <point x="314" y="157" type="curve"/>
      <point x="311" y="140"/>
      <point x="277" y="128"/>
      <point x="242" y="128" type="curve" smooth="yes"/>
      <point x="210" y="128"/>
      <point x="180" y="137"/>
      <point x="172" y="150" type="curve"/>
      <point x="173" y="150" type="line"/>
      <point x="168" y="161"/>
      <point x="168" y="179"/>
      <point x="168" y="192" type="curve" smooth="yes"/>
      <point x="168" y="198" type="line"/>
      <point x="164" y="778" type="line"/>
    </contour>
    <contour>
      <point x="352" y="920" type="line"/>
      <point x="348" y="914" type="line"/>
      <point x="336" y="898"/>
      <point x="323" y="888"/>
      <point x="308" y="884" type="curve" smooth="yes"/>
      <point x="291" y="880"/>
      <point x="268" y="887"/>
      <point x="241" y="906" type="curve" smooth="yes"/>
      <point x="220" y="921"/>
      <point x="198" y="928" name=".hr01"/>
      <point x="175" y="928" type="curve" smooth="yes"/>
      <point x="151" y="928"/>
      <point x="128" y="921"/>
      <point x="107" y="906" type="curve"/>
      <point x="75" y="889"/>
      <point x="56" y="861"/>
      <point x="53" y="858" type="curve"/>
      <point x="49" y="851" type="line"/>
      <point x="98" y="806" type="line"/>
      <point x="103" y="803" type="line"/>
      <point x="108" y="809" type="line"/>
      <point x="118" y="818" type="line"/>
      <point x="127" y="829" type="line"/>
      <point x="142" y="840" type="line"/>
      <point x="151" y="845"/>
      <point x="163" y="850"/>
      <point x="175" y="850" type="curve" smooth="yes"/>
      <point x="184" y="850"/>
      <point x="194" y="845"/>
      <point x="203" y="840" type="curve"/>
      <point x="237" y="817"/>
      <point x="269" y="805" name=".hr02"/>
      <point x="299" y="805" type="curve" smooth="yes"/>
      <point x="311" y="805" type="line" smooth="yes"/>
      <point x="314" y="805"/>
      <point x="318" y="805"/>
      <point x="322" y="806" type="curve" smooth="yes"/>
      <point x="351" y="813"/>
      <point x="377" y="832"/>
      <point x="402" y="862" type="curve" smooth="yes"/>
      <point x="407" y="868" type="line"/>
    </contour>
  </outline>
</glyph>
<glyph name="umacron" format="2">
  <advance width="481"/>
  <unicode hex="016B"/>
  <outline>
    <contour>
      <point x="30" y="778" type="line"/>
      <point x="30" y="198" type="line" smooth="yes"/>
      <point x="30" y="57"/>
      <point x="82" y="0"/>
      <point x="240" y="0" type="curve" smooth="yes"/>
      <point x="436" y="0"/>
      <point x="450" y="85"/>
      <point x="450" y="236" type="curve" smooth="yes"/>
      <point x="450" y="778" type="line"/>
      <point x="317" y="778" type="line"/>
      <point x="316" y="383"/>
      <point x="315" y="176"/>
      <point x="314" y="157" type="curve"/>
      <point x="311" y="140"/>
      <point x="277" y="128"/>
      <point x="242" y="128" type="curve" smooth="yes"/>
      <point x="210" y="128"/>
      <point x="180" y="137"/>
      <point x="172" y="150" type="curve"/>
      <point x="173" y="150" type="line"/>
      <point x="168" y="161"/>
      <point x="168" y="179"/>
      <point x="168" y="192" type="curve" smooth="yes"/>
      <point x="168" y="198" type="line"/>
      <point x="164" y="778" type="line"/>
    </contour>
    <contour>
      <point x="113" y="822" type="line"/>
      <point x="124" y="822" type="line"/>
      <point x="130" y="821"/>
      <point x="139" y="821"/>
      <point x="150" y="821" type="curve" smooth="yes"/>
      <point x="188" y="821" type="line"/>
      <point x="232" y="821" type="line" smooth="yes"/>
      <point x="267" y="821"/>
      <point x="307" y="821"/>
      <point x="352" y="822" type="curve"/>
      <point x="353" y="919" type="line"/>
      <point x="113" y="919" type="line"/>
    </contour>
  </outline>
</glyph>
<glyph name="ubreve" format="2">
  <advance width="481"/>
  <unicode hex="016D"/>
  <outline>
    <contour>
      <point x="30" y="778" type="line"/>
      <point x="30" y="198" type="line" smooth="yes"/>
      <point x="30" y="57"/>
      <point x="82" y="0"/>
      <point x="240" y="0" type="curve" smooth="yes"/>
      <point x="436" y="0"/>
      <point x="450" y="85"/>
      <point x="450" y="236" type="curve" smooth="yes"/>
      <point x="450" y="778" type="line"/>
      <point x="317" y="778" type="line"/>
      <point x="317" y="711" type="line"/>
      <point x="318" y="685"/>
      <point x="318" y="591"/>
      <point x="317" y="428" type="curve" smooth="yes"/>
      <point x="316" y="266"/>
      <point x="315" y="176"/>
      <point x="314" y="157" type="curve"/>
      <point x="311" y="140"/>
      <point x="277" y="128"/>
      <point x="242" y="128" type="curve" smooth="yes"/>
      <point x="210" y="128"/>
      <point x="180" y="137"/>
      <point x="172" y="150" type="curve"/>
      <point x="173" y="150" type="line"/>
      <point x="168" y="161"/>
      <point x="168" y="179"/>
      <point x="168" y="192" type="curve" smooth="yes"/>
      <point x="168" y="198" type="line"/>
      <point x="164" y="778" type="line"/>
    </contour>
    <contour>
      <point x="104" y="940" type="line"/>
      <point x="108" y="849"/>
      <point x="149" y="815"/>
      <point x="240" y="815" type="curve" smooth="yes"/>
      <point x="331" y="815"/>
      <point x="376" y="849"/>
      <point x="379" y="940" type="curve"/>
      <point x="301" y="940" type="line"/>
      <point x="294" y="893"/>
      <point x="275" y="890"/>
      <point x="240" y="890" type="curve" smooth="yes"/>
      <point x="207" y="890"/>
      <point x="189" y="893"/>
      <point x="182" y="940" type="curve"/>
    </contour>
  </outline>
</glyph>
<glyph name="uring" format="2">
  <advance width="481"/>
  <unicode hex="016F"/>
  <outline>
    <contour>
      <point x="30" y="778" type="line"/>
      <point x="30" y="198" type="line" smooth="yes"/>
      <point x="30" y="57"/>
      <point x="82" y="0"/>
      <point x="240" y="0" type="curve" smooth="yes"/>
      <point x="436" y="0"/>
      <point x="450" y="85"/>
      <point x="450" y="236" type="curve" smooth="yes"/>
      <point x="450" y="778" type="line"/>
      <point x="317" y="778" type="line"/>
      <point x="316" y="383"/>
      <point x="315" y="176"/>
      <point x="314" y="157" type="curve"/>
      <point x="311" y="140"/>
      <point x="277" y="128"/>
      <point x="242" y="128" type="curve" smooth="yes"/>
      <point x="210" y="128"/>
      <point x="180" y="137"/>
      <point x="172" y="150" type="curve"/>
      <point x="173" y="150" type="line"/>
      <point x="168" y="161"/>
      <point x="168" y="179"/>
      <point x="168" y="192" type="curve" smooth="yes"/>
      <point x="168" y="198" type="line"/>
      <point x="164" y="778" type="line"/>
    </contour>
    <contour>
      <point x="95" y="940" type="line"/>
      <point x="98" y="849"/>
      <point x="144" y="815"/>
      <point x="235" y="815" type="curve" smooth="yes"/>
      <point x="327" y="815"/>
      <point x="375" y="849"/>
      <point x="378" y="940" type="curve"/>
      <point x="300" y="940" type="line"/>
      <point x="293" y="893"/>
      <point x="271" y="890"/>
      <point x="235" y="890" type="curve" smooth="yes"/>
      <point x="202" y="890"/>
      <point x="180" y="893"/>
      <point x="173" y="940" type="curve"/>
    </contour>
  </outline>
</glyph>
